<svg width="400" height="400" viewBox="0 0 401 401" fill="none" xmlns="http://www.w3.org/2000/svg">
<mask id="mask0_70_4111" style="mask-type:luminance" maskUnits="userSpaceOnUse" x="0" y="0" width="401" height="401">
<path d="M0 6.10352e-05H401V401H0V6.10352e-05Z" fill="white"/>
</mask>
<g mask="url(#mask0_70_4111)">
<path d="M350.792 252.574C350.792 252.574 391.772 206.527 378.743 126.393C365.713 46.2599 298.809 16.7415 254.41 32.1688C210.011 47.5961 200.023 74.4302 163.759 89.7869C127.494 105.144 58.6467 94.5901 24.204 146.154C-10.2387 197.717 33.7285 283.158 89.7017 336.732C145.674 390.305 288.559 356.758 350.792 252.574Z" fill="#EC5E3C"/>
<mask id="mask1_70_4111" style="mask-type:luminance" maskUnits="userSpaceOnUse" x="12" y="28" width="370" height="334">
<path d="M12.0317 28.2256H381.3V361.941H12.0317V28.2256Z" fill="white"/>
</mask>
<g mask="url(#mask1_70_4111)">
<g opacity="0.699997">
<path d="M350.792 252.574C350.792 252.574 391.772 206.527 378.743 126.393C365.713 46.2599 298.809 16.7415 254.41 32.1688C210.011 47.5961 200.023 74.4302 163.759 89.7869C127.494 105.144 58.6467 94.5901 24.204 146.154C-10.2387 197.717 33.7285 283.158 89.7017 336.732C145.674 390.305 288.559 356.758 350.792 252.574Z" fill="#F0F0F0"/>
</g>
</g>
</g>
<path d="M49.3872 381.952H370.31" stroke="#1A2E35" stroke-width="1.33333" stroke-miterlimit="10"/>
<path d="M99.1855 260.059L111.921 381.796" stroke="#1A2E35" stroke-width="2.66667" stroke-miterlimit="10"/>
<path d="M109.66 356.818L103.999 350.838" stroke="#1A2E35" stroke-width="2.66667" stroke-miterlimit="10"/>
<mask id="mask2_70_4111" style="mask-type:luminance" maskUnits="userSpaceOnUse" x="0" y="0" width="401" height="401">
<path d="M0 6.10352e-05H401V401H0V6.10352e-05Z" fill="white"/>
</mask>
<g mask="url(#mask2_70_4111)">
<path d="M105.72 352.63C105.72 352.63 105.882 349.984 103.466 347.828C102.013 346.53 94.3656 343.313 93.6398 346.006C92.8507 348.936 100.678 354.689 105.72 352.63Z" fill="#EC5E3C"/>
<path d="M105.72 352.63C105.72 352.63 105.882 349.984 103.466 347.828C102.013 346.53 94.3656 343.313 93.6398 346.006C92.8507 348.936 100.678 354.689 105.72 352.63Z" stroke="#1A2E35" stroke-width="1.33333" stroke-miterlimit="10"/>
<path d="M105.72 352.63L98.439 348.093" stroke="#1A2E35" stroke-width="0.666667" stroke-miterlimit="10"/>
<path d="M111.081 370.426L105.419 364.446" stroke="#1A2E35" stroke-width="2.66667" stroke-miterlimit="10"/>
<path d="M107.139 366.238C107.139 366.238 107.301 363.593 104.887 361.437C103.433 360.139 95.7856 356.921 95.0598 359.615C94.2706 362.544 102.098 368.297 107.139 366.238Z" fill="#EC5E3C"/>
<path d="M107.139 366.238C107.139 366.238 107.301 363.593 104.887 361.437C103.433 360.139 95.7856 356.921 95.0598 359.615C94.2706 362.544 102.098 368.297 107.139 366.238Z" stroke="#1A2E35" stroke-width="1.33333" stroke-miterlimit="10"/>
<path d="M107.139 366.238L99.8589 361.701" stroke="#1A2E35" stroke-width="0.666667" stroke-miterlimit="10"/>
<path d="M106.195 323.61L100.533 317.63" stroke="#1A2E35" stroke-width="2.66667" stroke-miterlimit="10"/>
<path d="M102.254 319.422C102.254 319.422 102.416 316.777 100 314.621C98.5469 313.323 90.8998 310.105 90.174 312.799C89.3848 315.728 97.2124 321.481 102.254 319.422Z" fill="#EC5E3C"/>
<path d="M102.254 319.422C102.254 319.422 102.416 316.777 100 314.621C98.5469 313.323 90.8998 310.105 90.174 312.799C89.3848 315.728 97.2124 321.481 102.254 319.422Z" stroke="#1A2E35" stroke-width="1.33333" stroke-miterlimit="10"/>
<path d="M102.254 319.422L94.9731 314.885" stroke="#1A2E35" stroke-width="0.666667" stroke-miterlimit="10"/>
<path d="M107.615 337.218L101.954 331.239" stroke="#1A2E35" stroke-width="2.66667" stroke-miterlimit="10"/>
<path d="M103.674 333.031C103.674 333.031 103.836 330.385 101.421 328.229C99.9673 326.931 92.3202 323.714 91.5944 326.408C90.8053 329.337 98.6328 335.09 103.674 333.031Z" fill="#EC5E3C"/>
<path d="M103.674 333.031C103.674 333.031 103.836 330.385 101.421 328.229C99.9673 326.931 92.3202 323.714 91.5944 326.408C90.8053 329.337 98.6328 335.09 103.674 333.031Z" stroke="#1A2E35" stroke-width="1.33333" stroke-miterlimit="10"/>
<path d="M103.674 333.031L96.3936 328.494" stroke="#1A2E35" stroke-width="0.666667" stroke-miterlimit="10"/>
<path d="M103.888 301.504L98.2266 295.524" stroke="#1A2E35" stroke-width="2.66667" stroke-miterlimit="10"/>
<path d="M99.9466 297.316C99.9466 297.316 100.109 294.671 97.693 292.515C96.2398 291.217 88.5927 288 87.8669 290.693C87.0777 293.622 94.9052 299.375 99.9466 297.316Z" fill="#EC5E3C"/>
<path d="M99.9466 297.316C99.9466 297.316 100.109 294.671 97.693 292.515C96.2398 291.217 88.5927 288 87.8669 290.693C87.0777 293.622 94.9052 299.375 99.9466 297.316Z" stroke="#1A2E35" stroke-width="1.33333" stroke-miterlimit="10"/>
<path d="M99.9466 297.316L92.666 292.78" stroke="#1A2E35" stroke-width="0.666667" stroke-miterlimit="10"/>
<path d="M101.57 279.301L95.9092 273.322" stroke="#1A2E35" stroke-width="2.66667" stroke-miterlimit="10"/>
<path d="M97.6297 275.113C97.6297 275.113 97.7917 272.468 95.3761 270.312C93.9229 269.014 86.2758 265.797 85.55 268.49C84.7608 271.42 92.5883 277.172 97.6297 275.113Z" fill="#EC5E3C"/>
<path d="M97.6297 275.113C97.6297 275.113 97.7917 272.468 95.3761 270.312C93.9229 269.014 86.2758 265.797 85.55 268.49C84.7608 271.42 92.5883 277.172 97.6297 275.113Z" stroke="#1A2E35" stroke-width="1.33333" stroke-miterlimit="10"/>
<path d="M97.6297 275.113L90.3491 270.577" stroke="#1A2E35" stroke-width="0.666667" stroke-miterlimit="10"/>
<path d="M108.709 348.766L113.013 341.746" stroke="#1A2E35" stroke-width="2.66667" stroke-miterlimit="10"/>
<path d="M111.7 343.854C111.7 343.854 110.996 341.299 112.914 338.691C114.068 337.121 120.887 332.394 122.152 334.88C123.53 337.583 117.059 344.829 111.7 343.854Z" fill="#EC5E3C"/>
<path d="M111.7 343.854C111.7 343.854 110.996 341.299 112.914 338.691C114.068 337.121 120.887 332.394 122.152 334.88C123.53 337.583 117.059 344.829 111.7 343.854Z" stroke="#1A2E35" stroke-width="1.33333" stroke-miterlimit="10"/>
<path d="M111.7 343.854L118.256 337.589" stroke="#1A2E35" stroke-width="0.666667" stroke-miterlimit="10"/>
<path d="M104.972 312.955L109.276 305.935" stroke="#1A2E35" stroke-width="2.66667" stroke-miterlimit="10"/>
<path d="M107.963 308.043C107.963 308.043 107.258 305.489 109.177 302.88C110.33 301.31 117.149 296.583 118.415 299.069C119.792 301.772 113.322 309.018 107.963 308.043Z" fill="#EC5E3C"/>
<path d="M107.963 308.043C107.963 308.043 107.258 305.489 109.177 302.88C110.33 301.31 117.149 296.583 118.415 299.069C119.792 301.772 113.322 309.018 107.963 308.043Z" stroke="#1A2E35" stroke-width="1.33333" stroke-miterlimit="10"/>
<path d="M107.963 308.043L114.519 301.778" stroke="#1A2E35" stroke-width="0.666667" stroke-miterlimit="10"/>
<path d="M103.329 297.217L107.634 290.198" stroke="#1A2E35" stroke-width="2.66667" stroke-miterlimit="10"/>
<path d="M106.321 292.305C106.321 292.305 105.616 289.751 107.534 287.142C108.688 285.572 115.506 280.845 116.773 283.331C118.15 286.035 111.679 293.28 106.321 292.305Z" fill="#EC5E3C"/>
<path d="M106.321 292.305C106.321 292.305 105.616 289.751 107.534 287.142C108.688 285.572 115.506 280.845 116.773 283.331C118.15 286.035 111.679 293.28 106.321 292.305Z" stroke="#1A2E35" stroke-width="1.33333" stroke-miterlimit="10"/>
<path d="M106.321 292.306L112.876 286.04" stroke="#1A2E35" stroke-width="0.666667" stroke-miterlimit="10"/>
<path d="M100.921 274.145L105.226 267.126" stroke="#1A2E35" stroke-width="2.66667" stroke-miterlimit="10"/>
<path d="M103.913 269.234C103.913 269.234 103.209 266.679 105.126 264.071C106.28 262.5 113.099 257.774 114.365 260.259C115.742 262.963 109.271 270.208 103.913 269.234Z" fill="#EC5E3C"/>
<path d="M103.913 269.234C103.913 269.234 103.209 266.679 105.126 264.071C106.28 262.5 113.099 257.774 114.365 260.259C115.742 262.963 109.271 270.208 103.913 269.234Z" stroke="#1A2E35" stroke-width="1.33333" stroke-miterlimit="10"/>
<path d="M103.913 269.234L110.469 262.969" stroke="#1A2E35" stroke-width="0.666667" stroke-miterlimit="10"/>
<path d="M99.0804 259.395C99.0804 259.395 98.3762 256.84 100.294 254.231C101.448 252.661 108.266 247.934 109.532 250.42C110.91 253.123 104.439 260.369 99.0804 259.395Z" fill="#EC5E3C"/>
<path d="M99.0804 259.395C99.0804 259.395 98.3762 256.84 100.294 254.231C101.448 252.661 108.266 247.934 109.532 250.42C110.91 253.123 104.439 260.369 99.0804 259.395Z" stroke="#1A2E35" stroke-width="1.33333" stroke-miterlimit="10"/>
<path d="M99.0801 259.395L105.636 253.129" stroke="#1A2E35" stroke-width="0.666667" stroke-miterlimit="10"/>
<path d="M99.4598 259.665C99.4598 259.665 96.8453 260.098 94.4521 257.917C93.0117 256.605 89.0258 249.328 91.6307 248.329C94.4634 247.244 100.991 254.439 99.4598 259.665Z" fill="#EC5E3C"/>
<path d="M99.4598 259.665C99.4598 259.665 96.8453 260.098 94.4521 257.917C93.0117 256.605 89.0258 249.328 91.6307 248.329C94.4634 247.244 100.991 254.439 99.4598 259.665Z" stroke="#1A2E35" stroke-width="1.33333" stroke-miterlimit="10"/>
<path d="M99.4602 259.665L93.916 252.488" stroke="#1A2E35" stroke-width="0.666667" stroke-miterlimit="10"/>
<path d="M132.122 276.538L121.589 381.796" stroke="#1A2E35" stroke-width="2.66667" stroke-miterlimit="10"/>
<path d="M122.45 373.38L118.142 366.363" stroke="#1A2E35" stroke-width="2.66667" stroke-miterlimit="10"/>
<path d="M119.456 368.47C119.456 368.47 120.159 365.915 118.24 363.308C117.085 361.738 110.264 357.016 108.999 359.501C107.624 362.205 114.098 369.447 119.456 368.47Z" fill="#EC5E3C"/>
<path d="M119.456 368.47C119.456 368.47 120.159 365.915 118.24 363.308C117.085 361.738 110.264 357.016 108.999 359.501C107.624 362.205 114.098 369.447 119.456 368.47Z" stroke="#1A2E35" stroke-width="1.33333" stroke-miterlimit="10"/>
<path d="M119.455 368.47L113.266 362.532" stroke="#1A2E35" stroke-width="0.666667" stroke-miterlimit="10"/>
<path d="M125.896 340.171L121.587 333.153" stroke="#1A2E35" stroke-width="2.66667" stroke-miterlimit="10"/>
<path d="M122.902 335.261C122.902 335.261 123.605 332.706 121.686 330.099C120.531 328.528 113.71 323.806 112.445 326.291C111.069 328.996 117.545 336.238 122.902 335.261Z" fill="#EC5E3C"/>
<path d="M122.902 335.261C122.902 335.261 123.605 332.706 121.686 330.099C120.531 328.528 113.71 323.806 112.445 326.291C111.069 328.996 117.545 336.238 122.902 335.261Z" stroke="#1A2E35" stroke-width="1.33333" stroke-miterlimit="10"/>
<path d="M122.902 335.261L116.712 329.322" stroke="#1A2E35" stroke-width="0.666667" stroke-miterlimit="10"/>
<path d="M124.484 353.78L120.175 346.763" stroke="#1A2E35" stroke-width="2.66667" stroke-miterlimit="10"/>
<path d="M121.49 348.871C121.49 348.871 122.193 346.315 120.274 343.707C119.119 342.138 112.298 337.416 111.032 339.901C109.658 342.606 116.132 349.848 121.49 348.871Z" fill="#EC5E3C"/>
<path d="M121.49 348.871C121.49 348.871 122.193 346.315 120.274 343.707C119.119 342.138 112.298 337.416 111.032 339.901C109.658 342.606 116.132 349.848 121.49 348.871Z" stroke="#1A2E35" stroke-width="1.33333" stroke-miterlimit="10"/>
<path d="M121.489 348.871L115.299 342.932" stroke="#1A2E35" stroke-width="0.666667" stroke-miterlimit="10"/>
<path d="M128.19 318.063L123.881 311.046" stroke="#1A2E35" stroke-width="2.66667" stroke-miterlimit="10"/>
<path d="M125.196 313.154C125.196 313.154 125.899 310.598 123.98 307.991C122.825 306.421 116.004 301.699 114.738 304.185C113.364 306.888 119.838 314.131 125.196 313.154Z" fill="#EC5E3C"/>
<path d="M125.196 313.154C125.196 313.154 125.899 310.598 123.98 307.991C122.825 306.421 116.004 301.699 114.738 304.185C113.364 306.888 119.838 314.131 125.196 313.154Z" stroke="#1A2E35" stroke-width="1.33333" stroke-miterlimit="10"/>
<path d="M125.196 313.154L119.005 307.215" stroke="#1A2E35" stroke-width="0.666667" stroke-miterlimit="10"/>
<path d="M130.494 295.859L126.186 288.842" stroke="#1A2E35" stroke-width="2.66667" stroke-miterlimit="10"/>
<path d="M127.5 290.95C127.5 290.95 128.203 288.395 126.283 285.787C125.129 284.217 118.307 279.495 117.043 281.98C115.667 284.685 122.143 291.927 127.5 290.95Z" fill="#EC5E3C"/>
<path d="M127.5 290.95C127.5 290.95 128.203 288.395 126.283 285.787C125.129 284.217 118.307 279.495 117.043 281.98C115.667 284.685 122.143 291.927 127.5 290.95Z" stroke="#1A2E35" stroke-width="1.33333" stroke-miterlimit="10"/>
<path d="M127.5 290.95L121.309 285.011" stroke="#1A2E35" stroke-width="0.666667" stroke-miterlimit="10"/>
<path d="M123.177 365.305L128.835 359.322" stroke="#1A2E35" stroke-width="2.66667" stroke-miterlimit="10"/>
<path d="M127.116 361.115C127.116 361.115 126.952 358.47 129.366 356.311C130.818 355.013 138.464 351.791 139.191 354.484C139.982 357.413 132.159 363.17 127.116 361.115Z" fill="#EC5E3C"/>
<path d="M127.116 361.115C127.116 361.115 126.952 358.47 129.366 356.311C130.818 355.013 138.464 351.791 139.191 354.484C139.982 357.413 132.159 363.17 127.116 361.115Z" stroke="#1A2E35" stroke-width="1.33333" stroke-miterlimit="10"/>
<path d="M127.116 361.115L134.821 356.333" stroke="#1A2E35" stroke-width="0.666667" stroke-miterlimit="10"/>
<path d="M126.893 329.491L132.55 323.509" stroke="#1A2E35" stroke-width="2.66667" stroke-miterlimit="10"/>
<path d="M130.832 325.301C130.832 325.301 130.668 322.656 133.082 320.498C134.535 319.199 142.18 315.978 142.908 318.67C143.698 321.6 135.874 327.357 130.832 325.301Z" fill="#EC5E3C"/>
<path d="M130.832 325.301C130.832 325.301 130.668 322.656 133.082 320.498C134.535 319.199 142.18 315.978 142.908 318.67C143.698 321.6 135.874 327.357 130.832 325.301Z" stroke="#1A2E35" stroke-width="1.33333" stroke-miterlimit="10"/>
<path d="M130.832 325.301L138.538 320.52" stroke="#1A2E35" stroke-width="0.666667" stroke-miterlimit="10"/>
<path d="M128.526 313.753L134.184 307.771" stroke="#1A2E35" stroke-width="2.66667" stroke-miterlimit="10"/>
<path d="M132.465 309.563C132.465 309.563 132.302 306.918 134.716 304.759C136.168 303.461 143.814 300.239 144.541 302.932C145.332 305.861 137.508 311.619 132.465 309.563Z" fill="#EC5E3C"/>
<path d="M132.465 309.563C132.465 309.563 132.302 306.918 134.716 304.759C136.168 303.461 143.814 300.239 144.541 302.932C145.332 305.861 137.508 311.619 132.465 309.563Z" stroke="#1A2E35" stroke-width="1.33333" stroke-miterlimit="10"/>
<path d="M132.465 309.563L140.17 304.781" stroke="#1A2E35" stroke-width="0.666667" stroke-miterlimit="10"/>
<path d="M130.92 290.68L136.579 284.697" stroke="#1A2E35" stroke-width="2.66667" stroke-miterlimit="10"/>
<path d="M134.859 286.49C134.859 286.49 134.696 283.845 137.11 281.687C138.562 280.389 146.208 277.166 146.935 279.859C147.726 282.788 139.901 288.546 134.859 286.49Z" fill="#EC5E3C"/>
<path d="M134.859 286.49C134.859 286.49 134.696 283.845 137.11 281.687C138.562 280.389 146.208 277.166 146.935 279.859C147.726 282.788 139.901 288.546 134.859 286.49Z" stroke="#1A2E35" stroke-width="1.33333" stroke-miterlimit="10"/>
<path d="M134.859 286.49L142.565 281.708" stroke="#1A2E35" stroke-width="0.666667" stroke-miterlimit="10"/>
<path d="M132.156 275.866C132.156 275.866 131.993 273.221 134.407 271.063C135.859 269.764 143.504 266.542 144.232 269.235C145.023 272.165 137.199 277.922 132.156 275.866Z" fill="#EC5E3C"/>
<path d="M132.156 275.866C132.156 275.866 131.993 273.221 134.407 271.063C135.859 269.764 143.504 266.542 144.232 269.235C145.023 272.165 137.199 277.922 132.156 275.866Z" stroke="#1A2E35" stroke-width="1.33333" stroke-miterlimit="10"/>
<path d="M132.156 275.866L139.862 271.085" stroke="#1A2E35" stroke-width="0.666667" stroke-miterlimit="10"/>
<path d="M132.472 276.209C132.472 276.209 129.825 276.094 127.931 273.467C126.792 271.886 124.39 263.946 127.144 263.505C130.14 263.025 135.046 271.41 132.472 276.209Z" fill="#EC5E3C"/>
<path d="M132.472 276.209C132.472 276.209 129.825 276.094 127.931 273.467C126.792 271.886 124.39 263.946 127.144 263.505C130.14 263.025 135.046 271.41 132.472 276.209Z" stroke="#1A2E35" stroke-width="1.33333" stroke-miterlimit="10"/>
<path d="M132.472 276.209L128.524 268.044" stroke="#1A2E35" stroke-width="0.666667" stroke-miterlimit="10"/>
<path d="M117.893 227.81L117.114 381.975" stroke="#1A2E35" stroke-width="2.66667" stroke-miterlimit="10"/>
<path d="M118.013 356.382L113.003 349.847" stroke="#1A2E35" stroke-width="2.66667" stroke-miterlimit="10"/>
<path d="M114.528 351.807C114.528 351.807 114.963 349.193 112.785 346.797C111.474 345.356 104.202 341.363 103.201 343.966C102.112 346.797 109.299 353.332 114.528 351.807Z" fill="#EC5E3C"/>
<path d="M114.528 351.807C114.528 351.807 114.963 349.193 112.785 346.797C111.474 345.356 104.202 341.363 103.201 343.966C102.112 346.797 109.299 353.332 114.528 351.807Z" stroke="#1A2E35" stroke-width="1.33333" stroke-miterlimit="10"/>
<path d="M114.528 351.807L107.757 346.539" stroke="#1A2E35" stroke-width="0.666667" stroke-miterlimit="10"/>
<path d="M118.013 327.944L113.003 321.41" stroke="#1A2E35" stroke-width="2.66667" stroke-miterlimit="10"/>
<path d="M114.528 323.37C114.528 323.37 114.963 320.755 112.785 318.36C111.474 316.918 104.202 312.924 103.201 315.528C102.112 318.36 109.299 324.893 114.528 323.37Z" fill="#EC5E3C"/>
<path d="M114.528 323.37C114.528 323.37 114.963 320.755 112.785 318.36C111.474 316.918 104.202 312.924 103.201 315.528C102.112 318.36 109.299 324.893 114.528 323.37Z" stroke="#1A2E35" stroke-width="1.33333" stroke-miterlimit="10"/>
<path d="M114.528 323.37L107.757 318.101" stroke="#1A2E35" stroke-width="0.666667" stroke-miterlimit="10"/>
<path d="M118.013 294.556L113.003 288.022" stroke="#1A2E35" stroke-width="2.66667" stroke-miterlimit="10"/>
<path d="M114.528 289.982C114.528 289.982 114.963 287.367 112.785 284.972C111.474 283.53 104.202 279.536 103.201 282.14C102.112 284.972 109.299 291.506 114.528 289.982Z" fill="#EC5E3C"/>
<path d="M114.528 289.982C114.528 289.982 114.963 287.367 112.785 284.972C111.474 283.53 104.202 279.536 103.201 282.14C102.112 284.972 109.299 291.506 114.528 289.982Z" stroke="#1A2E35" stroke-width="1.33333" stroke-miterlimit="10"/>
<path d="M114.528 289.982L107.757 284.713" stroke="#1A2E35" stroke-width="0.666667" stroke-miterlimit="10"/>
<path d="M118.013 272.33L113.003 265.795" stroke="#1A2E35" stroke-width="2.66667" stroke-miterlimit="10"/>
<path d="M114.528 267.755C114.528 267.755 114.963 265.142 112.785 262.746C111.474 261.304 104.202 257.311 103.201 259.914C102.112 262.746 109.299 269.28 114.528 267.755Z" fill="#EC5E3C"/>
<path d="M114.528 267.755C114.528 267.755 114.963 265.142 112.785 262.746C111.474 261.304 104.202 257.311 103.201 259.914C102.112 262.746 109.299 269.28 114.528 267.755Z" stroke="#1A2E35" stroke-width="1.33333" stroke-miterlimit="10"/>
<path d="M114.528 267.755L107.757 262.488" stroke="#1A2E35" stroke-width="0.666667" stroke-miterlimit="10"/>
<path d="M118.013 250.006L113.003 243.472" stroke="#1A2E35" stroke-width="2.66667" stroke-miterlimit="10"/>
<path d="M114.528 245.432C114.528 245.432 114.963 242.818 112.785 240.422C111.474 238.98 104.202 234.987 103.201 237.591C102.112 240.422 109.299 246.957 114.528 245.432Z" fill="#EC5E3C"/>
<path d="M114.528 245.432C114.528 245.432 114.963 242.818 112.785 240.422C111.474 238.98 104.202 234.987 103.201 237.591C102.112 240.422 109.299 246.957 114.528 245.432Z" stroke="#1A2E35" stroke-width="1.33333" stroke-miterlimit="10"/>
<path d="M114.528 245.432L107.757 240.164" stroke="#1A2E35" stroke-width="0.666667" stroke-miterlimit="10"/>
<path d="M117.902 365.065L122.912 358.531" stroke="#1A2E35" stroke-width="2.66667" stroke-miterlimit="10"/>
<path d="M121.388 360.491C121.388 360.491 120.952 357.877 123.13 355.481C124.441 354.039 131.713 350.046 132.715 352.65C133.803 355.481 126.616 362.016 121.388 360.491Z" fill="#EC5E3C"/>
<path d="M121.388 360.491C121.388 360.491 120.952 357.877 123.13 355.481C124.441 354.039 131.713 350.046 132.715 352.65C133.803 355.481 126.616 362.016 121.388 360.491Z" stroke="#1A2E35" stroke-width="1.33333" stroke-miterlimit="10"/>
<path d="M121.387 360.491L128.558 354.939" stroke="#1A2E35" stroke-width="0.666667" stroke-miterlimit="10"/>
<path d="M117.902 319.837L122.912 313.302" stroke="#1A2E35" stroke-width="2.66667" stroke-miterlimit="10"/>
<path d="M121.388 315.262C121.388 315.262 120.952 312.648 123.13 310.253C124.441 308.811 131.713 304.817 132.715 307.421C133.803 310.253 126.616 316.787 121.388 315.262Z" fill="#EC5E3C"/>
<path d="M121.388 315.262C121.388 315.262 120.952 312.648 123.13 310.253C124.441 308.811 131.713 304.817 132.715 307.421C133.803 310.253 126.616 316.787 121.388 315.262Z" stroke="#1A2E35" stroke-width="1.33333" stroke-miterlimit="10"/>
<path d="M121.387 315.262L128.558 309.71" stroke="#1A2E35" stroke-width="0.666667" stroke-miterlimit="10"/>
<path d="M117.902 297.513L122.912 290.979" stroke="#1A2E35" stroke-width="2.66667" stroke-miterlimit="10"/>
<path d="M121.388 292.939C121.388 292.939 120.952 290.325 123.13 287.929C124.441 286.488 131.713 282.494 132.715 285.098C133.803 287.929 126.616 294.464 121.388 292.939Z" fill="#EC5E3C"/>
<path d="M121.388 292.939C121.388 292.939 120.952 290.325 123.13 287.929C124.441 286.488 131.713 282.494 132.715 285.098C133.803 287.929 126.616 294.464 121.388 292.939Z" stroke="#1A2E35" stroke-width="1.33333" stroke-miterlimit="10"/>
<path d="M121.387 292.939L128.558 287.388" stroke="#1A2E35" stroke-width="0.666667" stroke-miterlimit="10"/>
<path d="M117.902 268.008L122.912 261.473" stroke="#1A2E35" stroke-width="2.66667" stroke-miterlimit="10"/>
<path d="M121.388 263.433C121.388 263.433 120.952 260.82 123.13 258.423C124.441 256.982 131.713 252.989 132.715 255.592C133.803 258.423 126.616 264.958 121.388 263.433Z" fill="#EC5E3C"/>
<path d="M121.388 263.433C121.388 263.433 120.952 260.82 123.13 258.423C124.441 256.982 131.713 252.989 132.715 255.592C133.803 258.423 126.616 264.958 121.388 263.433Z" stroke="#1A2E35" stroke-width="1.33333" stroke-miterlimit="10"/>
<path d="M121.387 263.433L128.558 257.882" stroke="#1A2E35" stroke-width="0.666667" stroke-miterlimit="10"/>
<path d="M117.902 244.811L122.912 238.277" stroke="#1A2E35" stroke-width="2.66667" stroke-miterlimit="10"/>
<path d="M121.388 240.237C121.388 240.237 120.952 237.623 123.13 235.227C124.441 233.785 131.713 229.792 132.715 232.395C133.803 235.227 126.616 241.761 121.388 240.237Z" fill="#EC5E3C"/>
<path d="M121.388 240.237C121.388 240.237 120.952 237.623 123.13 235.227C124.441 233.785 131.713 229.792 132.715 232.395C133.803 235.227 126.616 241.761 121.388 240.237Z" stroke="#1A2E35" stroke-width="1.33333" stroke-miterlimit="10"/>
<path d="M121.387 240.237L128.558 234.685" stroke="#1A2E35" stroke-width="0.666667" stroke-miterlimit="10"/>
<path d="M117.602 229.948C117.602 229.948 117.166 227.335 119.345 224.939C120.655 223.497 127.928 219.504 128.929 222.107C130.018 224.939 122.83 231.473 117.602 229.948Z" fill="#EC5E3C"/>
<path d="M117.602 229.948C117.602 229.948 117.166 227.335 119.345 224.939C120.655 223.497 127.928 219.504 128.929 222.107C130.018 224.939 122.83 231.473 117.602 229.948Z" stroke="#1A2E35" stroke-width="1.33333" stroke-miterlimit="10"/>
<path d="M117.602 229.948L124.773 224.397" stroke="#1A2E35" stroke-width="0.666667" stroke-miterlimit="10"/>
<path d="M117.952 230.257C117.952 230.257 115.307 230.416 113.152 227.999C111.856 226.544 108.647 218.893 111.341 218.171C114.272 217.384 120.017 225.218 117.952 230.257Z" fill="#EC5E3C"/>
<path d="M117.952 230.257C117.952 230.257 115.307 230.416 113.152 227.999C111.856 226.544 108.647 218.893 111.341 218.171C114.272 217.384 120.017 225.218 117.952 230.257Z" stroke="#1A2E35" stroke-width="1.33333" stroke-miterlimit="10"/>
<path d="M117.952 230.257L113.183 222.544" stroke="#1A2E35" stroke-width="0.666667" stroke-miterlimit="10"/>
</g>
<path d="M321.633 381.952L316.996 328.518H207.243L201.184 381.952H321.633Z" fill="#1A2E35"/>
<path d="M321.633 381.952L316.996 328.518H207.243L201.184 381.952H321.633Z" stroke="#1A2E35" stroke-width="1.33333" stroke-miterlimit="10"/>
<mask id="mask3_70_4111" style="mask-type:luminance" maskUnits="userSpaceOnUse" x="0" y="0" width="401" height="401">
<path d="M0 6.10352e-05H401V401H0V6.10352e-05Z" fill="white"/>
</mask>
<g mask="url(#mask3_70_4111)">
<path d="M254.407 166.553C254.407 166.553 222.307 175.37 208.292 185.994C194.277 196.618 184.556 207.469 186.817 228.04C189.078 248.611 203.771 304.897 203.771 304.897C203.771 304.897 201.737 327.728 201.737 329.085C201.737 330.441 201.511 334.284 206.484 334.51C211.457 334.737 271.135 337.223 284.472 337.448C297.808 337.675 315.441 336.318 317.476 334.737C319.51 333.154 320.641 330.667 320.866 327.955C321.092 325.242 323.353 292.013 323.353 292.013L323.579 277.093C323.579 277.093 338.272 228.266 339.176 212.441C340.08 196.618 334.203 191.419 327.648 186.446C321.092 181.473 300.696 173.053 289.671 169.718C278.646 166.382 254.407 166.553 254.407 166.553Z" fill="#EC5E3C"/>
<path d="M254.407 166.553C254.407 166.553 222.307 175.37 208.292 185.994C194.277 196.618 184.556 207.469 186.817 228.04C189.078 248.611 203.771 304.897 203.771 304.897C203.771 304.897 201.737 327.728 201.737 329.085C201.737 330.441 201.511 334.284 206.484 334.51C211.457 334.737 271.135 337.223 284.472 337.448C297.808 337.675 315.441 336.318 317.476 334.737C319.51 333.154 320.641 330.667 320.866 327.955C321.092 325.242 323.353 292.013 323.353 292.013L323.579 277.093C323.579 277.093 338.272 228.266 339.176 212.441C340.08 196.618 334.203 191.419 327.648 186.446C321.092 181.473 300.696 173.053 289.671 169.718C278.646 166.382 254.407 166.553 254.407 166.553Z" stroke="#1A2E35" stroke-width="1.33333" stroke-miterlimit="10"/>
<path d="M262.324 242.417C260.692 264.435 257.79 305.011 258.048 311.958C258.404 321.579 254.484 324.43 254.484 327.994" stroke="#1A2E35" stroke-width="1.33333" stroke-miterlimit="10"/>
<path d="M263.393 228.216C263.393 228.216 263.104 231.966 262.662 237.89" stroke="#1A2E35" stroke-width="1.33333" stroke-miterlimit="10"/>
<path d="M277.719 256.499L279.772 280.719L291.266 279.898L277.719 256.499Z" fill="#1A2E35"/>
<path d="M277.719 256.499L279.772 280.719L291.266 279.898L277.719 256.499Z" stroke="#1A2E35" stroke-width="1.33333" stroke-miterlimit="10"/>
<path d="M266.828 298.731C266.828 298.731 294.917 294.321 297.007 294.784C299.096 295.249 313.489 302.213 315.578 302.678C317.669 303.142 319.525 304.071 319.525 304.071L322.675 306.705L321.615 298.731C321.615 298.731 317.436 293.624 308.15 289.91C298.864 286.195 294.221 288.285 292.132 288.981C290.043 289.677 266.828 298.731 266.828 298.731Z" fill="#1A2E35"/>
<path d="M266.828 298.731C266.828 298.731 294.917 294.321 297.007 294.784C299.096 295.249 313.489 302.213 315.578 302.678C317.669 303.142 319.525 304.071 319.525 304.071L322.675 306.705L321.615 298.731C321.615 298.731 317.436 293.624 308.15 289.91C298.864 286.195 294.221 288.285 292.132 288.981C290.043 289.677 266.828 298.731 266.828 298.731Z" stroke="#1A2E35" stroke-width="1.33333" stroke-miterlimit="10"/>
<path d="M223.664 277.544L296.679 277.319C296.679 277.319 320.188 275.058 321.092 274.832C321.996 274.606 331.265 277.093 332.168 277.771C333.073 278.449 333.073 280.484 332.621 282.518L332.168 284.552C332.168 284.552 332.846 288.169 332.846 289.752C332.846 291.334 331.038 291.786 330.813 292.465C330.586 293.143 332.168 295.629 330.36 297.211L328.552 298.793C328.552 298.793 328.326 303.089 327.422 304.219C326.518 305.349 323.805 307.384 322.675 306.705C321.544 306.027 321.996 304.219 321.996 303.089C321.996 301.958 321.544 300.828 320.188 300.828C318.832 300.828 318.605 301.958 311.598 300.15C304.59 298.342 296.905 292.238 296.226 292.013C295.548 291.786 234.289 308.288 216.204 310.548C198.12 312.809 196.538 310.322 195.859 307.384C195.181 304.445 194.051 297.437 194.051 297.437L190.886 283.648L223.664 277.544Z" fill="#F0F0F0"/>
<path d="M223.664 277.544L296.679 277.319C296.679 277.319 320.188 275.058 321.092 274.832C321.996 274.606 331.265 277.093 332.168 277.771C333.073 278.449 333.073 280.484 332.621 282.518L332.168 284.552C332.168 284.552 332.846 288.169 332.846 289.752C332.846 291.334 331.038 291.786 330.813 292.465C330.586 293.143 332.168 295.629 330.36 297.211L328.552 298.793C328.552 298.793 328.326 303.089 327.422 304.219C326.518 305.349 323.805 307.384 322.675 306.705C321.544 306.027 321.996 304.219 321.996 303.089C321.996 301.958 321.544 300.828 320.188 300.828C318.832 300.828 318.605 301.958 311.598 300.15C304.59 298.342 296.905 292.238 296.226 292.013C295.548 291.786 234.289 308.288 216.204 310.548C198.12 312.809 196.538 310.322 195.859 307.384C195.181 304.445 194.051 297.437 194.051 297.437L190.886 283.648L223.664 277.544Z" stroke="#1A2E35" stroke-width="1.33333" stroke-miterlimit="10"/>
<path d="M271.12 193.046C271.12 193.046 274.891 189.077 277.273 190.863C279.654 192.649 281.837 202.176 284.814 201.382C287.791 200.588 293.746 182.13 293.746 174.786C293.746 167.443 288.585 163.077 287.395 162.68C286.204 162.283 255.837 161.886 252.265 163.275C248.692 164.664 247.303 177.168 245.914 184.71C244.524 192.252 247.7 194.038 249.684 193.046C251.67 192.054 259.41 188.878 261.196 188.878C262.983 188.878 271.12 193.046 271.12 193.046Z" fill="#EC5E3C"/>
<path d="M271.12 193.046C271.12 193.046 274.891 189.077 277.273 190.863C279.654 192.649 281.837 202.176 284.814 201.382C287.791 200.588 293.746 182.13 293.746 174.786C293.746 167.443 288.585 163.077 287.395 162.68C286.204 162.283 255.837 161.886 252.265 163.275C248.692 164.664 247.303 177.168 245.914 184.71C244.524 192.252 247.7 194.038 249.684 193.046C251.67 192.054 259.41 188.878 261.196 188.878C262.983 188.878 271.12 193.046 271.12 193.046Z" stroke="#1A2E35" stroke-width="1.33333" stroke-miterlimit="10"/>
<path d="M291.446 151.212C291.446 151.212 288.602 165.276 287.495 168.753C286.389 172.229 278.33 182.817 276.276 185.029C274.221 187.241 268.216 198.145 266.636 198.461C265.057 198.777 260.631 183.923 260.631 183.923C260.631 183.923 254.943 174.125 253.836 171.597C252.731 169.069 250.992 161.641 250.992 161.641C250.992 161.641 260.316 169.701 270.271 167.963C280.226 166.224 285.283 156.269 285.283 156.269L291.446 151.212Z" fill="#F0F0F0"/>
<path d="M291.446 151.212C291.446 151.212 288.602 165.276 287.495 168.753C286.389 172.229 278.33 182.817 276.276 185.029C274.221 187.241 268.216 198.145 266.636 198.461C265.057 198.777 260.631 183.923 260.631 183.923C260.631 183.923 254.943 174.125 253.836 171.597C252.731 169.069 250.992 161.641 250.992 161.641C250.992 161.641 260.316 169.701 270.271 167.963C280.226 166.224 285.283 156.269 285.283 156.269L291.446 151.212Z" stroke="#1A2E35" stroke-width="1.33333" stroke-miterlimit="10"/>
<path d="M252.86 123.184C252.86 123.184 250.081 120.207 248.494 124.772C246.906 129.337 250.081 137.474 250.081 137.474L252.86 123.184Z" fill="#F0F0F0"/>
<path d="M252.86 123.184C252.86 123.184 250.081 120.207 248.494 124.772C246.906 129.337 250.081 137.474 250.081 137.474L252.86 123.184Z" stroke="#1A2E35" stroke-width="1.33333" stroke-miterlimit="10"/>
<path d="M253.362 113.919C253.362 113.919 248.78 146.472 248.78 148.368C248.78 150.264 247.515 156.585 249.412 160.694C251.308 164.802 256.997 169.859 261.58 170.491C266.162 171.124 275.17 170.175 280.226 166.224C285.284 162.274 291.13 153.74 291.13 153.74C291.13 153.74 297.452 152.792 301.559 151.054C305.668 149.316 308.829 145.365 308.671 141.256C308.513 137.148 305.984 133.988 305.984 133.988L303.613 129.563L309.935 117.711C309.935 117.711 306.3 110.916 294.607 104.437C282.913 97.9587 272.484 95.904 267.584 95.904C262.686 95.904 256.522 97.9587 254.784 101.909C253.046 105.859 253.362 113.919 253.362 113.919Z" fill="#F0F0F0"/>
<path d="M253.362 113.919C253.362 113.919 248.78 146.472 248.78 148.368C248.78 150.264 247.515 156.585 249.412 160.694C251.308 164.802 256.997 169.859 261.58 170.491C266.162 171.124 275.17 170.175 280.226 166.224C285.284 162.274 291.13 153.74 291.13 153.74C291.13 153.74 297.452 152.792 301.559 151.054C305.668 149.316 308.829 145.365 308.671 141.256C308.513 137.148 305.984 133.988 305.984 133.988L303.613 129.563L309.935 117.711C309.935 117.711 306.3 110.916 294.607 104.437C282.913 97.9587 272.484 95.904 267.584 95.904C262.686 95.904 256.522 97.9587 254.784 101.909C253.046 105.859 253.362 113.919 253.362 113.919Z" stroke="#1A2E35" stroke-width="1.33333" stroke-miterlimit="10"/>
<path d="M268.375 97.9584C268.375 97.9584 277.381 112.812 284.177 112.18C290.972 111.548 293.026 108.388 293.026 108.388L297.609 114.551C297.609 114.551 292.711 116.605 293.658 119.134C294.607 121.662 298.872 127.35 298.872 127.35L295.397 142.205C295.397 142.205 298.083 142.679 298.557 141.731C299.031 140.783 301.402 134.935 301.402 134.935C301.402 134.935 302.349 134.303 303.456 133.987C304.562 133.671 305.985 133.987 305.985 133.987C305.985 133.987 307.723 128.141 308.355 127.983C308.987 127.825 315.308 126.086 317.679 119.924C320.049 113.761 316.413 103.963 308.197 96.2205C299.979 88.4772 282.597 86.4224 281.649 85.0005C280.7 83.5777 286.073 85.6325 284.967 82.4718C283.861 79.3119 276.908 75.2025 268.058 79.6279C259.209 84.0525 260.473 88.9511 261.422 90.5311L262.37 92.111C262.37 92.111 254.943 89.5831 249.728 92.7438C244.513 95.9037 241.985 102.225 244.355 102.857C246.726 103.489 249.728 102.067 249.728 102.067C249.728 102.067 246.568 107.282 247.516 108.388C248.464 109.494 253.362 113.918 253.362 113.918C253.362 113.918 255.259 102.857 259.209 101.277C263.159 99.6963 268.375 97.9584 268.375 97.9584Z" fill="#1A2E35"/>
<path d="M268.375 97.9584C268.375 97.9584 277.381 112.812 284.177 112.18C290.972 111.548 293.026 108.388 293.026 108.388L297.609 114.551C297.609 114.551 292.711 116.605 293.658 119.134C294.607 121.662 298.872 127.35 298.872 127.35L295.397 142.205C295.397 142.205 298.083 142.679 298.557 141.731C299.031 140.783 301.402 134.935 301.402 134.935C301.402 134.935 302.349 134.303 303.456 133.987C304.562 133.671 305.985 133.987 305.985 133.987C305.985 133.987 307.723 128.141 308.355 127.983C308.987 127.825 315.308 126.086 317.679 119.924C320.049 113.761 316.413 103.963 308.197 96.2205C299.979 88.4772 282.597 86.4224 281.649 85.0005C280.7 83.5777 286.073 85.6325 284.967 82.4718C283.861 79.3119 276.908 75.2025 268.058 79.6279C259.209 84.0525 260.473 88.9511 261.422 90.5311L262.37 92.111C262.37 92.111 254.943 89.5831 249.728 92.7438C244.513 95.9037 241.985 102.225 244.355 102.857C246.726 103.489 249.728 102.067 249.728 102.067C249.728 102.067 246.568 107.282 247.516 108.388C248.464 109.494 253.362 113.918 253.362 113.918C253.362 113.918 255.259 102.857 259.209 101.277C263.159 99.6963 268.375 97.9584 268.375 97.9584Z" stroke="#1A2E35" stroke-width="1.33333" stroke-miterlimit="10"/>
<path d="M265.53 119.291L266.952 123.874L258.894 139.045L267.426 142.363" stroke="#1A2E35" stroke-width="1.33333" stroke-miterlimit="10"/>
<path d="M263.95 117.553C263.95 117.553 260.157 114.551 256.997 115.341C253.837 116.131 255.732 116.605 257.945 117.395C260.157 118.185 264.582 120.24 263.95 117.553Z" fill="#1A2E35"/>
<path d="M263.95 117.553C263.95 117.553 260.157 114.551 256.997 115.341C253.837 116.131 255.732 116.605 257.945 117.395C260.157 118.185 264.582 120.24 263.95 117.553Z" stroke="#1A2E35" stroke-width="1.33333" stroke-miterlimit="10"/>
<path d="M275.644 116.921C275.644 116.921 272.009 117.87 273.748 118.659C275.486 119.45 280.7 117.87 282.754 118.659C284.809 119.45 287.495 122.135 287.338 120.871C287.18 119.608 285.916 117.079 283.071 116.131C280.226 115.183 275.644 116.921 275.644 116.921Z" fill="#1A2E35"/>
<path d="M275.644 116.921C275.644 116.921 272.009 117.87 273.748 118.659C275.486 119.45 280.7 117.87 282.754 118.659C284.809 119.45 287.495 122.135 287.338 120.871C287.18 119.608 285.916 117.079 283.071 116.131C280.226 115.183 275.644 116.921 275.644 116.921Z" stroke="#1A2E35" stroke-width="1.33333" stroke-miterlimit="10"/>
<path d="M261.86 124.566C261.583 125.711 260.809 126.507 260.13 126.342C259.452 126.179 259.126 125.117 259.403 123.972C259.679 122.827 260.454 122.031 261.133 122.195C261.811 122.36 262.138 123.421 261.86 124.566Z" fill="#1A2E35"/>
<path d="M279.085 129.07C278.808 130.215 278.033 131.01 277.355 130.846C276.676 130.682 276.35 129.621 276.628 128.476C276.904 127.33 277.678 126.535 278.358 126.699C279.035 126.864 279.362 127.925 279.085 129.07Z" fill="#1A2E35"/>
<path d="M253.995 144.259L260.473 148.526" stroke="#1A2E35" stroke-width="1.33333" stroke-miterlimit="10"/>
<path d="M320.64 182.603C320.64 182.603 343.019 191.192 347.314 204.077C351.609 216.963 346.184 233.239 343.923 240.021C341.663 246.802 327.647 273.25 325.387 279.579C323.127 285.909 319.736 293.595 319.736 293.595C319.736 293.595 316.571 274.606 307.982 262.852C299.391 251.096 297.357 240.472 297.357 240.472C297.357 240.472 312.954 212.895 317.023 204.304" fill="#EC5E3C"/>
<path d="M320.64 182.603C320.64 182.603 343.019 191.192 347.314 204.077C351.609 216.963 346.184 233.239 343.923 240.021C341.663 246.802 327.647 273.25 325.387 279.579C323.127 285.909 319.736 293.595 319.736 293.595C319.736 293.595 316.571 274.606 307.982 262.852C299.391 251.096 297.357 240.472 297.357 240.472C297.357 240.472 312.954 212.895 317.023 204.304" stroke="#1A2E35" stroke-width="1.33333" stroke-miterlimit="10"/>
<path d="M299.73 235.696C299.73 235.696 304.308 233.407 305.835 234.169C307.361 234.932 326.948 245.362 329.492 257.318C332.036 269.274 328.22 279.45 325.931 283.774C323.641 288.099 319.317 296.494 316.01 297.511C312.703 298.528 309.905 271.309 303.036 257.064C296.168 242.818 299.73 235.696 299.73 235.696Z" fill="#EC5E3C"/>
<path d="M299.73 235.696C299.73 235.696 304.308 233.407 305.835 234.169C307.361 234.932 326.948 245.362 329.492 257.318C332.036 269.274 328.22 279.45 325.931 283.774C323.641 288.099 319.317 296.494 316.01 297.511C312.703 298.528 309.905 271.309 303.036 257.064C296.168 242.818 299.73 235.696 299.73 235.696Z" stroke="#1A2E35" stroke-width="1.33333" stroke-miterlimit="10"/>
<path d="M307.303 222.615C307.303 222.615 311.372 208.826 312.954 203.399" stroke="#1A2E35" stroke-width="1.33333" stroke-miterlimit="10"/>
<path d="M266.478 173.651C266.478 173.651 260.157 164.802 255.259 158.956C250.359 153.108 245.304 149.631 243.565 150.106C241.827 150.579 241.195 152.318 242.301 154.372C243.407 156.427 248.621 161.009 249.57 162.273C250.518 163.538 251.94 168.121 251.94 168.121C251.94 168.121 247.357 168.437 246.567 169.385C245.777 170.333 244.672 172.861 244.672 172.861C244.672 172.861 243.091 173.651 242.301 174.915C241.511 176.18 241.511 176.496 241.353 177.128C241.195 177.76 238.982 178.866 239.14 181.711C239.298 184.555 241.985 188.664 242.933 190.56C243.881 192.456 250.834 200.831 252.098 202.254C253.362 203.676 260.631 216.318 262.527 220.584C264.423 224.851 282.755 274.312 288.127 281.739C293.5 289.167 303.456 296.278 308.829 298.806C314.202 301.335 317.994 297.067 320.522 291.695C323.051 286.322 325.263 275.576 320.364 263.251C315.466 250.925 305.826 240.338 298.399 234.016C290.972 227.695 277.066 211.893 275.485 209.048C273.905 206.204 271.851 199.883 271.851 199.883C271.851 199.883 275.959 187.873 276.276 185.029C276.592 182.185 275.012 177.128 275.485 174.915C275.959 172.703 277.857 168.279 278.646 166.383C279.436 164.486 282.123 161.325 280.7 159.904C279.279 158.481 273.431 160.219 271.377 163.538C269.323 166.856 266.478 173.651 266.478 173.651Z" fill="#F0F0F0"/>
<path d="M266.478 173.651C266.478 173.651 260.157 164.802 255.259 158.956C250.359 153.108 245.304 149.631 243.565 150.106C241.827 150.579 241.195 152.318 242.301 154.372C243.407 156.427 248.621 161.009 249.57 162.273C250.518 163.538 251.94 168.121 251.94 168.121C251.94 168.121 247.357 168.437 246.567 169.385C245.777 170.333 244.672 172.861 244.672 172.861C244.672 172.861 243.091 173.651 242.301 174.915C241.511 176.18 241.511 176.496 241.353 177.128C241.195 177.76 238.982 178.866 239.14 181.711C239.298 184.555 241.985 188.664 242.933 190.56C243.881 192.456 250.834 200.831 252.098 202.254C253.362 203.676 260.631 216.318 262.527 220.584C264.423 224.851 282.755 274.312 288.127 281.739C293.5 289.167 303.456 296.278 308.829 298.806C314.202 301.335 317.994 297.067 320.522 291.695C323.051 286.322 325.263 275.576 320.364 263.251C315.466 250.925 305.826 240.338 298.399 234.016C290.972 227.695 277.066 211.893 275.485 209.048C273.905 206.204 271.851 199.883 271.851 199.883C271.851 199.883 275.959 187.873 276.276 185.029C276.592 182.185 275.012 177.128 275.485 174.915C275.959 172.703 277.857 168.279 278.646 166.383C279.436 164.486 282.123 161.325 280.7 159.904C279.279 158.481 273.431 160.219 271.377 163.538C269.323 166.856 266.478 173.651 266.478 173.651Z" stroke="#1A2E35" stroke-width="1.33333" stroke-miterlimit="10"/>
<path d="M217.635 207.874C218.113 205.363 218.464 203.626 218.464 203.626L217.635 207.874Z" fill="#EC5E3C"/>
<path d="M217.635 207.874C218.113 205.363 218.464 203.626 218.464 203.626" stroke="#1A2E35" stroke-width="1.33333" stroke-miterlimit="10"/>
<path d="M216.204 181.925C216.204 181.925 204.223 183.507 191.791 196.844C179.358 210.181 184.783 241.829 185.913 248.384C187.043 254.94 188.852 275.059 188.852 275.059L220.725 264.434C220.725 264.434 215.526 228.944 215.073 225.779C214.846 224.18 215.714 218.539 216.628 213.35" fill="#EC5E3C"/>
<path d="M216.204 181.925C216.204 181.925 204.223 183.507 191.791 196.844C179.358 210.181 184.783 241.829 185.913 248.384C187.043 254.94 188.852 275.059 188.852 275.059L220.725 264.434C220.725 264.434 215.526 228.944 215.073 225.779C214.846 224.18 215.714 218.539 216.628 213.35" stroke="#1A2E35" stroke-width="1.33333" stroke-miterlimit="10"/>
<path d="M185.687 268.05C185.687 268.05 188.852 285.005 190.434 285.909C192.016 286.813 216.656 280.031 219.369 279.579C222.081 279.128 223.664 279.805 223.664 277.545C223.664 275.285 221.403 264.66 220.047 262.852C218.69 261.043 189.304 264.886 186.817 265.563C184.331 266.242 185.687 268.05 185.687 268.05Z" fill="#EC5E3C"/>
<path d="M185.687 268.05C185.687 268.05 188.852 285.005 190.434 285.909C192.016 286.813 216.656 280.031 219.369 279.579C222.081 279.128 223.664 279.805 223.664 277.545C223.664 275.285 221.403 264.66 220.047 262.852C218.69 261.043 189.304 264.886 186.817 265.563C184.331 266.242 185.687 268.05 185.687 268.05Z" stroke="#1A2E35" stroke-width="1.33333" stroke-miterlimit="10"/>
<path d="M203.739 254.947C212.882 258.586 220.047 262.851 220.047 262.851C220.047 262.851 212.361 248.384 209.197 245.445" stroke="#1A2E35" stroke-width="1.33333" stroke-miterlimit="10"/>
<path d="M199.476 253.358C200.383 253.673 201.281 253.999 202.162 254.334" stroke="#1A2E35" stroke-width="1.33333" stroke-miterlimit="10"/>
<path d="M273.614 327.359C279.46 325.275 284.842 322.98 288.089 320.721" stroke="#1A2E35" stroke-width="1.33333" stroke-miterlimit="10"/>
<path d="M246.043 335.415C246.043 335.415 258.533 332.451 270.384 328.476" stroke="#1A2E35" stroke-width="1.33333" stroke-miterlimit="10"/>
<path d="M298.571 319.781C292.429 322.842 282.699 327.324 274.752 329.311" stroke="#1A2E35" stroke-width="1.33333" stroke-miterlimit="10"/>
<path d="M304.59 316.652C304.59 316.652 303.331 317.347 301.242 318.426" stroke="#1A2E35" stroke-width="1.33333" stroke-miterlimit="10"/>
</g>
<mask id="mask4_70_4111" style="mask-type:luminance" maskUnits="userSpaceOnUse" x="0" y="0" width="401" height="401">
<path d="M0 6.10352e-05H401V401H0V6.10352e-05Z" fill="white"/>
</mask>
<g mask="url(#mask4_70_4111)">
<path d="M93.1306 29.7852C39.338 55.6963 29.1342 131.78 63.2521 177.51C70.3835 187.068 79.7059 195.127 90.7462 199.808C128.456 215.798 158.652 184.009 177.027 154.804C206.364 108.18 210.032 96.6536 209.508 104.512C208.984 112.37 222.605 120.752 230.463 79.3657C240.508 26.4609 166.44 14.4301 128.948 19.4114C116.377 21.0819 104.202 24.4519 93.1306 29.7852Z" fill="#1A2E35"/>
<path d="M93.1306 29.7852C39.338 55.6963 29.1342 131.78 63.2521 177.51C70.3835 187.068 79.7059 195.127 90.7462 199.808C128.456 215.798 158.652 184.009 177.027 154.804C206.364 108.18 210.032 96.6536 209.508 104.512C208.984 112.37 222.605 120.752 230.463 79.3657C240.508 26.4609 166.44 14.4301 128.948 19.4114C116.377 21.0819 104.202 24.4519 93.1306 29.7852Z" stroke="#1A2E35" stroke-width="1.33333" stroke-miterlimit="10"/>
<path d="M213.537 119.159C210.382 124.854 210.596 131.005 214.012 132.897C217.43 134.789 222.757 131.707 225.91 126.012C229.064 120.317 228.852 114.167 225.434 112.275C222.018 110.382 216.691 113.464 213.537 119.159Z" fill="#1A2E35"/>
<path d="M213.537 119.159C210.382 124.854 210.596 131.005 214.012 132.897C217.43 134.789 222.757 131.707 225.91 126.012C229.064 120.317 228.852 114.167 225.434 112.275C222.018 110.382 216.691 113.464 213.537 119.159Z" stroke="#1A2E35" stroke-width="1.33333" stroke-miterlimit="10"/>
<path d="M231.532 127.18C229.669 130.545 229.794 134.181 231.814 135.299C233.833 136.417 236.98 134.595 238.845 131.23C240.709 127.865 240.583 124.229 238.564 123.112C236.545 121.993 233.396 123.814 231.532 127.18Z" fill="#1A2E35"/>
<path d="M231.532 127.18C229.669 130.545 229.794 134.181 231.814 135.299C233.833 136.417 236.98 134.595 238.845 131.23C240.709 127.865 240.583 124.229 238.564 123.112C236.545 121.993 233.396 123.814 231.532 127.18Z" stroke="#1A2E35" stroke-width="1.33333" stroke-miterlimit="10"/>
<path d="M96.2282 24.8291C42.4357 50.7402 32.2319 126.824 66.3497 172.554C73.4811 182.112 82.8036 190.171 93.8439 194.852C131.554 210.842 161.749 179.053 180.125 149.848C209.462 103.224 213.129 91.6975 212.606 99.5563C212.082 107.414 225.702 115.796 233.56 74.4096C243.605 21.5048 169.537 9.47403 132.046 14.4553C119.476 16.1258 107.3 19.4958 96.2282 24.8291Z" fill="#F0F0F0"/>
<path d="M96.2282 24.8291C42.4357 50.7402 32.2319 126.824 66.3497 172.554C73.4811 182.112 82.8036 190.171 93.8439 194.852C131.554 210.842 161.749 179.053 180.125 149.848C209.462 103.224 213.129 91.6975 212.606 99.5563C212.082 107.414 225.702 115.796 233.56 74.4096C243.605 21.5048 169.537 9.47404 132.046 14.4553C119.476 16.1258 107.3 19.4958 96.2282 24.8291Z" stroke="#1A2E35" stroke-width="1.33333" stroke-miterlimit="10"/>
<path d="M216.634 114.203C213.48 119.898 213.693 126.049 217.11 127.941C220.527 129.833 225.854 126.751 229.008 121.056C232.162 115.361 231.949 109.211 228.532 107.319C225.116 105.426 219.789 108.508 216.634 114.203Z" fill="#F0F0F0"/>
<path d="M216.634 114.203C213.48 119.898 213.693 126.049 217.11 127.941C220.527 129.833 225.854 126.751 229.008 121.056C232.162 115.361 231.949 109.211 228.532 107.319C225.116 105.426 219.789 108.508 216.634 114.203Z" stroke="#1A2E35" stroke-width="1.33333" stroke-miterlimit="10"/>
<path d="M234.63 122.224C232.766 125.589 232.892 129.225 234.912 130.343C236.931 131.461 240.079 129.639 241.943 126.274C243.807 122.909 243.681 119.273 241.661 118.155C239.643 117.037 236.494 118.858 234.63 122.224Z" fill="#F0F0F0"/>
<path d="M234.63 122.224C232.766 125.589 232.892 129.225 234.912 130.343C236.931 131.461 240.079 129.639 241.943 126.274C243.807 122.909 243.681 119.273 241.661 118.155C239.643 117.037 236.494 118.858 234.63 122.224Z" stroke="#1A2E35" stroke-width="1.33333" stroke-miterlimit="10"/>
</g>
<mask id="mask5_70_4111" style="mask-type:luminance" maskUnits="userSpaceOnUse" x="0" y="0" width="401" height="401">
<path d="M0 3.05176e-05H401V401H0V3.05176e-05Z" fill="white"/>
</mask>
<g mask="url(#mask5_70_4111)">
<path d="M104.338 96.6175C115.239 96.6175 124.077 87.7795 124.077 76.8779C124.077 65.9755 115.239 57.1375 104.338 57.1375C93.4355 57.1375 84.5974 65.9755 84.5974 76.8779C84.5974 87.7795 93.4355 96.6175 104.338 96.6175ZM67.8252 82.1671V71.5727H74.2773C74.5877 69.7994 75.044 68.0751 75.6471 66.4214L70.0716 63.2022L75.3688 54.0273L80.9571 57.2529C82.1016 55.8911 83.3623 54.6304 84.7249 53.4867L81.5001 47.9016L90.675 42.6044L93.8958 48.1823C95.5503 47.5792 97.2738 47.1245 99.0479 46.8141V40.3652H109.642V46.8165C111.416 47.1277 113.141 47.584 114.794 48.1871L118.013 42.6124L127.188 47.9096L123.962 53.4972C125.324 54.6416 126.585 55.9024 127.729 57.265L133.313 54.0401L138.611 63.2158L133.033 66.4358C133.636 68.0904 134.091 69.8139 134.401 71.5879H140.851V82.1823H134.398C134.087 83.9563 133.631 85.6798 133.028 87.3344L138.603 90.5528L133.306 99.7277L127.719 96.502C126.574 97.8638 125.313 99.1246 123.951 100.268L127.175 105.854L118 111.151L114.78 105.573C113.125 106.175 111.401 106.63 109.627 106.941V113.391H99.0326V106.938C97.2594 106.627 95.5351 106.172 93.8806 105.569L90.6621 111.143L81.4873 105.846L84.7137 100.259C83.3511 99.1133 82.0904 97.8534 80.9467 96.49L75.3616 99.7148L70.0644 90.5399L75.6423 87.3199C75.04 85.6646 74.5845 83.9411 74.2741 82.1671H67.8252Z" fill="#BEBABA"/>
<path d="M112.542 156.175C121.405 156.175 128.589 148.991 128.589 140.127C128.589 131.264 121.405 124.08 112.542 124.08C103.679 124.08 96.4945 131.264 96.4945 140.127C96.4945 148.991 103.679 156.175 112.542 156.175ZM82.8589 144.428V135.815H88.104C88.3566 134.373 88.7279 132.972 89.2179 131.627L84.6858 129.01L88.9918 121.552L93.5343 124.175C94.4646 123.067 95.4896 122.042 96.5979 121.113L93.9762 116.572L101.435 112.266L104.053 116.8C105.397 116.31 106.799 115.94 108.241 115.688V110.445H116.854V115.69C118.296 115.943 119.697 116.314 121.042 116.804L123.659 112.272L131.118 116.578L128.495 121.121C129.602 122.051 130.627 123.076 131.556 124.184L136.097 121.563L140.404 129.021L135.869 131.639C136.359 132.984 136.729 134.386 136.981 135.828H142.224V144.441H136.979C136.726 145.883 136.355 147.284 135.865 148.629L140.398 151.246L136.091 158.703L131.548 156.081C130.618 157.188 129.593 158.213 128.485 159.143L131.106 163.684L123.648 167.99L121.03 163.456C119.685 163.945 118.284 164.315 116.841 164.568V169.81H108.229V164.565C106.787 164.312 105.385 163.942 104.041 163.451L101.424 167.984L93.9658 163.677L96.5883 159.135C95.4808 158.204 94.4558 157.179 93.5263 156.072L88.9854 158.693L84.6794 151.234L89.2139 148.617C88.7239 147.271 88.3542 145.87 88.1016 144.428H82.8589Z" fill="#BEBABA"/>
<path d="M160.192 133.689C166.942 133.689 172.415 128.216 172.415 121.466C172.415 114.715 166.942 109.242 160.192 109.242C153.441 109.242 147.968 114.715 147.968 121.466C147.968 128.216 153.441 133.689 160.192 133.689ZM137.583 124.741V118.181H141.578C141.771 117.082 142.053 116.015 142.426 114.991L138.974 112.998L142.254 107.316L145.714 109.313C146.423 108.47 147.203 107.69 148.047 106.982L146.051 103.523L151.732 100.243L153.726 103.697C154.75 103.324 155.818 103.042 156.916 102.85V98.856H163.477V102.852C164.575 103.044 165.642 103.326 166.667 103.699L168.66 100.247L174.341 103.528L172.344 106.988C173.187 107.696 173.968 108.477 174.676 109.321L178.135 107.324L181.414 113.006L177.961 114.999C178.334 116.024 178.616 117.092 178.808 118.19H182.801V124.75H178.806C178.614 125.849 178.331 126.916 177.958 127.941L181.41 129.933L178.13 135.615L174.669 133.617C173.96 134.461 173.18 135.242 172.336 135.949L174.333 139.408L168.652 142.688L166.657 139.234C165.633 139.607 164.566 139.89 163.467 140.081V144.075H156.907V140.08C155.809 139.887 154.741 139.605 153.717 139.231L151.723 142.684L146.042 139.403L148.04 135.944C147.196 135.235 146.416 134.454 145.708 133.61L142.249 135.607L138.969 129.925L142.423 127.932C142.05 126.907 141.768 125.839 141.576 124.741H137.583Z" fill="#BEBABA"/>
<path d="M183.557 73.002C190.308 73.002 195.781 67.5291 195.781 60.7787C195.781 54.0275 190.308 48.5554 183.557 48.5554C176.806 48.5554 171.334 54.0275 171.334 60.7787C171.334 67.5291 176.806 73.002 183.557 73.002ZM160.948 64.0541V57.4937H164.943C165.136 56.395 165.418 55.3283 165.791 54.3042L162.339 52.3104L165.619 46.629L169.079 48.6268C169.788 47.7831 170.569 47.0028 171.412 46.2946L169.416 42.8364L175.097 39.5562L177.091 43.0104C178.115 42.6367 179.183 42.3552 180.282 42.1627V38.1695H186.842V42.1643C187.94 42.3576 189.007 42.6399 190.032 43.0128L192.025 39.561L197.707 42.8412L195.709 46.301C196.553 47.01 197.333 47.7903 198.041 48.634L201.5 46.637L204.779 52.3184L201.326 54.313C201.699 55.3371 201.981 56.4046 202.173 57.5033H206.166V64.0637H202.171C201.979 65.1624 201.697 66.2291 201.323 67.2541L204.775 69.247L201.495 74.9284L198.035 72.9306C197.326 73.7735 196.545 74.5547 195.702 75.2628L197.699 78.721L192.017 82.0012L190.023 78.5478C188.998 78.9207 187.931 79.2022 186.832 79.3947V83.3879H180.272V79.3931C179.174 79.2006 178.107 78.9175 177.082 78.5446L175.089 81.9964L169.407 78.7162L171.406 75.2564C170.561 74.5474 169.781 73.7671 169.073 72.9234L165.615 74.9204L162.334 69.239L165.789 67.2444C165.415 66.2195 165.133 65.1528 164.942 64.0541H160.948Z" fill="#BEBABA"/>
</g>
</svg>
