<svg width="400" height="400" viewBox="0 0 487 430" fill="none" xmlns="http://www.w3.org/2000/svg">
<path d="M40.6577 190.323C41.882 169.867 48.6649 149.749 62.8327 131.269C81.0884 107.458 109.65 94.85 138.825 90.9511C181.224 85.2844 218.547 95.2718 258.13 72.1451C270.34 65.0115 281.413 56.0371 293.769 49.1606C330.217 28.879 371.208 43.8962 396.341 74.9142C448.771 139.622 446.728 238.505 421.98 313.882C410.873 347.709 385.689 375.087 353.571 390.416C280.928 425.086 183.823 389.032 123.88 343.881C79.1804 310.212 37.1532 248.876 40.6577 190.323Z" fill="#3985F4"/>
<path opacity="0.7" d="M40.6577 190.323C41.882 169.867 48.6649 149.749 62.8327 131.269C81.0884 107.458 109.65 94.85 138.825 90.9511C181.224 85.2844 218.547 95.2718 258.13 72.1451C270.34 65.0115 281.413 56.0371 293.769 49.1606C330.217 28.879 371.208 43.8962 396.341 74.9142C448.771 139.622 446.728 238.505 421.98 313.882C410.873 347.709 385.689 375.087 353.571 390.416C280.928 425.086 183.823 389.032 123.88 343.881C79.1804 310.212 37.1532 248.876 40.6577 190.323Z" fill="#F0F0F0"/>
<path d="M101.11 177.265C107.288 174.745 111.492 178.31 113.455 180.667C114.968 177.997 118.481 173.74 125.009 175.119C132.094 176.626 135.278 185.195 130.196 193.738C126.533 199.88 120.157 204.43 116.874 206.489C116.482 206.737 116.122 206.947 115.829 207.115C115.511 207.001 115.119 206.859 114.689 206.685C111.091 205.244 104.008 201.901 99.3206 196.509C92.788 189.011 94.4068 180.01 101.11 177.265Z" stroke="#263238" stroke-miterlimit="10" stroke-linecap="round" stroke-linejoin="round"/>
<path d="M130.775 212.376C133.817 211.948 135.29 214.012 135.901 215.286C136.877 214.265 138.924 212.761 141.683 214.112C144.675 215.583 145.13 219.767 141.899 223.006C139.572 225.334 136.214 226.646 134.516 227.194C134.313 227.26 134.128 227.314 133.979 227.356C133.851 227.269 133.691 227.162 133.52 227.035C132.076 225.986 129.292 223.697 127.808 220.762C125.737 216.679 127.474 212.845 130.775 212.376Z" stroke="#263238" stroke-miterlimit="10" stroke-linecap="round" stroke-linejoin="round"/>
<path d="M72.3213 250.194C72.3213 250.194 79.7938 246.397 82.1139 246.689C84.433 246.981 77.9909 249.61 82.1139 249.61C86.2368 249.61 87.7826 248.149 87.7826 249.025C87.7826 249.902 88.0826 250.632 90.1231 250.194C92.1636 249.756 92.6789 250.31 93.7094 250.325C94.7398 250.34 97.1963 250.048 99.0605 249.464C100.925 248.879 102.986 248.149 104.274 249.172C105.563 250.194 105.048 250.749 109.686 250.326C114.324 249.902 117.674 250.469 117.674 250.469" stroke="#263238" stroke-miterlimit="10" stroke-linecap="round" stroke-linejoin="round"/>
<path d="M72.1382 267.494C75.7683 266.794 83.8077 262.85 81.474 263.289C79.1403 263.727 74.7319 266.356 80.4367 266.502C86.1414 266.648 87.4387 264.604 88.9942 264.019C90.5497 263.435 95.9963 264.019 96.7736 264.019C97.5518 264.019 92.3652 265.124 96.7736 265.375C101.182 265.626 101.609 264.832 103.34 265.375C105.071 265.919 107.924 265.375 107.924 265.375C107.924 265.375 108.734 266.211 112.867 266.356C117 266.502 120.112 266.356 120.112 266.356" stroke="#263238" stroke-miterlimit="10" stroke-linecap="round" stroke-linejoin="round"/>
<path d="M69.2854 258.351C69.2854 258.351 80.1767 257.852 82.2513 257.268C84.3259 256.684 83.2886 255.224 86.1414 255.807C88.9943 256.392 90.8088 255.244 93.2731 255.672C95.7363 256.1 102.142 255.686 99.3674 254.639C96.5915 253.593 91.3631 257.121 97.3103 257.267C103.258 257.414 105.85 256.842 106.369 256.398C106.889 255.954 110.016 257.267 110.016 257.267C110.016 257.267 113.372 256.111 114.927 256.398C116.483 256.684 122.966 257.414 122.966 257.414" stroke="#263238" stroke-miterlimit="10" stroke-linecap="round" stroke-linejoin="round"/>
<path d="M387.107 261.19C386.625 264.353 387 267.448 388.08 270.232C388.606 271.638 389.321 272.965 390.184 274.176C392.886 277.994 397.075 280.753 402.061 281.512C411.801 282.997 420.899 276.305 422.383 266.565C423.867 256.825 417.176 247.728 407.436 246.244C397.696 244.759 388.591 251.45 387.107 261.19Z" stroke="#263238" stroke-miterlimit="10" stroke-linecap="round" stroke-linejoin="round"/>
<path d="M396.3 270.732C396.3 270.732 400.281 266.683 405.095 267.417C409.907 268.15 411.716 272.287 411.716 272.287" stroke="#263238" stroke-miterlimit="10" stroke-linecap="round" stroke-linejoin="round"/>
<path d="M410.246 256.63C410.246 256.63 411.692 259.768 415.723 260.334" stroke="#263238" stroke-miterlimit="10" stroke-linecap="round" stroke-linejoin="round"/>
<path d="M413.436 261.003C413.307 261.85 412.515 262.433 411.668 262.303C410.821 262.173 410.239 261.383 410.368 260.535C410.497 259.688 411.288 259.106 412.135 259.235C412.983 259.364 413.564 260.155 413.436 261.003Z" stroke="#263238" stroke-miterlimit="10" stroke-linecap="round" stroke-linejoin="round"/>
<path d="M413.332 261.672C413.332 261.672 414.853 262.058 414.128 263.775C413.41 265.5 416.405 265.879 416.846 266.478C417.286 267.077 415.807 269.294 417.45 270C419.1 270.706 418.958 272.134 418.475 273.285C418.308 273.675 418.478 274.279 418.76 274.909" stroke="#263238" stroke-miterlimit="10" stroke-linecap="round" stroke-linejoin="round"/>
<path d="M411.67 262.305C411.679 263.863 411.144 264.845 413.361 266.332C415.571 267.809 413.405 269.537 413.799 270.437C414.202 271.331 416.71 270.858 415.226 273.614C414.38 275.173 414.938 276.869 415.576 278.046" stroke="#263238" stroke-miterlimit="10" stroke-linecap="round" stroke-linejoin="round"/>
<path d="M401.651 255.319C401.651 255.319 399.335 257.884 395.32 257.224" stroke="#263238" stroke-miterlimit="10" stroke-linecap="round" stroke-linejoin="round"/>
<path d="M397.303 258.544C397.175 259.392 397.756 260.183 398.604 260.312C399.451 260.442 400.242 259.859 400.372 259.012C400.501 258.165 399.919 257.374 399.071 257.244C398.225 257.116 397.433 257.698 397.303 258.544Z" stroke="#263238" stroke-miterlimit="10" stroke-linecap="round" stroke-linejoin="round"/>
<path d="M388.079 270.232C388.535 269.716 388.877 269.19 388.833 268.767C388.715 267.524 389.006 266.119 390.791 265.937C392.569 265.753 391.818 263.195 392.417 262.755C393.016 262.315 395.987 262.845 395.816 260.984C395.636 259.13 397.203 259.214 397.203 259.214" stroke="#263238" stroke-miterlimit="10" stroke-linecap="round" stroke-linejoin="round"/>
<path d="M390.184 274.176C391.143 273.243 392.181 271.791 391.837 270.05C391.242 266.976 393.495 268.175 394.147 267.443C394.792 266.701 393.238 264.406 395.788 263.654C398.347 262.895 398.129 261.798 398.602 260.314" stroke="#263238" stroke-miterlimit="10" stroke-linecap="round" stroke-linejoin="round"/>
<path d="M305.663 132.724C307.2 137.056 309.776 140.719 313.031 143.512C314.651 144.935 316.457 146.129 318.371 147.076C324.383 150.077 331.557 150.725 338.386 148.303C351.724 143.572 358.699 128.927 353.968 115.59C349.237 102.253 334.592 95.2776 321.255 100.008C307.918 104.738 300.932 119.387 305.663 132.724Z" stroke="#263238" stroke-miterlimit="10" stroke-linecap="round" stroke-linejoin="round"/>
<path d="M344.714 117.501C344.714 117.501 342.235 122.171 331.424 125.526C321.864 128.493 314.169 127.876 314.169 127.876C314.169 127.876 318.634 145.818 335.899 141.301C353.163 136.787 344.714 117.501 344.714 117.501Z" stroke="#263238" stroke-miterlimit="10" stroke-linecap="round" stroke-linejoin="round"/>
<path d="M331.861 111.247C331.861 111.247 331.674 103.81 338.449 110.077" stroke="#263238" stroke-miterlimit="10" stroke-linecap="round" stroke-linejoin="round"/>
<path d="M320.093 115.422C320.093 115.422 315.808 111.446 315.354 118.269" stroke="#263238" stroke-miterlimit="10" stroke-linecap="round" stroke-linejoin="round"/>
<path d="M334.178 134.102C334.178 134.102 338.254 129.402 341.197 129.928C344.14 130.454 343.506 136.077 335.223 139.015C326.939 141.954 323.427 138.113 323.632 135.129C323.836 132.144 334.178 134.102 334.178 134.102Z" stroke="#263238" stroke-miterlimit="10" stroke-linecap="round" stroke-linejoin="round"/>
<path d="M340.042 109.511C340.042 109.511 347.976 107.27 346.745 110.923C345.514 114.576 340.042 109.511 340.042 109.511Z" stroke="#263238" stroke-miterlimit="10" stroke-linecap="round" stroke-linejoin="round"/>
<path d="M313.824 118.811C313.824 118.811 307.12 120.311 308.74 122.932C310.357 125.553 313.824 118.811 313.824 118.811Z" stroke="#263238" stroke-miterlimit="10" stroke-linecap="round" stroke-linejoin="round"/>
<path d="M345.928 165.263C345.928 165.263 353.958 161.182 356.451 161.496C358.943 161.81 352.02 164.635 356.451 164.635C360.882 164.635 362.543 163.066 362.543 164.007C362.543 164.949 362.866 165.734 365.058 165.262C367.251 164.792 367.805 165.387 368.912 165.404C370.02 165.42 372.659 165.106 374.663 164.478C376.666 163.85 378.881 163.066 380.266 164.165C381.651 165.263 381.097 165.86 386.082 165.405C391.067 164.95 394.667 165.559 394.667 165.559" stroke="#263238" stroke-miterlimit="10" stroke-linecap="round" stroke-linejoin="round"/>
<path d="M347.174 205.602C347.174 205.602 355.204 201.521 357.697 201.835C360.189 202.149 353.266 204.974 357.697 204.974C362.127 204.974 363.789 203.405 363.789 204.346C363.789 205.288 364.111 206.073 366.304 205.602C368.496 205.131 369.051 205.726 370.158 205.743C371.265 205.759 373.905 205.445 375.909 204.818C377.912 204.189 380.127 203.405 381.512 204.504C382.896 205.603 382.343 206.199 387.327 205.744C392.312 205.289 395.912 205.898 395.912 205.898" stroke="#263238" stroke-miterlimit="10" stroke-linecap="round" stroke-linejoin="round"/>
<path d="M345.928 174.513C350.514 173.808 360.67 169.844 357.722 170.284C354.774 170.725 349.203 173.368 356.411 173.515C363.618 173.662 365.257 171.606 367.222 171.019C369.188 170.431 376.068 171.019 377.051 171.019C378.034 171.019 371.482 172.129 377.051 172.381C382.62 172.634 383.161 171.835 385.347 172.381C387.534 172.928 391.138 172.381 391.138 172.381C391.138 172.381 392.162 173.221 397.383 173.368C402.605 173.515 406.536 173.368 406.536 173.368" stroke="#263238" stroke-miterlimit="10" stroke-linecap="round" stroke-linejoin="round"/>
<path d="M346.977 224.193C350.879 223.44 359.517 219.203 357.009 219.674C354.501 220.144 349.763 222.97 355.895 223.127C362.025 223.284 363.419 221.086 365.091 220.458C366.764 219.83 372.615 220.458 373.451 220.458C374.287 220.458 368.714 221.645 373.451 221.915C378.189 222.185 378.648 221.332 380.509 221.915C382.369 222.499 385.434 221.915 385.434 221.915C385.434 221.915 386.305 222.812 390.746 222.97C395.188 223.127 398.532 222.97 398.532 222.97" stroke="#263238" stroke-miterlimit="10" stroke-linecap="round" stroke-linejoin="round"/>
<path d="M345.928 198.73C349.804 197.977 358.389 193.739 355.897 194.211C353.404 194.682 348.697 197.507 354.789 197.664C360.882 197.82 362.266 195.623 363.927 194.995C365.589 194.367 371.404 194.995 372.235 194.995C373.065 194.995 367.527 196.182 372.235 196.452C376.942 196.722 377.399 195.868 379.247 196.452C381.096 197.035 384.142 196.452 384.142 196.452C384.142 196.452 385.007 197.35 389.421 197.507C393.834 197.664 397.157 197.507 397.157 197.507" stroke="#263238" stroke-miterlimit="10" stroke-linecap="round" stroke-linejoin="round"/>
<path d="M344.543 182.837C348.373 181.9 349.14 178.9 351.694 179.838C354.248 180.775 357.313 180.23 358.079 179.659C358.846 179.088 361.4 178.151 362.421 178.151C363.443 178.151 362.421 179.276 362.421 180.495C362.421 181.713 365.742 180.963 366.508 180.495C367.275 180.026 368.552 179.463 369.446 180.495C370.34 181.526 370.34 181.526 370.34 181.526C370.34 181.526 372.131 181.526 372.641 180.495C373.15 179.463 374.682 177.589 377.236 178.151C379.79 178.713 376.469 179.36 378.258 180.443C380.046 181.525 380.556 178.151 382.345 179.651C384.133 181.151 382.345 181.901 383.877 181.901C385.409 181.901 393.42 180.607 397.158 181.526" stroke="#263238" stroke-miterlimit="10" stroke-linecap="round" stroke-linejoin="round"/>
<path d="M345.928 190.756C345.928 190.756 357.558 190.22 359.774 189.593C361.99 188.965 360.882 187.396 363.928 188.024C366.975 188.652 368.913 187.419 371.544 187.879C374.175 188.338 381.015 187.893 378.051 186.768C375.087 185.644 369.503 189.437 375.854 189.594C382.204 189.751 384.973 189.136 385.528 188.659C386.082 188.182 389.422 189.594 389.422 189.594C389.422 189.594 393.004 188.352 394.666 188.659C396.327 188.966 403.251 189.751 403.251 189.751" stroke="#263238" stroke-miterlimit="10" stroke-linecap="round" stroke-linejoin="round"/>
<path d="M343.912 214.367C343.912 214.367 355.616 213.831 357.846 213.204C360.075 212.575 358.961 211.006 362.026 211.635C365.091 212.263 367.042 211.03 369.69 211.489C372.337 211.949 379.221 211.504 376.239 210.379C373.256 209.254 367.636 213.047 374.028 213.205C380.419 213.361 383.206 212.748 383.763 212.27C384.32 211.791 387.681 213.205 387.681 213.205C387.681 213.205 391.287 211.963 392.958 212.27C394.631 212.576 401.597 213.361 401.597 213.361" stroke="#263238" stroke-miterlimit="10" stroke-linecap="round" stroke-linejoin="round"/>
<path d="M251.438 90.657C255.662 75.0817 246.461 59.0302 230.886 54.806C215.31 50.5817 199.259 59.7831 195.035 75.3583C192.168 85.9262 195.495 96.7026 202.788 103.865L202.728 107.721L228.446 114.697L230.342 111.34C240.256 108.843 248.572 101.225 251.438 90.657Z" stroke="#263238" stroke-miterlimit="10" stroke-linecap="round" stroke-linejoin="round"/>
<path d="M217.095 136.683L201.414 132.43C199.343 131.868 198.036 129.826 198.393 127.711L201.811 107.473L229.363 114.947L222.085 134.137C221.325 136.144 219.166 137.245 217.095 136.683Z" stroke="#263238" stroke-miterlimit="10" stroke-linecap="round" stroke-linejoin="round"/>
<path d="M217.295 137.123C216.55 139.869 212.303 141.107 207.809 139.888C203.315 138.669 200.276 135.454 201.021 132.708" stroke="#263238" stroke-miterlimit="10" stroke-linecap="round" stroke-linejoin="round"/>
<path d="M207.618 86.0655L214.158 87.8401L220.566 80.3569L220.837 98.1441L229.799 84.7876L230.534 91.9173L235.261 93.2001" stroke="#263238" stroke-miterlimit="10" stroke-linecap="round" stroke-linejoin="round"/>
<path d="M236.149 43.8163L245.134 26.221" stroke="#263238" stroke-miterlimit="10" stroke-linecap="round" stroke-linejoin="round"/>
<path d="M261.985 62.1402L276.337 57.2098" stroke="#263238" stroke-miterlimit="10" stroke-linecap="round" stroke-linejoin="round"/>
<path d="M261.469 95.4188L274.8 97.436" stroke="#263238" stroke-miterlimit="10" stroke-linecap="round" stroke-linejoin="round"/>
<path d="M203.055 49.1908L195.826 28.2372" stroke="#263238" stroke-miterlimit="10" stroke-linecap="round" stroke-linejoin="round"/>
<path d="M183.855 83.6753L173.909 82.1705" stroke="#263238" stroke-miterlimit="10" stroke-linecap="round" stroke-linejoin="round"/>
<path d="M107.478 126.509C111.307 125.769 113.687 122.198 117.853 122.793L118.448 123.388C117.853 123.983 117.258 124.578 116.663 125.174C119.043 126.959 121.424 125.174 123.804 125.174C124.399 125.174 124.399 126.364 124.994 126.364C130.35 126.959 135.707 125.769 141.063 125.174C142.848 126.959 146.419 127.554 148.815 126.56" stroke="#263238" stroke-miterlimit="10" stroke-linecap="round" stroke-linejoin="round"/>
<path d="M107.281 145.1C111.307 144.812 114.282 142.432 117.853 140.647C116.068 141.837 114.282 140.647 113.092 143.027C116.663 145.407 121.424 143.027 124.994 141.837C127.97 140.647 130.946 141.242 133.842 141.383M133.842 141.383C131.24 141.176 132.733 141.884 133.842 141.383ZM133.842 141.383C132.733 141.884 130.674 142.449 133.147 142.778C135.589 143.102 138.476 142.058 140.812 142.822" stroke="#263238" stroke-miterlimit="10" stroke-linecap="round" stroke-linejoin="round"/>
<path d="M106.232 119.637C110.109 118.884 118.694 114.647 116.201 115.118C113.709 115.588 109.001 118.414 115.094 118.571C121.186 118.728 122.57 116.53 124.232 115.902C125.893 115.274 131.708 115.902 132.539 115.902C133.37 115.902 127.832 117.089 132.539 117.359C137.246 117.629 137.703 116.776 139.552 117.359C141.4 117.943 144.446 117.359 144.446 117.359C144.446 117.359 145.311 118.256 149.725 118.414C154.138 118.571 168.625 119.255 168.625 119.255" stroke="#263238" stroke-miterlimit="10" stroke-linecap="round" stroke-linejoin="round"/>
<path d="M106.232 111.662C106.232 111.662 117.863 111.127 120.079 110.499C122.294 109.871 121.186 108.302 124.233 108.93C127.278 109.558 129.218 108.325 131.847 108.785C134.478 109.245 141.319 108.8 138.355 107.675C135.391 106.55 129.807 110.343 136.157 110.5C142.508 110.657 145.277 110.042 145.831 109.565C146.385 109.088 149.725 110.5 149.725 110.5C149.725 110.5 153.308 109.258 154.969 109.565C156.631 109.872 163.554 110.657 163.554 110.657" stroke="#263238" stroke-miterlimit="10" stroke-linecap="round" stroke-linejoin="round"/>
<path d="M104.216 135.274C104.216 135.274 115.921 134.738 118.15 134.111C120.38 133.483 119.265 131.914 122.331 132.541C125.396 133.169 127.347 131.936 129.994 132.396C132.641 132.855 139.526 132.41 136.543 131.285C133.561 130.161 127.941 133.954 134.332 134.111C140.724 134.268 143.51 133.653 144.067 133.176C144.624 132.699 147.986 134.111 147.986 134.111C147.986 134.111 151.591 132.869 153.263 133.176C154.935 133.483 161.902 134.268 161.902 134.268" stroke="#263238" stroke-miterlimit="10" stroke-linecap="round" stroke-linejoin="round"/>
<path d="M231.297 161.89C231.297 161.89 235.275 130.191 257.344 137.249C279.412 144.308 284.978 169.283 281.531 191.832C278.083 214.381 281.993 218.514 281.993 218.514C281.993 218.514 275.636 211.186 277.873 195.114C277.873 195.114 274.481 213.146 277.557 220.336C277.557 220.336 275.951 223.944 271.196 222.816C271.196 222.816 263.168 203.819 263.226 186.171C263.282 168.525 231.297 161.89 231.297 161.89Z" fill="#263238"/>
<g opacity="0.2">
<path d="M240.514 153.534C240.514 153.534 243.767 138.692 256.884 139.655" stroke="#F0F0F0" stroke-miterlimit="10" stroke-linecap="round" stroke-linejoin="round"/>
<path d="M250.025 158.988C250.025 158.988 254.084 149.175 261.657 149.714C269.23 150.251 277.065 164.497 276.423 176.351C275.781 188.206 270.083 205.304 275.243 218.429" stroke="#F0F0F0" stroke-miterlimit="10" stroke-linecap="round" stroke-linejoin="round"/>
<path d="M255.635 164.937C255.635 164.937 264.896 162.253 267.352 170.894C269.809 179.535 267.352 199.03 267.352 199.03" stroke="#F0F0F0" stroke-miterlimit="10" stroke-linecap="round" stroke-linejoin="round"/>
</g>
<path d="M229.153 159.306C229.153 159.306 229.928 155.068 236.671 156.417C243.414 157.766 256.443 164.123 250.025 169.71C243.607 175.297 229.153 159.306 229.153 159.306Z" fill="#3985F4" stroke="#263238" stroke-miterlimit="10" stroke-linecap="round" stroke-linejoin="round"/>
<path d="M140.935 330.356C156.665 338.781 173.162 330.093 173.162 330.093C186.116 338.78 192.764 337.223 192.764 337.223L225.323 391.14L367.615 388.342C367.615 388.342 369.109 350.714 367.615 338.291C359.872 273.926 327.996 260.839 294.552 252.601C261.108 244.363 226.66 245.683 199.199 253C161.798 262.966 140.935 283.053 140.935 283.053C140.935 283.053 121.559 286.953 117.271 298.143C117.271 298.143 132.126 325.639 140.935 330.356Z" fill="#3985F4"/>
<mask id="mask0_70_7132" style="mask-type:luminance" maskUnits="userSpaceOnUse" x="117" y="246" width="252" height="146">
<path d="M140.935 330.356C156.665 338.781 173.162 330.093 173.162 330.093C186.116 338.78 192.764 337.223 192.764 337.223L225.323 391.14L367.615 388.342C367.615 388.342 369.109 350.714 367.615 338.291C359.872 273.926 327.996 260.839 294.552 252.601C261.108 244.363 226.66 245.683 199.199 253C161.798 262.966 140.935 283.053 140.935 283.053C140.935 283.053 121.559 286.953 117.271 298.143C117.271 298.143 132.126 325.639 140.935 330.356Z" fill="white"/>
</mask>
<g mask="url(#mask0_70_7132)">
<path opacity="0.3" d="M342.439 360.668L198.102 346.068L192.764 337.224C192.764 337.224 186.112 338.783 173.158 330.094C173.158 330.094 162.074 335.938 149.412 333.396C168.229 313.439 152.889 294.485 152.889 294.485C159.853 296.735 161.801 303.027 161.801 303.027C161.801 303.027 161.723 293.014 164.411 294.485C167.099 295.965 175.602 311.657 175.602 311.657C171.356 273.963 186.112 269.599 186.112 269.599C176.976 296.618 199.105 335.013 233.01 343.36C266.915 351.717 310.463 347.51 310.463 347.51C306.605 342.679 307.657 333.328 307.657 333.328C310.959 337.195 323.563 343.36 323.563 343.36C318.547 330.913 328.569 321.26 328.569 321.26L342.439 360.668Z" fill="black" fill-opacity="0.7"/>
</g>
<mask id="mask1_70_7132" style="mask-type:luminance" maskUnits="userSpaceOnUse" x="117" y="246" width="252" height="146">
<path d="M140.935 330.356C156.665 338.781 173.162 330.093 173.162 330.093C186.116 338.78 192.764 337.223 192.764 337.223L225.323 391.14L367.615 388.342C367.615 388.342 369.109 350.714 367.615 338.291C359.872 273.926 327.996 260.839 294.552 252.601C261.108 244.363 226.66 245.683 199.199 253C161.798 262.966 140.935 283.053 140.935 283.053C140.935 283.053 121.559 286.953 117.271 298.143C117.271 298.143 132.126 325.639 140.935 330.356Z" fill="white"/>
</mask>
<g mask="url(#mask1_70_7132)">
<path opacity="0.3" d="M297.976 283.05C274.327 309.309 241.055 291.855 241.055 291.855C217.114 300.329 208.446 276.174 208.222 273.963C207.092 262.616 212.381 254.522 220.533 248.756C243.481 245.61 269.301 246.379 294.557 252.603C296.943 253.187 299.32 253.801 301.677 254.463C306.391 262.567 307.482 272.502 297.976 283.05Z" fill="black" fill-opacity="0.7"/>
</g>
<path d="M140.935 330.356C156.665 338.781 173.162 330.093 173.162 330.093C186.116 338.78 192.764 337.223 192.764 337.223L225.323 391.14L367.615 388.342C367.615 388.342 369.109 350.714 367.615 338.291C359.872 273.926 327.996 260.839 294.552 252.601C261.108 244.363 226.66 245.683 199.199 253C161.798 262.966 140.935 283.053 140.935 283.053C140.935 283.053 121.559 286.953 117.271 298.143C117.271 298.143 132.126 325.639 140.935 330.356Z" stroke="#263238" stroke-miterlimit="10" stroke-linecap="round" stroke-linejoin="round"/>
<path d="M230.415 294.817C230.415 294.817 217.29 291.174 224.514 269.854C231.737 248.533 238.853 234.092 260.09 234.37C281.327 234.647 296.535 252.818 297.858 259.932C299.18 267.046 289.732 291.721 270.156 299.385" fill="#3985F4"/>
<path d="M230.415 294.817C230.415 294.817 217.29 291.174 224.514 269.854C231.737 248.533 238.853 234.092 260.09 234.37C281.327 234.647 296.535 252.818 297.858 259.932C299.18 267.046 289.732 291.721 270.156 299.385" stroke="#263238" stroke-miterlimit="10" stroke-linecap="round" stroke-linejoin="round"/>
<path d="M186.115 318.389C186.115 318.389 178.386 293.164 184.234 280.27" stroke="#263238" stroke-miterlimit="10" stroke-linecap="round" stroke-linejoin="round"/>
<g opacity="0.4">
<path d="M241.876 320.079C241.949 327.457 243.144 334.807 244.952 341.947" stroke="#263238" stroke-miterlimit="10" stroke-linecap="round" stroke-linejoin="round"/>
<path d="M242.775 309.837C242.352 311.574 242.153 313.368 242.024 315.147" stroke="#263238" stroke-miterlimit="10" stroke-linecap="round" stroke-linejoin="round"/>
<path d="M262.181 342.373C262.535 343.443 262.92 344.502 263.351 345.543" stroke="#263238" stroke-miterlimit="10" stroke-linecap="round" stroke-linejoin="round"/>
<path d="M255.635 311.658C258.11 320.744 258.11 330.484 261.104 338.802" stroke="#263238" stroke-miterlimit="10" stroke-linecap="round" stroke-linejoin="round"/>
<path d="M271.285 309.837C271.285 309.837 283.359 335.868 285.413 347.898" stroke="#263238" stroke-miterlimit="10" stroke-linecap="round" stroke-linejoin="round"/>
<path d="M291.234 312.894C296.604 324.705 301.529 336.959 304.359 349.653" stroke="#263238" stroke-miterlimit="10" stroke-linecap="round" stroke-linejoin="round"/>
<path d="M286.699 303.416C287.686 305.351 288.631 307.308 289.557 309.273" stroke="#263238" stroke-miterlimit="10" stroke-linecap="round" stroke-linejoin="round"/>
<path d="M231.297 305.471C231.297 305.471 225.839 321.84 226.531 341.353" stroke="#263238" stroke-miterlimit="10" stroke-linecap="round" stroke-linejoin="round"/>
<path d="M212.709 308.208C209.474 317.485 208.437 327.442 208.885 337.223" stroke="#263238" stroke-miterlimit="10" stroke-linecap="round" stroke-linejoin="round"/>
<path d="M218.922 295.965C217.047 298.358 215.622 301.136 214.402 303.905" stroke="#263238" stroke-miterlimit="10" stroke-linecap="round" stroke-linejoin="round"/>
<path d="M205.782 283.122C205.782 283.122 192.767 298.022 191.182 315.489" stroke="#263238" stroke-miterlimit="10" stroke-linecap="round" stroke-linejoin="round"/>
<path d="M311.002 310.23C311.899 311.938 312.71 313.691 313.414 315.488" stroke="#263238" stroke-miterlimit="10" stroke-linecap="round" stroke-linejoin="round"/>
<path d="M291.628 286.906C298.405 292.382 304.388 299.234 308.952 306.638" stroke="#263238" stroke-miterlimit="10" stroke-linecap="round" stroke-linejoin="round"/>
<path d="M300.569 273.493C300.569 273.493 315.211 275.929 321.633 284.406" stroke="#263238" stroke-miterlimit="10" stroke-linecap="round" stroke-linejoin="round"/>
<path d="M300.569 259.932C300.569 259.932 311.182 258.724 319.954 262.966" stroke="#263238" stroke-miterlimit="10" stroke-linecap="round" stroke-linejoin="round"/>
<path d="M197.99 270.649C199.689 270.169 201.444 269.863 203.212 269.854" stroke="#263238" stroke-miterlimit="10" stroke-linecap="round" stroke-linejoin="round"/>
<path d="M188.384 275.159C190.204 273.937 192.159 272.899 194.169 272.026" stroke="#263238" stroke-miterlimit="10" stroke-linecap="round" stroke-linejoin="round"/>
<path d="M184.787 269.595C178.553 268.993 156.666 285.32 156.666 285.32C156.666 285.32 150.81 284.358 146.186 289.262" stroke="#263238" stroke-miterlimit="10" stroke-linecap="round" stroke-linejoin="round"/>
<path d="M178.809 297.712L171.616 301.874C171.616 301.874 167.715 308.406 161.797 308.208" stroke="#263238" stroke-miterlimit="10" stroke-linecap="round" stroke-linejoin="round"/>
<path d="M182.098 321.261C182.098 321.261 178.809 323.264 176.24 322.715C176.24 322.715 165 330.645 158.675 327.818" stroke="#263238" stroke-miterlimit="10" stroke-linecap="round" stroke-linejoin="round"/>
</g>
<g opacity="0.4">
<path d="M242.775 291.085C242.775 291.085 239.939 294.681 244.952 299.305" stroke="#263238" stroke-miterlimit="10" stroke-linecap="round" stroke-linejoin="round"/>
<path d="M259.672 296.119C259.999 297.147 260.158 298.227 260.091 299.305" stroke="#263238" stroke-miterlimit="10" stroke-linecap="round" stroke-linejoin="round"/>
<path d="M255.487 289.263C256.493 290.35 257.383 291.55 258.149 292.817" stroke="#263238" stroke-miterlimit="10" stroke-linecap="round" stroke-linejoin="round"/>
<path d="M267.352 281.58C267.352 281.58 273.037 282.865 275.244 291.085" stroke="#263238" stroke-miterlimit="10" stroke-linecap="round" stroke-linejoin="round"/>
<path d="M286.386 275.375C287.199 276.913 287.764 278.571 288.127 280.27" stroke="#263238" stroke-miterlimit="10" stroke-linecap="round" stroke-linejoin="round"/>
<path d="M276.423 268.121C279.142 268.472 281.742 269.868 283.694 271.763" stroke="#263238" stroke-miterlimit="10" stroke-linecap="round" stroke-linejoin="round"/>
<path d="M278.35 252.601C278.35 252.601 286.955 247.673 293.891 258.462" stroke="#263238" stroke-miterlimit="10" stroke-linecap="round" stroke-linejoin="round"/>
<path d="M271.298 242.236C272.552 240.596 274.88 240.072 276.829 239.979" stroke="#263238" stroke-miterlimit="10" stroke-linecap="round" stroke-linejoin="round"/>
<path d="M231.297 291.085C231.297 291.085 229.95 286.811 233.268 284.406" stroke="#263238" stroke-miterlimit="10" stroke-linecap="round" stroke-linejoin="round"/>
</g>
<path d="M462.582 374.538V445.406H24.4182L24.6617 321.26L81.3096 328.156L190.524 341.442L358.822 361.915L445.245 372.424L462.582 374.538Z" fill="#F0F0F0"/>
<path opacity="0.4" d="M438.797 389.099C425.998 405.141 300.002 400.106 293.641 395.947C287.291 391.778 279.139 389.869 279.139 389.869C279.139 389.869 249.285 393.628 243.627 390.395C237.968 387.161 226.153 388.34 226.153 388.34L198.073 399.784L47.2974 379.778L83.3256 367.321C83.3256 367.321 61.0989 365.032 56.7939 357.347C52.4985 349.652 81.3094 328.156 81.3094 328.156L190.524 341.442L151.087 344.841L130.224 354.396L184.943 364.779L246.276 362.324L358.822 361.915L445.245 372.424C445.371 376.934 443.939 382.642 438.797 389.099Z" fill="#3985F4"/>
<path d="M24.6655 321.261L462.583 374.536" stroke="#263238" stroke-miterlimit="10" stroke-linecap="round" stroke-linejoin="round"/>
<path d="M207.647 395.617L64.4263 376.96L115.948 354.399L259.169 373.056L207.647 395.617Z" fill="#3985F4" stroke="#263238" stroke-miterlimit="10" stroke-linecap="round" stroke-linejoin="round"/>
<path d="M181.037 362.879L140.938 383.557L72.5532 375.006L69.5825 371.918L72.4363 370.593H72.4461L112.721 351.931C112.721 351.931 128.841 345.98 147.931 350.188C160.71 353.013 171.219 357.746 176.761 360.561C179.508 361.954 181.037 362.879 181.037 362.879Z" fill="#F0F0F0"/>
<mask id="mask2_70_7132" style="mask-type:luminance" maskUnits="userSpaceOnUse" x="69" y="348" width="113" height="36">
<path d="M181.037 362.879L140.938 383.557L72.5532 375.006L69.5825 371.918L72.4363 370.593H72.4461L112.721 351.931C112.721 351.931 128.841 345.98 147.931 350.188C160.71 353.013 171.219 357.746 176.761 360.561C179.508 361.954 181.037 362.879 181.037 362.879Z" fill="white"/>
</mask>
<g mask="url(#mask2_70_7132)">
<path opacity="0.3" d="M181.037 362.879L140.938 383.557L72.5532 375.006L69.5825 371.918L72.4363 370.593H72.4461C78.3583 369.493 86.9295 368.606 96.124 369.775C112.273 371.811 130.867 378.083 130.867 378.083C130.867 378.083 135.717 381.57 138.026 377.363C140.344 373.155 151.223 373.155 156.668 371.421C161.908 369.756 170.304 361.827 176.761 360.561C179.508 361.954 181.037 362.879 181.037 362.879Z" fill="black" fill-opacity="0.7"/>
</g>
<path d="M181.037 362.879L140.938 383.557L72.5532 375.006L69.5825 371.918L72.4363 370.593H72.4461L112.721 351.931C112.721 351.931 128.841 345.98 147.931 350.188C160.71 353.013 171.219 357.746 176.761 360.561C179.508 361.954 181.037 362.879 181.037 362.879Z" stroke="#263238" stroke-miterlimit="10" stroke-linecap="round" stroke-linejoin="round"/>
<path d="M255.49 368.207L252.646 372.21L208.514 392.343L140.938 383.557L145.048 381.434L181.038 362.879C181.038 362.879 193.057 358.555 209.712 358.623C224.439 358.681 252.023 367.126 255.188 368.11C255.383 368.178 255.49 368.207 255.49 368.207Z" fill="#F0F0F0"/>
<mask id="mask3_70_7132" style="mask-type:luminance" maskUnits="userSpaceOnUse" x="140" y="358" width="116" height="35">
<path d="M255.49 368.207L252.646 372.21L208.514 392.343L140.938 383.557L145.048 381.434L181.038 362.879C181.038 362.879 193.057 358.555 209.712 358.623C224.439 358.681 252.023 367.126 255.188 368.11C255.383 368.178 255.49 368.207 255.49 368.207Z" fill="white"/>
</mask>
<g mask="url(#mask3_70_7132)">
<path opacity="0.3" d="M255.49 368.207L252.646 372.21L208.514 392.343L140.938 383.557L145.048 381.434C153.785 379.35 165.872 377.421 175.593 379.087C192.648 382.009 207.686 387.142 207.686 387.142C207.686 387.142 243.744 371.811 255.188 368.11C255.383 368.178 255.49 368.207 255.49 368.207Z" fill="black" fill-opacity="0.7"/>
</g>
<path d="M255.49 368.207L252.646 372.21L208.514 392.343L140.938 383.557L145.048 381.434L181.038 362.879C181.038 362.879 193.057 358.555 209.712 358.623C224.439 358.681 252.023 367.126 255.188 368.11C255.383 368.178 255.49 368.207 255.49 368.207Z" stroke="#263238" stroke-miterlimit="10" stroke-linecap="round" stroke-linejoin="round"/>
<path d="M140.935 383.562C140.935 383.562 151.154 379.451 169.751 378.955C188.347 378.459 207.687 387.138 207.687 387.138L252.318 369.038" stroke="#263238" stroke-miterlimit="10" stroke-linecap="round" stroke-linejoin="round"/>
<path d="M152.89 382.178C152.89 382.178 179.544 381.806 207.811 389.989L226.531 382.111" stroke="#263238" stroke-miterlimit="10" stroke-linecap="round" stroke-linejoin="round"/>
<path d="M69.5786 371.919C69.5786 371.919 80.241 367.3 105.779 370.772C131.319 374.243 139.748 382.11 139.748 382.11" stroke="#263238" stroke-miterlimit="10" stroke-linecap="round" stroke-linejoin="round"/>
<path d="M71.4653 373.878C71.4653 373.878 82.7199 371.033 103.548 373.878C124.376 376.723 137.269 382.111 137.269 382.111" stroke="#263238" stroke-miterlimit="10" stroke-linecap="round" stroke-linejoin="round"/>
<g opacity="0.4">
<path d="M145.837 376.189C145.837 376.189 141.539 376.106 142.096 374.536C142.653 372.966 137.893 373.159 136.42 371.81C134.948 370.461 132.828 370.232 131.672 369.48C130.516 368.727 133.406 368.613 129.36 367.322C125.314 366.03 124.286 368.176 120.24 366.736C116.194 365.298 122.473 365.199 116.644 364.782C110.815 364.365 113.83 365.075 108.398 364.782C102.966 364.488 103.351 366.038 101.81 364.782C100.269 363.525 86.4241 366.12 86.4241 366.12" stroke="#263238" stroke-miterlimit="10" stroke-linecap="round" stroke-linejoin="round"/>
<path d="M153.903 372.233C152.818 371.745 151.733 371.256 150.649 370.768C150.221 370.575 149.738 370.315 149.658 369.853C149.609 369.571 149.724 369.254 149.578 369.008C149.427 368.754 149.085 368.714 148.791 368.7C147.814 368.654 146.837 368.608 145.86 368.562C145.411 367.526 144.286 366.95 143.189 366.686C142.091 366.422 140.94 366.384 139.873 366.013C139.142 365.757 138.475 365.353 137.798 364.976C132.998 362.305 127.501 360.945 122.008 360.884C122.462 360.547 122.915 360.209 123.369 359.872C119.62 359.403 115.764 359.82 112.202 361.077C112.561 360.755 112.77 360.271 112.758 359.789C108.577 360.167 104.395 360.544 100.214 360.922" stroke="#263238" stroke-miterlimit="10" stroke-linecap="round" stroke-linejoin="round"/>
<path d="M162.109 368.907C161.05 369.014 160.031 367.982 160.152 366.925C160.179 366.685 160.252 366.422 160.13 366.212C159.931 365.871 159.427 365.956 159.045 365.861C158.035 365.607 157.984 364.143 157.22 363.434C156.796 363.042 156.193 362.925 155.623 362.825C152.998 362.363 150.373 361.9 147.749 361.439C147.234 361.348 146.687 361.242 146.307 360.884C145.983 360.579 145.827 360.131 145.516 359.814C145.001 359.292 144.193 359.233 143.461 359.205C140.933 359.111 138.406 359.015 135.878 358.921C135.323 358.9 134.743 358.872 134.26 358.599C133.777 358.324 133.432 357.72 133.64 357.204C130.623 355.901 127.245 355.784 123.96 355.732C119.897 355.668 115.832 355.671 111.769 355.742" stroke="#263238" stroke-miterlimit="10" stroke-linecap="round" stroke-linejoin="round"/>
<path d="M161.698 375.507C164.736 374.398 167.932 373.725 171.159 373.516C171.483 373.495 171.822 373.482 172.116 373.62C172.405 373.755 172.611 374.02 172.881 374.191C173.305 374.461 173.838 374.475 174.339 374.481C177.12 374.513 179.901 374.546 182.682 374.578C182.739 374.83 182.796 375.083 182.852 375.336C185.826 375.335 188.8 375.334 191.774 375.333C191.836 375.596 191.899 375.859 191.961 376.122C194.542 376.093 197.123 376.064 199.705 376.035C199.921 376.032 200.155 376.035 200.33 376.162C200.533 376.308 200.6 376.574 200.718 376.795C201.171 377.643 202.311 377.758 203.268 377.854C205.722 378.099 208.116 378.917 210.206 380.223" stroke="#263238" stroke-miterlimit="10" stroke-linecap="round" stroke-linejoin="round"/>
<path d="M173.209 369.887C174.885 369.465 176.56 369.044 178.235 368.623C178.441 368.571 178.666 368.522 178.858 368.612C179.099 368.727 179.193 369.02 179.381 369.211C179.658 369.492 180.099 369.513 180.493 369.498C181.963 369.442 183.423 369.132 184.788 368.585C185.385 368.345 185.971 368.06 186.604 367.945C187.707 367.745 188.828 368.083 189.914 368.362C191.974 368.889 194.088 369.208 196.212 369.285C197.596 369.336 198.984 369.284 200.361 369.427C201.846 369.582 203.298 369.963 204.743 370.343C206.669 370.85 208.596 371.355 210.523 371.861C214.07 372.793 217.702 373.763 220.7 375.875" stroke="#263238" stroke-miterlimit="10" stroke-linecap="round" stroke-linejoin="round"/>
<path d="M180.609 365.477C182.21 365.385 183.812 365.293 185.414 365.201C187.039 364.156 188.932 363.531 190.859 363.403C192.097 363.32 193.338 363.439 194.572 363.558C196.156 363.71 197.74 363.862 199.323 364.014C201.825 364.255 204.344 364.494 206.846 364.257C206.822 364.91 207.717 365.109 208.37 365.083C209.696 365.032 211.024 364.98 212.351 364.929C212.314 365.492 212.585 366.06 213.034 366.4C213.355 366.644 213.747 366.77 214.134 366.884C217.118 367.764 220.263 368.097 223.366 367.863C223.779 367.832 224.216 367.796 224.585 367.983C224.87 368.128 225.076 368.388 225.33 368.582C225.811 368.949 226.434 369.059 227.023 369.198C229.022 369.665 230.914 370.582 232.52 371.861C232.455 371.433 232.39 371.005 232.323 370.578" stroke="#263238" stroke-miterlimit="10" stroke-linecap="round" stroke-linejoin="round"/>
<path d="M241.682 368.044C240.193 368.914 238.596 367.213 237.072 366.407C235.592 365.625 233.831 365.703 232.164 365.559C228.351 365.23 224.765 363.663 221.031 362.829C218.147 362.184 215.185 361.977 212.236 361.774C209.144 361.559 206.053 361.346 202.961 361.132" stroke="#263238" stroke-miterlimit="10" stroke-linecap="round" stroke-linejoin="round"/>
</g>
<path d="M158.675 319.916C153.717 337.134 130.703 345.14 130.703 345.14C130.703 345.14 99.6091 356.954 97.5696 327.869C97.5696 327.869 99.1153 313.66 108.399 308.37C108.399 308.37 115.133 294.987 125.306 289.262" fill="#3985F4"/>
<mask id="mask4_70_7132" style="mask-type:luminance" maskUnits="userSpaceOnUse" x="97" y="289" width="62" height="59">
<path d="M158.675 319.916C153.717 337.134 130.703 345.14 130.703 345.14C130.703 345.14 99.6091 356.954 97.5696 327.869C97.5696 327.869 99.1153 313.66 108.399 308.37C108.399 308.37 115.133 294.987 125.306 289.262" fill="white"/>
</mask>
<g mask="url(#mask4_70_7132)">
<path opacity="0.3" d="M152.304 331.01C143.743 340.604 130.701 345.143 130.701 345.143C130.701 345.143 100.079 356.782 97.624 328.526C99.4941 325.01 100.721 322.711 100.721 322.711C100.721 322.711 102.562 310.624 112.429 310.235C122.295 309.835 130.516 313.059 132.318 325.234C133.779 335.12 130.818 338.451 129.669 339.357C131.626 337.994 139.292 331.468 134.11 315.718C134.11 315.718 138.513 314.092 140.938 318.387C143.324 322.604 139.876 337.877 139.759 338.403C140.09 338.247 146.568 335.072 152.304 331.01Z" fill="black" fill-opacity="0.7"/>
</g>
<path d="M158.675 319.916C153.717 337.134 130.703 345.14 130.703 345.14C130.703 345.14 99.6091 356.954 97.5696 327.869C97.5696 327.869 99.1153 313.66 108.399 308.37C108.399 308.37 115.133 294.987 125.306 289.262" stroke="#263238" stroke-miterlimit="10" stroke-linecap="round" stroke-linejoin="round"/>
<path d="M143.137 294.486C143.137 294.486 160.941 300.592 155.7 320.977" stroke="#263238" stroke-miterlimit="10" stroke-linecap="round" stroke-linejoin="round"/>
<path d="M130.659 329.453C129.913 338.291 122.514 340.309 122.514 340.309L117.994 343.364L106.799 349.517L108.398 353.297C116.831 353.297 117.704 355.769 116.831 358.386C115.959 361.003 104.327 362.312 102.292 362.748C100.256 363.184 90.66 359.985 88.0429 358.968C85.4257 357.95 84.6085 352.752 84.6085 352.752L82.8086 331.487C82.8086 331.487 83.7836 327.247 87.9484 324.569C87.9484 324.569 90.2237 320.146 92.6957 319.128C95.1677 318.11 102.647 319.916 102.647 319.916C102.647 319.916 109.086 310.024 118.736 311.892C128.17 313.72 131.106 324.165 130.659 329.453Z" fill="#F0F0F0" stroke="#263238" stroke-miterlimit="10" stroke-linecap="round" stroke-linejoin="round"/>
<path d="M102.646 319.916C102.646 319.916 107.526 321.019 110.143 322.037" stroke="#263238" stroke-miterlimit="10" stroke-linecap="round" stroke-linejoin="round"/>
<path d="M113.806 356.895L119.109 362.351L117.233 354.978L79.1521 286.906L75.7266 288.822L113.806 356.895Z" fill="#3985F4" stroke="#263238" stroke-miterlimit="10" stroke-linecap="round" stroke-linejoin="round"/>
<path d="M78.1178 294.587L73.1641 285.732C73.1641 285.732 73.4397 284.735 75.153 283.777C76.8662 282.818 77.8928 283.086 77.8928 283.086L87.4478 300.166C87.4478 300.166 86.2313 300.005 84.7079 300.857C83.3122 301.638 83.0151 302.646 83.0151 302.646L90.3269 315.716L89.0588 315.584L77.9893 295.796L78.1178 294.587Z" fill="#3985F4" stroke="#263238" stroke-miterlimit="10" stroke-linecap="round" stroke-linejoin="round"/>
<path d="M92.2594 330.761C92.2594 330.761 98.9478 334.686 100.983 337.739C100.983 337.739 110.872 343.363 110.872 347.626C110.872 351.333 108.399 351.5 108.399 351.5C108.399 351.5 111.743 353.517 112.325 356.097C112.906 358.676 110.871 360.882 110.289 360.652C109.708 360.422 90.0786 355.333 85.4258 353.152C80.773 350.971 77.5744 348.208 81.7908 335.559C81.7908 335.559 82.082 333.087 82.8086 331.487C83.5352 329.888 87.3163 326.059 87.3163 326.059" fill="#F0F0F0"/>
<path d="M92.2594 330.761C92.2594 330.761 98.9478 334.686 100.983 337.739C100.983 337.739 110.872 343.363 110.872 347.626C110.872 351.333 108.399 351.5 108.399 351.5C108.399 351.5 111.743 353.517 112.325 356.097C112.906 358.676 110.871 360.882 110.289 360.652C109.708 360.422 90.0786 355.333 85.4258 353.152C80.773 350.971 77.5744 348.208 81.7908 335.559C81.7908 335.559 82.082 333.087 82.8086 331.487C83.5352 329.888 87.3163 326.059 87.3163 326.059" stroke="#263238" stroke-miterlimit="10" stroke-linecap="round" stroke-linejoin="round"/>
<path d="M83.8254 338.781C84.552 341.084 93.0132 343.12 96.1251 345.447C99.237 347.773 108.398 351.501 108.398 351.501" stroke="#263238" stroke-miterlimit="10" stroke-linecap="round" stroke-linejoin="round"/>
<path d="M119.739 326.059C119.739 326.059 123.81 327.61 125.361 330.712C126.911 333.814 127.105 339.436 125.361 340.987C123.616 342.537 115.668 349.905 114.505 351.261C113.342 352.618 106.943 348.159 114.505 338.66C114.505 338.66 114.311 333.426 115.668 331.681" fill="#F0F0F0"/>
<path d="M119.739 326.059C119.739 326.059 123.81 327.61 125.361 330.712C126.911 333.814 127.105 339.436 125.361 340.987C123.616 342.537 115.668 349.905 114.505 351.261C113.342 352.618 106.943 348.159 114.505 338.66C114.505 338.66 114.311 333.426 115.668 331.681" stroke="#263238" stroke-miterlimit="10" stroke-linecap="round" stroke-linejoin="round"/>
<path d="M126.599 309.273C126.599 309.273 134.883 311.191 136.168 322.716C137.453 334.242 133.849 341.285 125.306 345.141" stroke="#263238" stroke-miterlimit="10" stroke-linecap="round" stroke-linejoin="round"/>
<g opacity="0.4">
<path d="M129.068 298.193C131.176 295.767 133.931 293.198 137.27 292.817" stroke="#263238" stroke-miterlimit="10" stroke-linecap="round" stroke-linejoin="round"/>
<path d="M123.387 306.637C124.249 304.972 125.23 303.366 126.287 301.818" stroke="#263238" stroke-miterlimit="10" stroke-linecap="round" stroke-linejoin="round"/>
<path d="M137.269 316.811C137.269 316.811 149.782 315.103 154.405 309.837" stroke="#263238" stroke-miterlimit="10" stroke-linecap="round" stroke-linejoin="round"/>
<path d="M147.453 331.759C149.718 330.655 151.867 329.197 153.443 327.207" stroke="#263238" stroke-miterlimit="10" stroke-linecap="round" stroke-linejoin="round"/>
<path d="M137.269 334.773C139.326 334.499 141.364 334.014 143.341 333.386" stroke="#263238" stroke-miterlimit="10" stroke-linecap="round" stroke-linejoin="round"/>
</g>
<path d="M326.18 266.875C346.677 268.038 387.672 309.641 396.929 319.916C406.185 330.191 421.313 345.555 426.187 357.71C433.625 376.261 414.947 393.323 396.433 392.344C377.919 391.365 339.404 351.5 339.404 351.5C339.404 351.5 310.017 324.119 318.098 299.384" fill="#3985F4"/>
<mask id="mask5_70_7132" style="mask-type:luminance" maskUnits="userSpaceOnUse" x="316" y="266" width="112" height="127">
<path d="M326.18 266.875C346.677 268.038 387.672 309.641 396.929 319.916C406.185 330.191 421.313 345.555 426.187 357.71C433.625 376.261 414.947 393.323 396.433 392.344C377.919 391.365 339.404 351.5 339.404 351.5C339.404 351.5 310.017 324.119 318.098 299.384" fill="white"/>
</mask>
<g mask="url(#mask5_70_7132)">
<path opacity="0.3" d="M379.441 335.568C379.441 335.568 348.819 346.049 335.134 347.052C333.644 345.396 331.891 343.331 330.069 340.935C327.741 335.315 323.651 323.715 329.086 322.711C336.274 321.397 334.774 333.903 338.845 339.893C338.845 339.893 345.78 323.374 355.033 323.413C364.276 323.452 360.419 334.77 360.419 334.77C360.419 334.77 376.364 329.958 379.441 335.568Z" fill="black" fill-opacity="0.7"/>
</g>
<mask id="mask6_70_7132" style="mask-type:luminance" maskUnits="userSpaceOnUse" x="316" y="266" width="112" height="127">
<path d="M326.18 266.875C346.677 268.038 387.672 309.641 396.929 319.916C406.185 330.191 421.313 345.555 426.187 357.71C433.625 376.261 414.947 393.323 396.433 392.344C377.919 391.365 339.404 351.5 339.404 351.5C339.404 351.5 310.017 324.119 318.098 299.384" fill="white"/>
</mask>
<g mask="url(#mask6_70_7132)">
<path opacity="0.3" d="M396.428 392.343C393.214 392.177 389.396 390.833 385.285 388.729C400.353 386.684 414.759 383.207 418.996 375.794C423.301 368.265 420.914 353.412 416.853 342.63C420.875 347.821 424.294 353.003 426.184 357.707C433.625 376.262 414.944 393.327 396.428 392.343Z" fill="black" fill-opacity="0.7"/>
</g>
<path d="M326.18 266.875C346.677 268.038 387.672 309.641 396.929 319.916C406.185 330.191 421.313 345.555 426.187 357.71C433.625 376.261 414.947 393.323 396.433 392.344C377.919 391.365 339.404 351.5 339.404 351.5C339.404 351.5 310.017 324.119 318.098 299.384" stroke="#263238" stroke-miterlimit="10" stroke-linecap="round" stroke-linejoin="round"/>
<path d="M304.36 329.465C304.36 329.465 313.84 343.68 335.549 347.514" stroke="#263238" stroke-miterlimit="10" stroke-linecap="round" stroke-linejoin="round"/>
<path d="M306.62 356.879L289.761 357.103C289.761 357.103 266.85 349.72 263.849 347.776C260.847 345.832 241.415 355.513 239.059 356.537C236.703 357.559 234.742 359.312 234.742 359.312C234.742 359.312 232.743 361.23 231.017 361.998C229.291 362.765 226.489 367.322 226.489 367.322C226.489 367.322 219.084 369.074 221.839 371.208C224.596 373.342 233.671 372.104 237.128 371.005C240.585 369.907 247.045 370.874 247.045 370.874C247.045 370.874 256.625 385.067 281.864 379.773L306.955 382.045" fill="#F0F0F0"/>
<path d="M306.62 356.879L289.761 357.103C289.761 357.103 266.85 349.72 263.849 347.776C260.847 345.832 241.415 355.513 239.059 356.537C236.703 357.559 234.742 359.312 234.742 359.312C234.742 359.312 232.743 361.23 231.017 361.998C229.291 362.765 226.489 367.322 226.489 367.322C226.489 367.322 219.084 369.074 221.839 371.208C224.596 373.342 233.671 372.104 237.128 371.005C240.585 369.907 247.045 370.874 247.045 370.874C247.045 370.874 256.625 385.067 281.864 379.773L306.955 382.045" stroke="#263238" stroke-miterlimit="10" stroke-linecap="round" stroke-linejoin="round"/>
<path d="M226.488 367.321C226.488 367.321 232.886 364.881 235.981 363.518C239.076 362.156 247.826 361.213 247.826 361.213C247.826 361.213 246.815 356.928 250.908 355.386C255.002 353.844 255.624 350.86 255.624 350.86" stroke="#263238" stroke-miterlimit="10" stroke-linecap="round" stroke-linejoin="round"/>
<path d="M234.741 359.311C234.741 359.311 242.969 356.484 244.952 356.458" stroke="#263238" stroke-miterlimit="10" stroke-linecap="round" stroke-linejoin="round"/>
<path opacity="0.3" d="M329.845 346.652C329.835 346.652 329.826 346.643 329.816 346.643C330.527 346.682 331.189 346.799 331.783 346.993C331.92 347.042 332.056 347.081 332.202 347.11C331.228 347.052 330.439 346.906 329.845 346.652Z" fill="black" fill-opacity="0.7"/>
<path opacity="0.3" d="M379.441 335.568C379.441 335.568 357.633 343.029 342.604 345.971C352.471 343.438 366.477 338.071 379.441 335.559V335.568Z" fill="black" fill-opacity="0.7"/>
<path d="M384.19 334.773C363.893 337.522 339.255 349.485 331.782 346.989C324.31 344.494 306.602 355.46 306.602 355.46L296.189 355.599C296.189 355.599 288.48 372.676 293.108 385.047L303.923 386.109C303.923 386.109 303.131 392.953 331.424 394.774C359.717 396.595 412.205 398.751 422.431 380.327" fill="#3985F4"/>
<mask id="mask7_70_7132" style="mask-type:luminance" maskUnits="userSpaceOnUse" x="291" y="334" width="132" height="62">
<path d="M384.19 334.773C363.893 337.522 339.255 349.485 331.782 346.989C324.31 344.494 306.602 355.46 306.602 355.46L296.189 355.599C296.189 355.599 288.48 372.676 293.108 385.047L303.923 386.109C303.923 386.109 303.131 392.953 331.424 394.774C359.717 396.595 412.205 398.751 422.431 380.327" fill="white"/>
</mask>
<g mask="url(#mask7_70_7132)">
<path opacity="0.3" d="M422.434 380.324C412.207 398.752 359.718 396.599 331.423 394.778C303.128 392.956 303.927 386.109 303.927 386.109L295.872 385.32C295.648 378.911 296.359 366.882 304.356 362.792C304.356 362.792 303.011 380.791 304.356 383.333C305.709 385.875 342.712 393.063 362.737 391.135C382.616 389.236 412.109 387.064 418.84 376.048L422.434 380.324Z" fill="black" fill-opacity="0.7"/>
</g>
<path d="M384.19 334.773C363.893 337.522 339.255 349.485 331.782 346.989C324.31 344.494 306.602 355.46 306.602 355.46L296.189 355.599C296.189 355.599 288.48 372.676 293.108 385.047L303.923 386.109C303.923 386.109 303.131 392.953 331.424 394.774C359.717 396.595 412.205 398.751 422.431 380.327" stroke="#263238" stroke-miterlimit="10" stroke-linecap="round" stroke-linejoin="round"/>
<path d="M344.658 345.543C345.218 345.252 350.384 332.418 355.798 331.273" stroke="#263238" stroke-miterlimit="10" stroke-linecap="round" stroke-linejoin="round"/>
<path d="M303.922 386.109C303.91 384.846 300.393 368.367 304.356 362.792" stroke="#263238" stroke-miterlimit="10" stroke-linecap="round" stroke-linejoin="round"/>
<path d="M324.46 292.817C324.46 292.817 329.41 279.202 342.605 277.823" stroke="#263238" stroke-miterlimit="10" stroke-linecap="round" stroke-linejoin="round"/>
<g opacity="0.4">
<path d="M348.251 312.288C348.692 313.926 347.718 315.874 350.64 316.848C357.458 317.822 360.38 322.692 364.276 327.562C366.224 328.536 368.172 329.51 369.67 331.274" stroke="#263238" stroke-miterlimit="10" stroke-linecap="round" stroke-linejoin="round"/>
<path d="M332.202 291.085C337.679 296.111 342.454 302.137 346.215 308.533" stroke="#263238" stroke-miterlimit="10" stroke-linecap="round" stroke-linejoin="round"/>
<path d="M320.164 360.431C317.897 361.167 315.642 361.942 313.414 362.789" stroke="#263238" stroke-miterlimit="10" stroke-linecap="round" stroke-linejoin="round"/>
<path d="M393.588 343.527C373.042 353.86 350.64 352.886 328.238 357.756C327.264 357.756 325.316 358.73 323.997 359.237" stroke="#263238" stroke-miterlimit="10" stroke-linecap="round" stroke-linejoin="round"/>
<path d="M344.658 281.58C353.562 285.68 360.38 293.472 367.198 300.29C374.016 309.056 379.86 318.796 390.574 323.666C393.496 325.614 396.418 328.536 396.418 333.406C397.392 335.354 401.288 337.302 397.591 341.184" stroke="#263238" stroke-miterlimit="10" stroke-linecap="round" stroke-linejoin="round"/>
<path d="M370.98 369.378C351.614 372.366 332.134 378.21 312.208 375.483" stroke="#263238" stroke-miterlimit="10" stroke-linecap="round" stroke-linejoin="round"/>
<path d="M415.138 345.971C418.173 360.668 398.967 363.53 388.757 365.773C384 366.818 379.227 367.791 374.446 368.716" stroke="#263238" stroke-miterlimit="10" stroke-linecap="round" stroke-linejoin="round"/>
<path d="M321.879 389.094C318.174 388.486 314.446 387.636 311.002 386.109" stroke="#263238" stroke-miterlimit="10" stroke-linecap="round" stroke-linejoin="round"/>
<path d="M424.9 366.123C424.664 375.288 415.898 380.158 409.08 382.106C381.808 391.846 353.562 390.872 325.549 389.615" stroke="#263238" stroke-miterlimit="10" stroke-linecap="round" stroke-linejoin="round"/>
<path d="M330.208 319.881C333.723 323.552 338.303 325.391 339.995 330.537C341.03 333.681 342.014 337.53 345.781 338.408" stroke="#263238" stroke-miterlimit="10" stroke-linecap="round" stroke-linejoin="round"/>
<path d="M321.635 305.471C323.1 309.479 325.135 313.367 327.652 316.812" stroke="#263238" stroke-miterlimit="10" stroke-linecap="round" stroke-linejoin="round"/>
</g>
<path d="M242.779 286.907C242.662 286.751 242.526 286.596 242.39 286.44C238.309 281.657 228.403 278.2 225.393 277.235C224.838 277.06 224.517 276.963 224.517 276.963C224.517 276.963 231.403 225.721 264.139 242.24C296.866 258.749 247.279 292.829 242.779 286.907Z" fill="#F0F0F0" stroke="#263238" stroke-miterlimit="10" stroke-linecap="round" stroke-linejoin="round"/>
<path d="M242.39 286.44C238.309 281.657 228.403 278.2 225.394 277.235C225.968 275.687 226.484 274.645 226.484 274.645L255.627 257.083C255.627 257.083 256.425 277.382 242.39 286.44Z" fill="#263238"/>
<path d="M267.352 225.33C266.578 181.284 236.688 149.845 197.416 172.477C165.327 190.97 168.77 226.16 186.449 244.217C196.912 254.903 188.544 265.062 204.928 278.897C210.496 283.599 224.633 288.828 229.55 287.236C246.866 281.628 261.063 262.464 258.519 254.609" fill="#F0F0F0"/>
<path d="M267.352 225.33C266.578 181.284 236.688 149.845 197.416 172.477C165.327 190.97 168.77 226.16 186.449 244.217C196.912 254.903 188.544 265.062 204.928 278.897C210.496 283.599 224.633 288.828 229.55 287.236C246.866 281.628 261.063 262.464 258.519 254.609" stroke="#263238" stroke-miterlimit="10" stroke-linecap="round" stroke-linejoin="round"/>
<path d="M202.234 231.826C202.234 231.826 208.805 223.397 221.719 225.515" stroke="#263238" stroke-miterlimit="10" stroke-linecap="round" stroke-linejoin="round"/>
<path d="M188.384 236.311C188.384 236.311 181.796 233.995 181.191 236.574" stroke="#263238" stroke-miterlimit="10" stroke-linecap="round" stroke-linejoin="round"/>
<path d="M218.07 236.605C218.958 237.836 219.08 239.266 218.341 239.8C217.603 240.333 216.283 239.767 215.394 238.535C214.506 237.304 214.384 235.875 215.124 235.341C215.863 234.809 217.182 235.375 218.07 236.605Z" fill="#263238"/>
<path d="M194.478 244.246C195.366 245.477 195.488 246.907 194.749 247.44C194.01 247.973 192.69 247.407 191.802 246.176C190.914 244.944 190.792 243.515 191.531 242.981C192.27 242.449 193.589 243.015 194.478 244.246Z" fill="#263238"/>
<path d="M195.103 242.236C198.195 244.835 201.998 248.704 198.55 256.122C195.101 263.54 203.603 264.386 208.222 261.24" fill="#F0F0F0"/>
<path d="M195.103 242.236C198.195 244.835 201.998 248.704 198.55 256.122C195.101 263.54 203.603 264.386 208.222 261.24" stroke="#263238" stroke-miterlimit="10" stroke-linecap="round" stroke-linejoin="round"/>
<path d="M211.336 259.932C211.336 259.932 214.339 257.159 209.489 254.23L211.336 259.932Z" fill="#F0F0F0"/>
<path d="M211.336 259.932C211.336 259.932 214.339 257.159 209.489 254.23" stroke="#263238" stroke-miterlimit="10" stroke-linecap="round" stroke-linejoin="round"/>
<path d="M208.885 269.301C209.767 270.769 214.294 268.881 215.615 268.586C215.615 268.586 217.866 267.067 219.163 266.454C220.459 265.842 224.339 263.843 224.514 261.573" fill="#F0F0F0"/>
<path d="M208.885 269.301C209.767 270.769 214.294 268.881 215.615 268.586C215.615 268.586 217.866 267.067 219.163 266.454C220.459 265.842 224.339 263.843 224.514 261.573" stroke="#263238" stroke-miterlimit="10" stroke-linecap="round" stroke-linejoin="round"/>
<path d="M211.977 271.964C216.048 275.931 223.115 271.592 224.515 265.697L211.977 271.964Z" fill="#F0F0F0"/>
<path d="M211.977 271.964C216.048 275.931 223.115 271.592 224.515 265.697" stroke="#263238" stroke-miterlimit="10" stroke-linecap="round" stroke-linejoin="round"/>
<path d="M213.915 160.475C185.685 165.713 170.294 184.685 169.974 201.704C169.974 201.704 159.271 221.759 167.562 236.315C167.562 236.315 167.972 235.81 168.648 235.126C168.286 232.696 168.056 230.246 168.051 227.79C168.065 225.325 168.269 222.861 168.776 220.456C169.334 218.061 170.21 215.751 171.463 213.664C170.38 215.849 169.711 218.184 169.353 220.559C169.048 222.947 169.045 225.353 169.224 227.741C169.391 229.764 169.723 231.768 170.147 233.749C171.701 232.464 173.739 231.217 175.651 231.418C176.522 231.509 177.4 231.521 178.28 231.464C177.88 229.468 177.547 227.46 177.321 225.443C177.084 223.104 176.985 220.757 177.054 218.419C177.172 216.081 177.484 213.759 178.075 211.523C177.772 213.821 177.76 216.122 177.933 218.4C178.156 220.679 178.542 222.929 179.055 225.148C179.543 227.154 180.136 229.13 180.8 231.078C182.909 230.575 185.002 229.612 187.01 228.065C187.599 227.611 188.147 227.308 188.668 227.1C188.517 226.123 188.379 225.144 188.277 224.159C188 221.397 187.813 218.627 187.993 215.86C188.169 213.101 188.612 210.354 189.557 207.805C189.086 210.486 189.153 213.176 189.46 215.813C189.765 218.455 190.423 221.042 191.154 223.583C191.482 224.705 191.853 225.814 192.248 226.915C193.401 227.139 194.531 227.443 195.827 227.162C197.956 226.7 200.127 226.859 202.154 226.03C201.91 225.338 201.652 224.649 201.431 223.949C200.679 221.523 200.113 219.042 199.724 216.542C199.37 214.033 199.28 211.496 199.456 208.989C199.475 211.506 199.762 213.998 200.3 216.435C200.876 218.865 201.618 221.245 202.538 223.557C202.789 224.18 203.073 224.787 203.343 225.401C203.791 225.107 204.231 224.751 204.659 224.3C207.326 221.486 211.257 219.562 213.595 220.756C214.034 220.98 214.556 221.209 215.12 221.411C215.037 221.136 214.94 220.864 214.861 220.589C214.126 218.004 213.522 215.385 213.07 212.747C212.664 210.098 212.437 207.427 212.486 204.77C212.731 207.419 213.248 210.015 213.93 212.559C214.661 215.093 215.532 217.577 216.523 220.01C216.799 220.67 217.1 221.318 217.391 221.972C219.251 222.208 221.034 221.792 221.584 219.765C221.748 219.161 222.032 218.762 222.383 218.496C222.24 218.127 222.096 217.758 221.958 217.384C221.252 215.47 220.659 213.522 220.166 211.556C219.663 209.593 219.28 207.604 219.023 205.607C218.731 203.616 218.654 201.602 218.622 199.612C218.947 201.583 219.313 203.533 219.884 205.429C220.421 207.331 221.075 209.193 221.836 211.003C222.588 212.817 223.428 214.588 224.365 216.299C224.756 217.017 225.171 217.736 225.598 218.441C226.627 218.809 227.444 219.318 227.444 219.318C227.444 219.318 222.426 206.837 223.409 194.808C223.409 194.808 229.453 220.5 247.771 229.856L251.611 236.689C251.611 236.689 258.144 231.329 263.29 236.169C268.435 241.008 270.267 237.722 270.267 237.722C270.267 237.722 278.374 221.898 268.649 191.867C258.921 161.84 236.449 156.294 213.915 160.475Z" fill="#263238"/>
<path d="M259.879 244.911C259.879 244.911 259.511 247.482 262.578 247.688C265.645 247.895 268.248 241.513 269.783 229.878C271.412 217.523 267.629 210.099 260.284 210.029C252.94 209.96 250.931 217.751 250.316 222.254C249.452 228.587 250.782 233.73 250.782 233.73" fill="#F0F0F0"/>
<path d="M259.879 244.911C259.879 244.911 259.511 247.482 262.578 247.688C265.645 247.895 268.248 241.513 269.783 229.878C271.412 217.523 267.629 210.099 260.284 210.029C252.94 209.96 250.931 217.751 250.316 222.254C249.452 228.587 250.782 233.73 250.782 233.73" stroke="#263238" stroke-miterlimit="10" stroke-linecap="round" stroke-linejoin="round"/>
<path d="M265.046 243.285C265.046 244.221 264.287 244.979 263.351 244.979C262.415 244.979 261.656 244.221 261.656 243.285C261.656 242.349 262.415 241.59 263.351 241.59C264.287 241.59 265.046 242.349 265.046 243.285Z" fill="#3985F4" stroke="#263238" stroke-miterlimit="10" stroke-linecap="round" stroke-linejoin="round"/>
<path d="M220.759 263.273C220.759 263.273 216.296 264.401 215.18 264.773C214.064 265.145 212.825 266.875 212.825 266.875C212.825 266.875 210.093 266.94 209.489 268.121" fill="#F0F0F0"/>
<path d="M220.759 263.273C220.759 263.273 216.296 264.401 215.18 264.773C214.064 265.145 212.825 266.875 212.825 266.875C212.825 266.875 210.093 266.94 209.489 268.121" stroke="#263238" stroke-miterlimit="10" stroke-linecap="round" stroke-linejoin="round"/>
<g opacity="0.2">
<path d="M209.489 186.278C209.489 186.278 204.016 197.645 206.376 214.022" stroke="#F0F0F0" stroke-miterlimit="10" stroke-linecap="round" stroke-linejoin="round"/>
<path d="M199.178 186.278C199.178 186.278 187.736 201.043 194.286 222.078" stroke="#F0F0F0" stroke-miterlimit="10" stroke-linecap="round" stroke-linejoin="round"/>
<path d="M181.191 225.173C181.379 224.232 175.598 202.077 185.809 190.517" stroke="#F0F0F0" stroke-miterlimit="10" stroke-linecap="round" stroke-linejoin="round"/>
<path d="M166.351 222.078C166.351 222.078 169.217 200.55 179.729 192.836" stroke="#F0F0F0" stroke-miterlimit="10" stroke-linecap="round" stroke-linejoin="round"/>
<path d="M225.394 186.278C225.394 186.278 237.849 207.278 254.214 206.123" stroke="#F0F0F0" stroke-miterlimit="10" stroke-linecap="round" stroke-linejoin="round"/>
<path d="M231.297 179.785C231.297 179.785 246.905 193.792 260.091 190.517" stroke="#F0F0F0" stroke-miterlimit="10" stroke-linecap="round" stroke-linejoin="round"/>
</g>
</svg>
