<svg width="32" height="32" viewBox="0 0 32 32" fill="none" xmlns="http://www.w3.org/2000/svg">
<path d="M16 31C19.9782 31 23.7936 29.4196 26.6066 26.6066C29.4196 23.7936 31 19.9782 31 16C31 12.0218 29.4196 8.20644 26.6066 5.3934C23.7936 2.58035 19.9782 1 16 1C12.0218 1 8.20644 2.58035 5.3934 5.3934C2.58035 8.20644 1 12.0218 1 16C1 19.9782 2.58035 23.7936 5.3934 26.6066C8.20644 29.4196 12.0218 31 16 31ZM14.5938 21.1562V17.4062H10.8438C10.0645 17.4062 9.4375 16.7793 9.4375 16C9.4375 15.2207 10.0645 14.5938 10.8438 14.5938H14.5938V10.8438C14.5938 10.0645 15.2207 9.4375 16 9.4375C16.7793 9.4375 17.4062 10.0645 17.4062 10.8438V14.5938H21.1562C21.9355 14.5938 22.5625 15.2207 22.5625 16C22.5625 16.7793 21.9355 17.4062 21.1562 17.4062H17.4062V21.1562C17.4062 21.9355 16.7793 22.5625 16 22.5625C15.2207 22.5625 14.5938 21.9355 14.5938 21.1562Z" fill="#0F0F0F"/>
</svg>
