<svg width="32" height="32" viewBox="0 0 32 32" fill="none" xmlns="http://www.w3.org/2000/svg">
<g clip-path="url(#clip0_99_31)">
<path d="M16.0254 25.8057C15.6257 25.792 15.2994 26.11 15.2994 26.5057V27.9633C15.7636 27.9899 16.2364 27.9899 16.7002 27.9633V26.5335C16.7002 26.1452 16.3975 25.8187 16.0254 25.8057ZM25.1825 19.4241C22.0072 19.4241 19.4239 22.0075 19.4239 25.1828C19.4239 28.3581 22.0072 30.9414 25.1825 30.9414C28.3579 30.9414 30.9412 28.3581 30.9412 25.1828C30.9412 22.0074 28.3579 19.4241 25.1825 19.4241ZM24.3335 27.9843H21.3624C21.1736 27.9843 21.0033 27.8705 20.931 27.696C20.8587 27.5215 20.8987 27.3207 21.0322 27.1871L23.1901 25.0292C23.4758 24.7436 23.495 24.2784 23.234 23.9701C22.9013 23.5771 22.2863 23.6066 21.993 24.0306L21.7465 24.3872C21.5998 24.5993 21.3091 24.6525 21.0969 24.5057C20.8847 24.359 20.8317 24.0682 20.9784 23.8561L21.2251 23.4994C21.8677 22.5702 23.2162 22.5039 23.9468 23.3666C24.5193 24.0428 24.477 25.0631 23.8505 25.6895L22.4896 27.0504H24.3335C24.5914 27.0504 24.8004 27.2594 24.8004 27.5173C24.8004 27.7752 24.5914 27.9843 24.3335 27.9843ZM29.4696 26.1166C29.4696 26.3744 29.2606 26.5835 29.0027 26.5835H28.5357V27.5174C28.5357 27.7752 28.3267 27.9843 28.0688 27.9843C27.8109 27.9843 27.6019 27.7753 27.6019 27.5174V26.5835H25.2712C25.089 26.5835 24.9234 26.4774 24.8471 26.3119C24.7709 26.1463 24.798 25.9515 24.9165 25.8129L27.7141 22.5445C27.8412 22.3961 28.0473 22.3425 28.2307 22.4102C28.414 22.4779 28.5358 22.6527 28.5358 22.8482V25.6497H29.0027C29.2606 25.6497 29.4696 25.8587 29.4696 26.1166ZM8.07598 22.9334L7.02979 23.9795C7.34004 24.3286 7.67068 24.6595 8.0202 24.9701L9.06633 23.9239C9.34025 23.6499 9.34037 23.2075 9.06639 22.9334C8.79246 22.6595 8.34996 22.6594 8.07598 22.9334ZM21.1359 16.4669C21.396 16.4669 21.6028 16.2543 21.6028 16C21.6028 15.7426 21.3934 15.5331 21.1359 15.5331H18.2874C18.35 15.8402 18.3501 16.1591 18.2874 16.4669H21.1359Z" fill="#0F0F0F"/>
<path d="M27.602 25.6497V24.1117L26.2856 25.6497H27.602Z" fill="#0F0F0F"/>
<path d="M15.9999 14.5993C15.2275 14.5993 14.5991 15.2277 14.5991 16C14.5991 16.7724 15.2275 17.4007 15.9999 17.4007C16.7722 17.4007 17.4006 16.7723 17.4006 16C17.4006 15.2276 16.7722 14.5993 15.9999 14.5993ZM5.49418 15.2996H4.0366C4.02318 15.5315 4.01562 15.7649 4.01562 16C4.01562 16.2351 4.02307 16.4685 4.03625 16.7004H5.49424C5.88043 16.7004 6.19461 16.3862 6.19461 16C6.19455 15.6138 5.88037 15.2996 5.49418 15.2996ZM15.5329 9.46316V13.7124C15.8401 13.6498 16.159 13.6497 16.4668 13.7124V9.46316C16.4668 9.20307 16.2542 8.99623 15.9999 8.99623C15.7424 8.99623 15.5329 9.20564 15.5329 9.46316ZM9.06646 8.07619L8.03984 7.04957C7.69086 7.36029 7.3601 7.69105 7.04938 8.0401L8.07594 9.0666C8.34986 9.34053 8.79236 9.34064 9.06641 9.06666C9.34039 8.79267 9.34051 8.35017 9.06646 8.07619ZM27.9632 16.7004C27.99 16.2361 27.99 15.7644 27.9632 15.2996H26.5334C26.1451 15.2996 25.8187 15.6023 25.8056 15.9744C25.7918 16.3743 26.1102 16.7004 26.5056 16.7004H27.9632ZM23.9237 9.0666L24.9699 8.02041C24.6593 7.6709 24.3285 7.34025 23.9794 7.03L22.9333 8.07607C22.6594 8.35 22.6593 8.7925 22.9333 9.06654C23.2072 9.34053 23.6497 9.34064 23.9237 9.0666Z" fill="#0F0F0F"/>
<path d="M16.0001 1.05859C12.0191 1.05859 8.26978 2.61555 5.44264 5.44264C2.61555 8.26978 1.05859 12.0191 1.05859 16.0001C1.05865 24.2388 7.76131 30.9414 16 30.9414H16.0118C16.3913 30.9411 16.7004 30.6282 16.7004 30.2439V28.8988C9.3202 29.3052 3.08189 23.4185 3.08189 16C3.08189 8.88824 8.86861 3.08189 16 3.08189C23.3921 3.08189 29.3019 9.28803 28.8985 16.7004H30.2438C30.6282 16.7004 30.9411 16.3913 30.9413 16.0114V16C30.9414 7.76131 24.2388 1.05865 16.0001 1.05859Z" fill="#0F0F0F"/>
<path d="M16.7005 5.49432V4.03633C16.2122 4.00867 15.779 4.00897 15.2998 4.03674V5.49432C15.2998 5.88051 15.614 6.19469 16.0002 6.19469C16.3864 6.19469 16.7005 5.88051 16.7005 5.49432Z" fill="#0F0F0F"/>
</g>
<defs>
<clipPath id="clip0_99_31">
<rect width="30" height="30" fill="white" transform="translate(1 1)"/>
</clipPath>
</defs>
</svg>
