<svg width="32" height="32" viewBox="0 0 32 32" fill="none" xmlns="http://www.w3.org/2000/svg">
<path d="M11.2428 21.997L27.6587 5.5811C28.0461 5.1937 28.5061 5 29.0388 5C29.5715 5 30.0315 5.1937 30.4189 5.5811C30.8063 5.96849 31 6.42853 31 6.9612C31 7.49387 30.8063 7.9539 30.4189 8.3413L12.5987 26.1615C12.2113 26.5489 11.7593 26.7426 11.2428 26.7426C10.7262 26.7426 10.2743 26.5489 9.88688 26.1615L1.55785 17.8325C1.17045 17.4451 0.984827 16.9851 1.00097 16.4524C1.01711 15.9197 1.21888 15.4597 1.60628 15.0723C1.99367 14.6849 2.45371 14.4912 2.98638 14.4912C3.51905 14.4912 3.97908 14.6849 4.36648 15.0723L11.2428 21.997Z" fill="black"/>
</svg>
