<svg width="32" height="32" viewBox="0 0 32 32" fill="none" xmlns="http://www.w3.org/2000/svg">
<path d="M13.9049 11.4419L13.3346 1.65115C13.33 1.56739 13.3425 1.48357 13.3714 1.40481C13.4003 1.32605 13.4449 1.254 13.5025 1.19306C13.5602 1.13212 13.6297 1.08357 13.7067 1.05037C13.7837 1.01718 13.8667 1.00004 13.9506 1H17.1675C17.2514 1.00004 17.3344 1.01718 17.4114 1.05037C17.4885 1.08357 17.5579 1.13212 17.6156 1.19306C17.6732 1.254 17.7179 1.32605 17.7467 1.40481C17.7756 1.48357 17.7881 1.56739 17.7835 1.65115L17.2138 11.4419H13.9049ZM23.0927 13.2935H8.02543C6.95822 13.2948 5.93509 13.7194 5.18046 14.474C4.42583 15.2286 4.00131 16.2518 4 17.319V18.5577H27.1181V17.319C27.1168 16.2518 26.6923 15.2286 25.9377 14.474C25.183 13.7194 24.1599 13.2948 23.0927 13.2935ZM4 31H8.02913V27.0252C8.02913 26.7796 8.12667 26.5442 8.3003 26.3705C8.47392 26.1969 8.7094 26.0994 8.95494 26.0994C9.20048 26.0994 9.43597 26.1969 9.60959 26.3705C9.78321 26.5442 9.88075 26.7796 9.88075 27.0252V31H17.4891V24.0422C17.4891 23.7967 17.5866 23.5612 17.7602 23.3876C17.9339 23.2139 18.1693 23.1164 18.4149 23.1164C18.6604 23.1164 18.8959 23.2139 19.0695 23.3876C19.2432 23.5612 19.3407 23.7967 19.3407 24.0422V30.9994H21.5793V27.622C21.5793 27.3765 21.6769 27.141 21.8505 26.9674C22.0241 26.7938 22.2596 26.6962 22.5051 26.6962C22.7507 26.6962 22.9861 26.7938 23.1598 26.9674C23.3334 27.141 23.4309 27.3765 23.4309 27.622V31H27.1187V20.4093H4V31Z" fill="#0F0F0F"/>
</svg>
