<svg width="32" height="32" viewBox="0 0 32 32" fill="none" xmlns="http://www.w3.org/2000/svg">
<path d="M16 19.1939L4.82129 30.3726C4.40304 30.7909 3.87072 31 3.22433 31C2.57795 31 2.04563 30.7909 1.62738 30.3726C1.20913 29.9544 1 29.4221 1 28.7757C1 28.1293 1.20913 27.597 1.62738 27.1787L12.8061 16L1.62738 4.82129C1.20913 4.40304 1 3.87072 1 3.22433C1 2.57795 1.20913 2.04563 1.62738 1.62738C2.04563 1.20913 2.57795 1 3.22433 1C3.87072 1 4.40304 1.20913 4.82129 1.62738L16 12.8061L27.1787 1.62738C27.597 1.20913 28.1293 1 28.7757 1C29.4221 1 29.9544 1.20913 30.3726 1.62738C30.7909 2.04563 31 2.57795 31 3.22433C31 3.87072 30.7909 4.40304 30.3726 4.82129L19.1939 16L30.3726 27.1787C30.7909 27.597 31 28.1293 31 28.7757C31 29.4221 30.7909 29.9544 30.3726 30.3726C29.9544 30.7909 29.4221 31 28.7757 31C28.1293 31 27.597 30.7909 27.1787 30.3726L16 19.1939Z" fill="#0f0f0f"/>
</svg>
