<svg width="32" height="32" viewBox="0 0 32 32" fill="none" xmlns="http://www.w3.org/2000/svg">
<path d="M27.3253 5.59425C25.8303 4.10975 24.0538 2.93882 22.1001 2.15017C20.1465 1.36153 18.0549 0.971057 15.9483 1.00167C11.9937 0.991784 8.19706 2.55327 5.39372 5.34263C2.59039 8.13199 1.00993 11.9207 1.00005 15.8754C0.99016 19.83 2.55165 23.6266 5.34101 26.4299C8.13036 29.2332 11.9191 30.8137 15.8737 30.8236C16.7259 30.8381 17.5587 30.5692 18.2415 30.0591C18.9243 29.549 19.4184 28.8267 19.6462 28.0054C19.7914 27.4123 19.7899 26.7928 19.6418 26.2004C19.4937 25.608 19.2035 25.0607 18.7963 24.6057C18.7021 24.4986 18.6407 24.3666 18.6192 24.2256C18.5978 24.0846 18.6173 23.9403 18.6754 23.8101C18.7335 23.6798 18.8277 23.5689 18.9469 23.4905C19.0661 23.4122 19.2053 23.3697 19.348 23.3681H21.8083C24.1239 23.3789 26.3578 22.5133 28.0616 20.9451C29.7654 19.3769 30.8127 17.2222 30.9934 14.9136C31.0489 13.1923 30.7522 11.4778 30.1214 9.87527C29.4907 8.27274 28.5392 6.81595 27.3253 5.59425ZM8.38843 19.9982C8.02232 20.247 7.59062 20.3816 7.14797 20.385C6.70533 20.3883 6.27166 20.2602 5.90187 20.0169C5.53207 19.7736 5.24279 19.426 5.07064 19.0182C4.89849 18.6104 4.85122 18.1607 4.93481 17.726C5.01841 17.2913 5.22911 16.8912 5.54023 16.5763C5.85136 16.2614 6.24892 16.046 6.68257 15.9572C7.11623 15.8684 7.56648 15.9103 7.97632 16.0775C8.38616 16.2448 8.73716 16.5299 8.98486 16.8968C9.15085 17.1391 9.26715 17.4119 9.32703 17.6994C9.38691 17.9869 9.38918 18.2835 9.33371 18.5719C9.27825 18.8604 9.16615 19.1349 9.00389 19.3797C8.84163 19.6246 8.63245 19.8348 8.38843 19.9982ZM10.5654 11.8121C10.3533 12.205 10.0284 12.5255 9.63251 12.7322C9.23667 12.9388 8.78802 13.0223 8.34434 12.9718C7.90066 12.9213 7.48225 12.7391 7.14299 12.4487C6.80373 12.1584 6.55916 11.7731 6.44075 11.3425C6.32235 10.912 6.33553 10.4558 6.47862 10.0328C6.6217 9.60982 6.88812 9.23932 7.24359 8.96905C7.59906 8.69877 8.02729 8.54108 8.47315 8.51629C8.91901 8.49149 9.36208 8.60073 9.74532 8.82992C10.2398 9.12567 10.6011 9.60084 10.7539 10.1564C10.9067 10.712 10.8392 11.3051 10.5654 11.8121ZM14.5914 8.45715C14.149 8.45715 13.7166 8.32597 13.3488 8.08021C12.981 7.83444 12.6943 7.48513 12.525 7.07643C12.3557 6.66774 12.3114 6.21802 12.3977 5.78416C12.484 5.35029 12.697 4.95176 13.0098 4.63896C13.3226 4.32616 13.7212 4.11314 14.155 4.02684C14.5889 3.94054 15.0386 3.98483 15.4473 4.15412C15.856 4.3234 16.2053 4.61008 16.4511 4.97789C16.6969 5.34571 16.828 5.77814 16.828 6.22051C16.828 6.8137 16.5924 7.3826 16.1729 7.80205C15.7535 8.2215 15.1846 8.45715 14.5914 8.45715ZM23.1652 9.65003C22.7819 9.87922 22.3389 9.98846 21.893 9.96366C21.4471 9.93887 21.0189 9.78118 20.6635 9.5109C20.308 9.24063 20.0416 8.87013 19.8985 8.44713C19.7554 8.02412 19.7422 7.56797 19.8606 7.13741C19.979 6.70684 20.2236 6.32158 20.5629 6.03122C20.9021 5.74086 21.3205 5.55869 21.7642 5.50818C22.2079 5.45767 22.6565 5.54112 23.0524 5.7478C23.4482 5.95447 23.7731 6.2749 23.9853 6.66783C24.259 7.17485 24.3266 7.76796 24.1738 8.32353C24.021 8.87911 23.6597 9.35428 23.1652 9.65003Z" fill="#0F0F0F"/>
</svg>
