<svg width="32" height="32" viewBox="0 0 32 32" fill="none" xmlns="http://www.w3.org/2000/svg">
<g clip-path="url(#clip0_37_98)">
<path d="M10.9219 2.03711L10.5 2.875H4.875C3.83789 2.875 3 3.71289 3 4.75C3 5.78711 3.83789 6.625 4.875 6.625H27.375C28.4121 6.625 29.25 5.78711 29.25 4.75C29.25 3.71289 28.4121 2.875 27.375 2.875H21.75L21.3281 2.03711C21.0117 1.39844 20.3613 1 19.6523 1H12.5977C11.8887 1 11.2383 1.39844 10.9219 2.03711ZM27.375 8.5H4.875L6.11719 28.3633C6.21094 29.8457 7.44141 31 8.92383 31H23.3262C24.8086 31 26.0391 29.8457 26.1328 28.3633L27.375 8.5Z" fill="#0F0F0F"/>
</g>
<defs>
<clipPath id="clip0_37_98">
<rect width="26.25" height="30" fill="white" transform="translate(3 1)"/>
</clipPath>
</defs>
</svg>
