<svg width="32" height="32" viewBox="0 0 32 32" fill="none" xmlns="http://www.w3.org/2000/svg">
<path d="M19.4597 23.93L17.5234 25.8813V17.4908C17.5234 17.0927 17.3653 16.711 17.0838 16.4295C16.8023 16.148 16.4205 15.9899 16.0225 15.9899C15.6244 15.9899 15.2426 16.148 14.9611 16.4295C14.6796 16.711 14.5215 17.0927 14.5215 17.4908V25.8813L12.5852 23.93C12.4453 23.7901 12.2791 23.6791 12.0963 23.6033C11.9134 23.5276 11.7174 23.4886 11.5195 23.4886C11.3216 23.4886 11.1256 23.5276 10.9428 23.6033C10.7599 23.6791 10.5938 23.7901 10.4538 23.93C10.3139 24.07 10.2029 24.2361 10.1271 24.419C10.0514 24.6018 10.0124 24.7978 10.0124 24.9957C10.0124 25.1936 10.0514 25.3896 10.1271 25.5725C10.2029 25.7553 10.3139 25.9215 10.4538 26.0614L14.9568 30.5644C15.0995 30.701 15.2678 30.8081 15.4521 30.8796C15.6318 30.959 15.826 31 16.0225 31C16.2189 31 16.4132 30.959 16.5928 30.8796C16.7771 30.8081 16.9454 30.701 17.0882 30.5644L21.5911 26.0614C21.8737 25.7788 22.0325 25.3954 22.0325 24.9957C22.0325 24.596 21.8737 24.2127 21.5911 23.93C21.3085 23.6474 20.9251 23.4886 20.5254 23.4886C20.1257 23.4886 19.7423 23.6474 19.4597 23.93ZM25.6588 7.31419C24.7416 5.20682 23.1588 3.45829 21.1529 2.33653C19.147 1.21477 16.8286 0.781673 14.5529 1.1036C12.2773 1.42552 10.17 2.48472 8.55397 4.11887C6.93791 5.75302 5.90224 7.87197 5.60566 10.151C4.1746 10.4937 2.91924 11.3501 2.07796 12.5574C1.23669 13.7647 0.868093 15.239 1.04218 16.7001C1.21626 18.1613 1.9209 19.5077 3.02227 20.4836C4.12365 21.4595 5.54506 21.9969 7.01658 21.9938C7.41466 21.9938 7.79644 21.8356 8.07793 21.5541C8.35942 21.2727 8.51756 20.8909 8.51756 20.4928C8.51756 20.0947 8.35942 19.7129 8.07793 19.4314C7.79644 19.15 7.41466 18.9918 7.01658 18.9918C6.22041 18.9918 5.45685 18.6755 4.89387 18.1126C4.3309 17.5496 4.01462 16.786 4.01462 15.9899C4.01462 15.1937 4.3309 14.4301 4.89387 13.8671C5.45685 13.3042 6.22041 12.9879 7.01658 12.9879C7.41466 12.9879 7.79644 12.8298 8.07793 12.5483C8.35942 12.2668 8.51756 11.885 8.51756 11.4869C8.52139 9.71167 9.1544 7.99526 10.3041 6.64263C11.4539 5.28999 13.0459 4.38871 14.7973 4.0989C16.5487 3.8091 18.3462 4.14953 19.8703 5.05973C21.3945 5.96993 22.5466 7.39095 23.1221 9.07033C23.2079 9.32826 23.3621 9.55805 23.5683 9.73517C23.7745 9.91229 24.0249 10.0301 24.2929 10.076C25.2926 10.2649 26.1989 10.7869 26.8641 11.5568C27.5292 12.3267 27.9141 13.2991 27.9558 14.3157C27.9976 15.3323 27.6939 16.3331 27.0941 17.155C26.4944 17.9768 25.634 18.5714 24.6531 18.8417C24.4619 18.891 24.2823 18.9774 24.1245 19.0961C23.9667 19.2148 23.8338 19.3634 23.7335 19.5335C23.6331 19.7035 23.5673 19.8917 23.5396 20.0872C23.512 20.2827 23.5231 20.4817 23.5724 20.6729C23.6217 20.8641 23.7081 21.0437 23.8268 21.2015C23.9455 21.3593 24.0941 21.4922 24.2642 21.5925C24.4342 21.6929 24.6223 21.7587 24.8179 21.7864C25.0134 21.814 25.2124 21.8029 25.4036 21.7536C26.9832 21.3362 28.3834 20.4147 29.3917 19.1291C30.3999 17.8435 30.9611 16.2639 30.99 14.6304C31.0189 12.9968 30.5138 11.3984 29.5516 10.078C28.5894 8.75753 27.2226 7.78714 25.6588 7.31419Z" fill="#0F0F0F"/>
</svg>
