<svg width="32" height="32" viewBox="0 0 32 32" fill="none" xmlns="http://www.w3.org/2000/svg">
<g clip-path="url(#clip0_99_32)">
<path d="M22.4767 20.8666C25.2583 18.7773 26.8656 15.4516 26.7775 11.9702C26.635 6.37375 22.1481 1.76735 16.5625 1.48282C13.5695 1.32953 10.735 2.3786 8.57359 4.4336C6.41031 6.49 5.21875 9.26547 5.21875 12.25C5.21875 15.6667 6.78438 18.805 9.51391 20.8595C9.77031 21.0527 9.97516 21.3016 10.1312 21.5819C9.43187 22.0436 8.96875 22.8358 8.96875 23.7344V24.2031C8.96875 25.577 10.0502 26.7002 11.4058 26.7742C11.8389 28.9145 13.7341 30.5313 16 30.5313C18.2659 30.5313 20.1611 28.9145 20.5942 26.7742C21.9498 26.7002 23.0312 25.577 23.0312 24.2031V23.7344C23.0312 22.8353 22.5677 22.0431 21.8678 21.5814C22.022 21.303 22.2241 21.0564 22.4767 20.8666ZM16.4673 3.35547C17.4339 3.40469 18.3564 3.61844 19.2184 3.95594L17.2122 5.96219C16.9905 6.18391 16.8944 6.50125 16.9558 6.80875L17.3425 8.74141L16.1875 10.2813C16.0895 10.4116 16.0272 10.5653 16.007 10.7275L15.6409 13.6563H14.0266L13.6502 10.2714C13.6384 10.1617 13.6066 10.0548 13.5573 9.95594L12.4098 7.66188L13.4688 6.25C13.6652 5.98797 13.7111 5.64297 13.5892 5.33922L12.9986 3.86266C14.0913 3.47266 15.2631 3.295 16.4673 3.35547ZM7.09375 12.25C7.09375 9.78485 8.07813 7.49172 9.865 5.79297C10.3122 5.36782 10.7945 4.99516 11.305 4.67735L11.6528 5.54688L10.9098 6.53735C10.4814 7.10922 10.4134 7.86157 10.7331 8.50047L11.8056 10.6455L12.1633 13.8634C12.2688 14.8141 13.0698 15.5313 14.0266 15.5313H15.6409C16.585 15.5313 17.3847 14.8253 17.5014 13.8888L17.837 11.207L18.843 9.86594C19.1627 9.43938 19.2855 8.89516 19.1809 8.37391L18.8931 6.93297L20.958 4.86813C23.2127 6.3925 24.7361 8.91672 24.8866 11.7813H22.6741C21.9597 11.7813 21.3166 12.1783 20.9969 12.8177L20.4587 13.8948L19.3811 14.4334C18.7413 14.7531 18.3438 15.3958 18.3438 16.1106V17.4869C18.3438 17.9875 18.5387 18.4586 18.8931 18.813L20.4292 20.3491C20.2572 20.6017 20.1053 20.8694 19.9909 21.1567H12.0086C11.725 20.4447 11.2548 19.8236 10.6422 19.3623C8.38703 17.6645 7.09375 15.0723 7.09375 12.25ZM16 28.6563C14.778 28.6563 13.735 27.8725 13.3483 26.7813H18.6517C18.265 27.8725 17.222 28.6563 16 28.6563ZM21.1562 24.2031C21.1562 24.5908 20.8408 24.9063 20.4531 24.9063H11.5469C11.1592 24.9063 10.8438 24.5908 10.8438 24.2031V23.7344C10.8438 23.3467 11.1592 23.0313 11.5469 23.0313H20.4531C20.8408 23.0313 21.1562 23.3467 21.1562 23.7344V24.2031ZM21.7666 19.0347L20.2188 17.4864V16.1106L21.5758 15.4323C21.7572 15.3414 21.9044 15.1942 21.9953 15.0128L22.6731 13.6563H24.7919C24.4563 15.7394 23.3889 17.6561 21.7666 19.0347ZM29.5938 11.3125H28.6562C28.1388 11.3125 27.7188 11.7325 27.7188 12.25C27.7188 12.7675 28.1388 13.1875 28.6562 13.1875H29.5938C30.1112 13.1875 30.5312 12.7675 30.5312 12.25C30.5312 11.7325 30.1112 11.3125 29.5938 11.3125ZM27.6934 8.34438C27.813 8.34438 27.9348 8.32141 28.052 8.27266L28.9183 7.9136C29.3969 7.71532 29.6237 7.16688 29.4255 6.68875C29.2272 6.21063 28.6783 5.98329 28.2006 6.18157L27.3344 6.54063C26.8558 6.73891 26.6289 7.28735 26.8272 7.76547C26.9767 8.12641 27.3255 8.34438 27.6934 8.34438ZM24.9498 4.23813C25.1898 4.23813 25.4294 4.14672 25.6127 3.96344L26.2755 3.30063C26.6416 2.93454 26.6416 2.3411 26.2755 1.975C25.9094 1.60891 25.3159 1.60891 24.9498 1.975L24.287 2.63782C23.9209 3.00391 23.9209 3.59735 24.287 3.96344C24.4698 4.14625 24.7098 4.23813 24.9498 4.23813ZM6.38828 3.9625C6.57156 4.14579 6.81109 4.23719 7.05109 4.23719C7.29109 4.23719 7.53062 4.14579 7.71391 3.9625C8.08 3.59641 8.08 3.00297 7.71391 2.63688L7.05109 1.97407C6.685 1.60797 6.09156 1.60797 5.72547 1.97407C5.35938 2.34016 5.35938 2.9336 5.72547 3.29969L6.38828 3.9625ZM3.08219 7.91266L3.94844 8.27172C4.06562 8.32047 4.1875 8.34344 4.30703 8.34344C4.675 8.34344 5.02375 8.12547 5.17375 7.76454C5.37203 7.28594 5.14469 6.73797 4.66656 6.53969L3.80031 6.18063C3.32172 5.98282 2.77375 6.20969 2.57547 6.68782C2.37672 7.16594 2.60406 7.71438 3.08219 7.91266ZM4.28125 12.2486C4.28125 11.7311 3.86125 11.3111 3.34375 11.3111H2.40625C1.88875 11.3111 1.46875 11.7311 1.46875 12.2486C1.46875 12.7661 1.88875 13.1861 2.40625 13.1861H3.34375C3.86125 13.1861 4.28125 12.7666 4.28125 12.2486ZM3.94797 16.2259L3.08172 16.5845C2.60359 16.7828 2.37672 17.3313 2.57453 17.8094C2.72359 18.1708 3.07281 18.3883 3.44125 18.3883C3.56078 18.3883 3.68219 18.3653 3.79984 18.3166L4.66609 17.958C5.14469 17.7602 5.37156 17.2117 5.17328 16.7331C4.975 16.255 4.4275 16.0272 3.94797 16.2259Z" fill="#0F0F0F"/>
<path d="M6.38758 20.5352L5.72477 21.1984C5.35867 21.5645 5.35867 22.1584 5.72477 22.5245C5.90805 22.7074 6.14758 22.7988 6.38758 22.7988C6.62758 22.7988 6.86758 22.7074 7.05039 22.5241L7.7132 21.8608C8.0793 21.4947 8.0793 20.9013 7.7132 20.5347C7.34711 20.1695 6.75273 20.1691 6.38758 20.5352ZM25.612 20.5361C25.2459 20.17 24.6524 20.17 24.2863 20.5361C23.9202 20.9022 23.9202 21.4956 24.2863 21.8622L24.9491 22.5255C25.1324 22.7088 25.372 22.8002 25.612 22.8002C25.852 22.8002 26.0915 22.7088 26.2748 22.5259C26.6409 22.1599 26.6409 21.5664 26.2748 21.1999L25.612 20.5361ZM28.918 16.5859L28.0518 16.2274C27.5718 16.0281 27.0243 16.2564 26.827 16.735C26.6287 17.2136 26.856 17.7616 27.3341 17.9599L28.2004 18.3184C28.318 18.3672 28.4395 18.3902 28.559 18.3902C28.927 18.3902 29.2762 18.1722 29.4257 17.8113C29.623 17.3322 29.3962 16.7838 28.918 16.5859Z" fill="#0F0F0F"/>
</g>
<defs>
<clipPath id="clip0_99_32">
<rect width="30" height="30" fill="white" transform="translate(1 1)"/>
</clipPath>
</defs>
</svg>
