<svg width="32" height="32" viewBox="0 0 32 32" fill="none" xmlns="http://www.w3.org/2000/svg">
<path d="M5.4987 25.0017H11.8569C12.0542 25.0029 12.2498 24.9651 12.4325 24.8904C12.6152 24.8158 12.7814 24.7058 12.9215 24.5669L23.2985 14.1749L27.5573 10.0061C27.6979 9.86668 27.8094 9.70083 27.8855 9.51809C27.9617 9.33536 28.0009 9.13936 28.0009 8.9414C28.0009 8.74343 27.9617 8.54743 27.8855 8.3647C27.8094 8.18196 27.6979 8.01611 27.5573 7.8767L21.1991 1.44357C21.0597 1.30302 20.8939 1.19146 20.7112 1.11533C20.5284 1.0392 20.3324 1 20.1345 1C19.9365 1 19.7405 1.0392 19.5578 1.11533C19.375 1.19146 19.2092 1.30302 19.0698 1.44357L14.841 5.68734L4.434 16.0793C4.29502 16.2194 4.18507 16.3856 4.11044 16.5683C4.03582 16.751 3.99799 16.9467 3.99913 17.144V23.5022C3.99913 23.8999 4.15712 24.2813 4.43834 24.5625C4.71957 24.8438 5.10099 25.0017 5.4987 25.0017ZM20.1345 4.62265L24.3782 8.86642L22.2488 10.9958L18.0051 6.75203L20.1345 4.62265ZM6.99826 17.7588L15.8907 8.86642L20.1345 13.1102L11.242 22.0026H6.99826V17.7588ZM29.4917 28.0009H2.49957C2.10186 28.0009 1.72044 28.1589 1.43921 28.4401C1.15799 28.7213 1 29.1027 1 29.5004C1 29.8981 1.15799 30.2796 1.43921 30.5608C1.72044 30.842 2.10186 31 2.49957 31H29.4917C29.8894 31 30.2709 30.842 30.5521 30.5608C30.8333 30.2796 30.9913 29.8981 30.9913 29.5004C30.9913 29.1027 30.8333 28.7213 30.5521 28.4401C30.2709 28.1589 29.8894 28.0009 29.4917 28.0009Z" fill="#0F0F0F"/>
</svg>
