<svg width="32" height="32" viewBox="0 0 32 32" fill="none" xmlns="http://www.w3.org/2000/svg">
<path d="M16.1408 5.98959L3.98975 18.1406C2.68766 19.4427 2.68766 21.5521 3.98975 22.8542L8.15641 27.0208C8.78141 27.6458 9.63037 27.9948 10.5158 27.9948H16.0002H16.4897H27.6668C28.5887 27.9948 29.3335 27.25 29.3335 26.3281C29.3335 25.4063 28.5887 24.6615 27.6668 24.6615H21.2033L28.0106 17.8594C29.3127 16.5573 29.3127 14.4479 28.0106 13.1458L20.8595 5.98959C19.5575 4.68751 17.4481 4.68751 16.146 5.98959H16.1408ZM16.4897 24.6667H16.0002H10.5106L6.34391 20.5L12.8387 14.0052L19.995 21.1615L16.4897 24.6667Z" fill="#0F0F0F"/>
</svg>
