<svg width="40" height="40" viewBox="0 0 40 40" fill="none" xmlns="http://www.w3.org/2000/svg">
<g clip-path="url(#clip0_72_7771)">
<path d="M19.9975 0C8.95501 0 1.15412e-05 8.99 1.15412e-05 20.08C-0.00450001 24.2889 1.3138 28.3927 3.76859 31.8116C6.22338 35.2304 9.69053 37.7914 13.68 39.1325C14.68 39.3175 15.045 38.6975 15.045 38.165C15.045 37.6875 15.0275 36.425 15.0175 34.75C9.45501 35.9625 8.28001 32.0575 8.28001 32.0575C7.37251 29.7375 6.06001 29.12 6.06001 29.12C4.24251 27.875 6.19501 27.9 6.19501 27.9C8.20251 28.0425 9.25751 29.97 9.25751 29.97C11.0425 33.0375 13.94 32.1525 15.08 31.6375C15.26 30.34 15.7775 29.455 16.35 28.9525C11.91 28.445 7.24001 26.7225 7.24001 19.03C7.24001 16.8375 8.02001 15.045 9.30001 13.64C9.09251 13.1325 8.40751 11.09 9.49501 8.3275C9.49501 8.3275 11.175 7.7875 14.995 10.385C16.6269 9.93903 18.3108 9.71204 20.0025 9.71C21.6943 9.71336 23.3782 9.94118 25.01 10.3875C28.8275 7.79 30.505 8.33 30.505 8.33C31.595 11.095 30.91 13.135 30.705 13.6425C31.9875 15.0475 32.76 16.84 32.76 19.0325C32.76 26.745 28.085 28.4425 23.63 28.94C24.3475 29.56 24.9875 30.785 24.9875 32.6575C24.9875 35.3425 24.9625 37.5075 24.9625 38.165C24.9625 38.7025 25.3225 39.3275 26.3375 39.13C30.3231 37.7857 33.786 35.2238 36.2373 31.8058C38.6887 28.3877 40.0049 24.2862 40 20.08C40 8.99 31.045 0 19.9975 0Z" fill="#0F0F0F"/>
</g>
<defs>
<clipPath id="clip0_72_7771">
<rect width="40" height="40" fill="white"/>
</clipPath>
</defs>
</svg>
