<svg width="32" height="32" viewBox="0 0 32 32" fill="none" xmlns="http://www.w3.org/2000/svg">
<g clip-path="url(#clip0_37_107)">
<path d="M30.9896 16.3073C30.9896 17.2448 30.2083 17.9792 29.3229 17.9792H27.6562L27.6927 26.3229C27.6927 26.4635 27.6823 26.6042 27.6667 26.7448V27.5833C27.6667 28.7344 26.7344 29.6667 25.5833 29.6667H24.75C24.6927 29.6667 24.6354 29.6667 24.5781 29.6615C24.5052 29.6667 24.4323 29.6667 24.3594 29.6667H22.6667H21.4167C20.2656 29.6667 19.3333 28.7344 19.3333 27.5833V26.3333V23C19.3333 22.0781 18.5885 21.3333 17.6667 21.3333H14.3333C13.4115 21.3333 12.6667 22.0781 12.6667 23V26.3333V27.5833C12.6667 28.7344 11.7344 29.6667 10.5833 29.6667H9.33333H7.67188C7.59375 29.6667 7.51562 29.6615 7.4375 29.6562C7.375 29.6615 7.3125 29.6667 7.25 29.6667H6.41667C5.26562 29.6667 4.33333 28.7344 4.33333 27.5833V21.75C4.33333 21.7031 4.33333 21.651 4.33854 21.6042V17.9792H2.66667C1.72917 17.9792 1 17.25 1 16.3073C1 15.8385 1.15625 15.4219 1.52083 15.0573L14.875 3.41667C15.2396 3.05208 15.6562 3 16.0208 3C16.3854 3 16.8021 3.10417 17.1146 3.36458L30.4167 15.0573C30.8333 15.4219 31.0417 15.8385 30.9896 16.3073Z" fill="#0F0F0F"/>
</g>
<defs>
<clipPath id="clip0_37_107">
<rect width="30" height="26.6667" fill="white" transform="translate(1 3)"/>
</clipPath>
</defs>
</svg>
