<svg width="32" height="32" viewBox="0 0 32 32" fill="none" xmlns="http://www.w3.org/2000/svg">
<path d="M30.5775 8.55506C30.4448 8.4212 30.2868 8.31495 30.1128 8.24244C29.9387 8.16993 29.7521 8.1326 29.5635 8.1326C29.375 8.1326 29.1883 8.16993 29.0143 8.24244C28.8403 8.31495 28.6823 8.4212 28.5495 8.55506L26.7072 10.4117V2.42818C26.7072 2.0494 26.5567 1.68614 26.2889 1.4183C26.0211 1.15047 25.6578 1 25.279 1C24.9002 1 24.537 1.15047 24.2691 1.4183C24.0013 1.68614 23.8508 2.0494 23.8508 2.42818V10.4117L22.0085 8.55506C21.7396 8.28613 21.3748 8.13504 20.9945 8.13504C20.6142 8.13504 20.2494 8.28613 19.9805 8.55506C19.7115 8.82399 19.5605 9.18874 19.5605 9.56906C19.5605 9.94939 19.7115 10.3141 19.9805 10.5831L24.265 14.8676C24.4008 14.9976 24.561 15.0995 24.7363 15.1675C24.9073 15.2431 25.0921 15.2821 25.279 15.2821C25.4659 15.2821 25.6508 15.2431 25.8217 15.1675C25.997 15.0995 26.1572 14.9976 26.293 14.8676L30.5775 10.5831C30.7114 10.4503 30.8177 10.2923 30.8902 10.1183C30.9627 9.94427 31 9.7576 31 9.56906C31 9.38053 30.9627 9.19386 30.8902 9.01982C30.8177 8.84578 30.7114 8.68782 30.5775 8.55506ZM25.279 18.1381C24.9002 18.1381 24.537 18.2886 24.2691 18.5564C24.0013 18.8243 23.8508 19.1875 23.8508 19.5663V20.109L21.7371 17.9953C20.9908 17.2549 19.9821 16.8394 18.9308 16.8394C17.8794 16.8394 16.8707 17.2549 16.1244 17.9953L15.1247 18.995L11.5828 15.4532C10.826 14.7328 9.82123 14.331 8.77642 14.331C7.73162 14.331 6.72682 14.7328 5.97006 15.4532L3.85635 17.5669V9.56906C3.85635 9.19029 4.00682 8.82702 4.27466 8.55919C4.54249 8.29135 4.90576 8.14089 5.28453 8.14089H16.7099C17.0887 8.14089 17.452 7.99042 17.7198 7.72258C17.9877 7.45475 18.1381 7.09148 18.1381 6.71271C18.1381 6.33393 17.9877 5.97067 17.7198 5.70284C17.452 5.435 17.0887 5.28453 16.7099 5.28453H5.28453C4.1482 5.28453 3.05842 5.73594 2.25491 6.53944C1.4514 7.34295 1 8.43273 1 9.56906V26.7072C1 27.8435 1.4514 28.9333 2.25491 29.7368C3.05842 30.5403 4.1482 30.9917 5.28453 30.9917H22.4227C23.559 30.9917 24.6488 30.5403 25.4523 29.7368C26.2558 28.9333 26.7072 27.8435 26.7072 26.7072V19.5663C26.7072 19.1875 26.5567 18.8243 26.2889 18.5564C26.0211 18.2886 25.6578 18.1381 25.279 18.1381ZM5.28453 28.1354C4.90576 28.1354 4.54249 27.9849 4.27466 27.7171C4.00682 27.4492 3.85635 27.086 3.85635 26.7072V21.6086L7.99807 17.4669C8.20788 17.2669 8.4866 17.1554 8.77642 17.1554C9.06625 17.1554 9.34496 17.2669 9.55478 17.4669L14.0821 21.9942L20.2233 28.1354H5.28453ZM23.8508 26.7072C23.8488 26.9806 23.7586 27.246 23.5938 27.4641L17.1527 20.9945L18.1524 19.9948C18.2548 19.8903 18.377 19.8072 18.5119 19.7506C18.6468 19.6939 18.7916 19.6647 18.9379 19.6647C19.0842 19.6647 19.229 19.6939 19.3639 19.7506C19.4988 19.8072 19.621 19.8903 19.7234 19.9948L23.8508 24.1507V26.7072Z" fill="#0F0F0F"/>
</svg>
