<svg width="32" height="32" viewBox="0 0 32 32" fill="none" xmlns="http://www.w3.org/2000/svg">
<path d="M27.4682 2H4.53182C2.58437 2 1 3.58412 1 5.53157V26.8828C1 28.8302 2.58437 30.4144 4.53182 30.4144H27.4682C29.4156 30.4144 31 28.8302 31 26.8828V5.53182C31.0002 3.58437 29.4156 2 27.4682 2ZM29.4853 26.8828C29.4853 27.9948 28.5804 28.8994 27.4684 28.8994H4.53182C3.41986 28.8994 2.51493 27.9948 2.51493 26.8828V10.8177H29.4853V26.8828ZM29.4853 9.30274H2.51493V5.53182C2.51493 4.41986 3.41986 3.51519 4.53182 3.51519H27.4682C28.5801 3.51519 29.4851 4.41986 29.4851 5.53182L29.4853 9.30274Z" fill="#0F0F0F"/>
<path d="M4.8291 5.86813H7.03434V7.38307H4.8291V5.86813ZM8.39627 5.86813H10.6015V7.38307H8.39627V5.86813ZM11.9634 5.86813H14.1687V7.38307H11.9634V5.86813ZM15.9374 18.1012C17.2059 18.1012 18.2764 17.2453 18.6069 16.0813H25.1532V14.5664H18.6069C18.2764 13.4024 17.2059 12.5465 15.9374 12.5465C14.6689 12.5465 13.5983 13.4024 13.2678 14.5664H6.72151V16.0813H13.2678C13.5983 17.2453 14.6689 18.1012 15.9374 18.1012ZM15.9374 14.0614C16.6332 14.0614 17.1998 14.6277 17.1998 15.3239C17.1998 16.02 16.6332 16.5863 15.9374 16.5863C15.2412 16.5863 14.6749 16.02 14.6749 15.3239C14.6749 14.6277 15.2412 14.0614 15.9374 14.0614Z" fill="#0F0F0F"/>
<path d="M11.3079 22.8985C12.5764 22.8985 13.647 22.0426 13.9775 20.8786H25.1529V19.3637H13.9775C13.6467 18.1997 12.5764 17.3438 11.3079 17.3438C10.0394 17.3438 8.96885 18.1997 8.63834 19.3637H6.72119V20.8786H8.63834C8.96885 22.0426 10.0394 22.8985 11.3079 22.8985ZM11.3079 18.8587C12.004 18.8587 12.5704 19.425 12.5704 20.1211C12.5704 20.8172 12.004 21.3836 11.3079 21.3836C10.6118 21.3836 10.0455 20.8172 10.0455 20.1211C10.0455 19.425 10.6118 18.8587 11.3079 18.8587ZM20.4816 27.6958C21.7504 27.6958 22.8207 26.8399 23.1514 25.6759H25.1531V24.161H23.1514C22.8204 22.997 21.7504 22.141 20.4816 22.141C19.2133 22.141 18.1425 22.997 17.8123 24.161H6.72119V25.6759H17.812C18.1425 26.8399 19.2131 27.6958 20.4816 27.6958ZM20.4816 23.656C21.178 23.656 21.744 24.2223 21.744 24.9184C21.744 25.6145 21.178 26.1809 20.4816 26.1809C19.7857 26.1809 19.2192 25.6145 19.2192 24.9184C19.2192 24.2223 19.7857 23.656 20.4816 23.656Z" fill="#0F0F0F"/>
</svg>
