<svg width="40" height="40" viewBox="0 0 40 40" fill="none" xmlns="http://www.w3.org/2000/svg">
<path d="M35.1508 2.24316H4.46957C3.00037 2.24316 1.80957 3.39756 1.80957 4.82236V35.6628C1.80957 37.0876 3.00077 38.2432 4.46957 38.2432H35.1508C36.62 38.2432 37.8092 37.0872 37.8092 35.6628V4.82236C37.8092 3.39796 36.62 2.24316 35.1508 2.24316ZM12.7236 32.3776H7.28437V16.124H12.7236V32.3776ZM10.0044 13.9036H9.96797C8.14397 13.9036 6.96157 12.656 6.96157 11.0944C6.96157 9.50116 8.17877 8.28756 10.0388 8.28756C11.8992 8.28756 13.0436 9.50076 13.0796 11.0944C13.0796 12.6564 11.8996 13.9036 10.0044 13.9036ZM32.3308 32.3776H26.8932V23.6816C26.8932 21.496 26.1052 20.0052 24.1388 20.0052C22.6344 20.0052 21.7416 21.0112 21.3496 21.982C21.204 22.3292 21.1684 22.814 21.1684 23.2988V32.3772H15.7316C15.7316 32.3772 15.8028 17.648 15.7316 16.1236H21.1688V18.428C21.8908 17.3208 23.1804 15.7412 26.0684 15.7412C29.6472 15.7412 32.3308 18.0628 32.3308 23.0576V32.3776ZM21.1336 18.4796C21.1432 18.4644 21.156 18.4456 21.1688 18.428V18.4796H21.1336Z" fill="#0F0F0F"/>
</svg>
