<svg width="32" height="32" viewBox="0 0 32 32" fill="none" xmlns="http://www.w3.org/2000/svg">
<path d="M1 7.64445V6.875C1 6.37772 1.19754 5.90081 1.54917 5.54917C1.90081 5.19754 2.37772 5 2.875 5H29.125C29.6223 5 30.0992 5.19754 30.4508 5.54917C30.8025 5.90081 31 6.37772 31 6.875V7.64445L16 17.0195L1 7.64445ZM16.4969 18.9202C16.3478 19.0133 16.1757 19.0626 16 19.0626C15.8243 19.0626 15.6522 19.0133 15.5031 18.9202L1 9.85555V25.625C1 26.1223 1.19754 26.5992 1.54917 26.9508C1.90081 27.3025 2.37772 27.5 2.875 27.5H29.125C29.6223 27.5 30.0992 27.3025 30.4508 26.9508C30.8025 26.5992 31 26.1223 31 25.625V9.85555L16.4969 18.9202Z" fill="#0F0F0F"/>
</svg>
