<svg width="32" height="32" viewBox="0 0 32 32" fill="none" xmlns="http://www.w3.org/2000/svg">
<g clip-path="url(#clip0_37_134)">
<path d="M22.252 2.13086L19.4161 4.9668L27.0333 12.584L29.8692 9.74805C31.3341 8.2832 31.3341 5.91016 29.8692 4.44531L27.5606 2.13086C26.0958 0.666016 23.7227 0.666016 22.2579 2.13086H22.252ZM18.0919 6.29102L4.43368 19.9551C3.8243 20.5645 3.37899 21.3203 3.13289 22.1465L1.05868 29.1953C0.912192 29.6934 1.04696 30.2266 1.41024 30.5898C1.77352 30.9531 2.30672 31.0879 2.79891 30.9473L9.84774 28.873C10.6739 28.627 11.4298 28.1816 12.0391 27.5723L25.7091 13.9082L18.0919 6.29102Z" fill="#0F0F0F"/>
</g>
<defs>
<clipPath id="clip0_37_134">
<rect width="30" height="30" fill="white" transform="translate(1 1)"/>
</clipPath>
</defs>
</svg>
