<svg width="32" height="32" viewBox="0 0 32 32" fill="none" xmlns="http://www.w3.org/2000/svg">
<path d="M28.4675 6.49296H3.53247C2.12987 6.49296 1 5.26761 1 3.74648C1 2.22535 2.12987 1 3.53247 1H28.4675C29.8701 1 31 2.22535 31 3.74648C31 5.26761 29.8701 6.49296 28.4675 6.49296ZM31 16C31 14.4789 29.8701 13.2535 28.4675 13.2535H3.53247C2.12987 13.2535 1 14.4789 1 16C1 17.5211 2.12987 18.7465 3.53247 18.7465H28.4675C29.8701 18.7465 31 17.5211 31 16ZM31 28.2535C31 26.7324 29.8701 25.507 28.4675 25.507H3.53247C2.12987 25.507 1 26.7324 1 28.2535C1 29.7746 2.12987 31 3.53247 31H28.4675C29.8701 31 31 29.7746 31 28.2535Z" fill="black"/>
</svg>
