<svg width="32" height="32" viewBox="0 0 32 32" fill="none" xmlns="http://www.w3.org/2000/svg">
<path d="M30.7755 15.0487C30.6566 14.742 30.4783 14.4619 30.2509 14.2243L17.7612 1.73462C17.5283 1.50172 17.2518 1.31697 16.9475 1.19092C16.6432 1.06488 16.317 1 15.9876 1C15.3224 1 14.6845 1.26425 14.2141 1.73462C13.9812 1.96753 13.7965 2.24403 13.6704 2.54833C13.5444 2.85263 13.4795 3.17879 13.4795 3.50816C13.4795 4.17337 13.7437 4.81133 14.2141 5.2817L22.4573 13.4999H3.49794C2.83545 13.4999 2.20009 13.7631 1.73163 14.2316C1.26318 14.7 1 15.3354 1 15.9979C1 16.6604 1.26318 17.2957 1.73163 17.7642C2.20009 18.2326 2.83545 18.4958 3.49794 18.4958H22.4573L14.2141 26.714C13.98 26.9463 13.7941 27.2225 13.6673 27.5269C13.5405 27.8313 13.4752 28.1578 13.4752 28.4876C13.4752 28.8173 13.5405 29.1438 13.6673 29.4482C13.7941 29.7526 13.98 30.0289 14.2141 30.2611C14.4463 30.4952 14.7226 30.6811 15.027 30.8079C15.3314 30.9347 15.6579 31 15.9876 31C16.3174 31 16.6439 30.9347 16.9483 30.8079C17.2527 30.6811 17.529 30.4952 17.7612 30.2611L30.2509 17.7714C30.4783 17.5338 30.6566 17.2537 30.7755 16.9471C31.0253 16.3389 31.0253 15.6568 30.7755 15.0487Z" fill="#0F0F0F"/>
</svg>
