<svg width="32" height="32" viewBox="0 0 32 32" fill="none" xmlns="http://www.w3.org/2000/svg">
<path d="M28.4649 13.4999H9.50552L17.7487 5.2817C18.2191 4.81133 18.4833 4.17337 18.4833 3.50816C18.4833 2.84296 18.2191 2.205 17.7487 1.73462C17.2783 1.26425 16.6404 1 15.9752 1C15.31 1 14.672 1.26425 14.2016 1.73462L1.71195 14.2243C1.48453 14.4619 1.30627 14.742 1.18738 15.0487C0.93754 15.6568 0.93754 16.3389 1.18738 16.9471C1.30627 17.2537 1.48453 17.5338 1.71195 17.7714L14.2016 30.2611C14.4339 30.4952 14.7101 30.6811 15.0145 30.8079C15.3189 30.9347 15.6454 31 15.9752 31C16.3049 31 16.6314 30.9347 16.9358 30.8079C17.2402 30.6811 17.5165 30.4952 17.7487 30.2611C17.9828 30.0289 18.1687 29.7526 18.2955 29.4482C18.4223 29.1438 18.4876 28.8173 18.4876 28.4876C18.4876 28.1578 18.4223 27.8313 18.2955 27.5269C18.1687 27.2225 17.9828 26.9463 17.7487 26.714L9.50552 18.4958H28.4649C29.1274 18.4958 29.7627 18.2326 30.2312 17.7642C30.6996 17.2957 30.9628 16.6604 30.9628 15.9979C30.9628 15.3354 30.6996 14.7 30.2312 14.2316C29.7627 13.7631 29.1274 13.4999 28.4649 13.4999Z" fill="#0F0F0F"/>
</svg>
