<svg width="32" height="32" viewBox="0 0 32 32" fill="none" xmlns="http://www.w3.org/2000/svg">
<path d="M25.6155 13.8888C22.8485 11.4807 19.2588 10 15.2953 10C9.07321 10 3.71865 13.6196 1.17598 18.8694C0.697358 19.8715 1.23581 21.0681 2.29774 21.4271C3.1802 21.7262 4.13744 21.3074 4.54128 20.4698C6.48567 16.4913 10.5689 13.7392 15.2953 13.7392C18.2119 13.7392 20.8742 14.8161 22.9532 16.5511L20.0964 19.4079C19.1542 20.3502 19.8123 21.9655 21.1434 21.9655H29.5043C30.3269 21.9655 31 21.2924 31 20.4698V12.1089C31 10.7778 29.3847 10.1047 28.4424 11.047L25.6155 13.8888Z" fill="#0F0F0F"/>
</svg>
