<svg width="32" height="32" viewBox="0 0 32 32" fill="none" xmlns="http://www.w3.org/2000/svg">
<path d="M12.9413 16.7092L18.3964 20.8008C18.7146 21.0395 18.925 21.3948 18.9813 21.7886C19.0375 22.1824 18.935 22.5824 18.6964 22.9007C18.4577 23.2189 18.1024 23.4293 17.7086 23.4855C17.3148 23.5418 16.9148 23.4393 16.5965 23.2006L11.485 19.367C10.6918 20.0703 9.67581 20.471 8.6161 20.4984C7.5564 20.5258 6.52103 20.1782 5.69254 19.5169C4.86406 18.8556 4.29566 17.923 4.08756 16.8836C3.87946 15.8441 4.04503 14.7646 4.55506 13.8353C5.0651 12.906 5.88686 12.1866 6.87545 11.804C7.86405 11.4214 8.95599 11.4 9.95877 11.7438C10.9615 12.0875 11.8108 12.7743 12.3567 13.683C12.9026 14.5917 13.1102 15.6639 12.9428 16.7107L12.9413 16.7092ZM20.5082 8.86781L15.3966 12.7015C15.0784 12.9402 14.6784 13.0427 14.2846 12.9864C13.8908 12.9301 13.5355 12.7198 13.2968 12.4015C13.0581 12.0833 12.9557 11.6833 13.0119 11.2895C13.0682 10.8957 13.2785 10.5404 13.5968 10.3017L19.0518 6.21003C18.8845 5.16327 19.0921 4.09102 19.638 3.18234C20.1839 2.27366 21.0331 1.58691 22.0359 1.24315C23.0387 0.899397 24.1306 0.92072 25.1192 1.30336C26.1078 1.686 26.9296 2.40538 27.4396 3.33468C27.9496 4.26398 28.1152 5.34351 27.9071 6.38295C27.699 7.42238 27.1306 8.35497 26.3021 9.01629C25.4736 9.67761 24.4383 10.0252 23.3786 9.99775C22.3189 9.97032 21.3029 9.56962 20.5097 8.86631L20.5082 8.86781ZM23.496 7.00197C23.8938 7.00197 24.2753 6.84395 24.5565 6.56266C24.8378 6.28138 24.9958 5.89988 24.9958 5.50209C24.9958 5.1043 24.8378 4.7228 24.5565 4.44152C24.2753 4.16024 23.8938 4.00221 23.496 4.00221C23.0982 4.00221 22.7167 4.16024 22.4354 4.44152C22.1541 4.7228 21.9961 5.1043 21.9961 5.50209C21.9961 5.89988 22.1541 6.28138 22.4354 6.56266C22.7167 6.84395 23.0982 7.00197 23.496 7.00197ZM23.496 31C22.3026 31 21.1581 30.5259 20.3143 29.6821C19.4704 28.8382 18.9963 27.6937 18.9963 26.5004C18.9963 25.307 19.4704 24.1625 20.3143 23.3186C21.1581 22.4748 22.3026 22.0007 23.496 22.0007C24.6893 22.0007 25.8338 22.4748 26.6777 23.3186C27.5215 24.1625 27.9956 25.307 27.9956 26.5004C27.9956 27.6937 27.5215 28.8382 26.6777 29.6821C25.8338 30.5259 24.6893 31 23.496 31ZM23.496 28.0002C23.8938 28.0002 24.2753 27.8422 24.5565 27.5609C24.8378 27.2797 24.9958 26.8982 24.9958 26.5004C24.9958 26.1026 24.8378 25.7211 24.5565 25.4398C24.2753 25.1585 23.8938 25.0005 23.496 25.0005C23.0982 25.0005 22.7167 25.1585 22.4354 25.4398C22.1541 25.7211 21.9961 26.1026 21.9961 26.5004C21.9961 26.8982 22.1541 27.2797 22.4354 27.5609C22.7167 27.8422 23.0982 28.0002 23.496 28.0002ZM8.4972 17.5011C8.89499 17.5011 9.27649 17.3431 9.55777 17.0618C9.83906 16.7805 9.99708 16.399 9.99708 16.0012C9.99708 15.6034 9.83906 15.2219 9.55777 14.9407C9.27649 14.6594 8.89499 14.5014 8.4972 14.5014C8.09941 14.5014 7.71791 14.6594 7.43663 14.9407C7.15535 15.2219 6.99732 15.6034 6.99732 16.0012C6.99732 16.399 7.15535 16.7805 7.43663 17.0618C7.71791 17.3431 8.09941 17.5011 8.4972 17.5011Z" fill="#0F0F0F"/>
</svg>
