<svg width="32" height="32" viewBox="0 0 32 32" fill="none" xmlns="http://www.w3.org/2000/svg">
<path d="M21 16C21 17.3802 20.5117 18.5586 19.5352 19.5352C18.5586 20.5117 17.3802 21 16 21C14.6198 21 13.4414 20.5117 12.4648 19.5352C11.4883 18.5586 11 17.3802 11 16C11 14.6198 11.4883 13.4414 12.4648 12.4648C13.4414 11.4883 14.6198 11 16 11C17.3802 11 18.5586 11.4883 19.5352 12.4648C20.5117 13.4414 21 14.6198 21 16ZM16 5.375C14.0729 5.375 12.2956 5.85026 10.668 6.80078C9.04036 7.7513 7.7513 9.04036 6.80078 10.668C5.85026 12.2956 5.375 14.0729 5.375 16C5.375 17.9271 5.85026 19.7044 6.80078 21.332C7.7513 22.9596 9.04036 24.2487 10.668 25.1992C12.2956 26.1497 14.0729 26.625 16 26.625C17.9271 26.625 19.7044 26.1497 21.332 25.1992C22.9596 24.2487 24.2487 22.9596 25.1992 21.332C26.1497 19.7044 26.625 17.9271 26.625 16C26.625 14.0729 26.1497 12.2956 25.1992 10.668C24.2487 9.04036 22.9596 7.7513 21.332 6.80078C19.7044 5.85026 17.9271 5.375 16 5.375ZM31 16C31 18.7214 30.3294 21.2311 28.9883 23.5293C27.6471 25.8275 25.8275 27.6471 23.5293 28.9883C21.2311 30.3294 18.7214 31 16 31C13.2786 31 10.7689 30.3294 8.4707 28.9883C6.17253 27.6471 4.35286 25.8275 3.01172 23.5293C1.67057 21.2311 1 18.7214 1 16C1 13.2786 1.67057 10.7689 3.01172 8.4707C4.35286 6.17253 6.17253 4.35286 8.4707 3.01172C10.7689 1.67057 13.2786 1 16 1C18.7214 1 21.2311 1.67057 23.5293 3.01172C25.8275 4.35286 27.6471 6.17253 28.9883 8.4707C30.3294 10.7689 31 13.2786 31 16Z" fill="#0F0F0F"/>
</svg>
