<svg width="40" height="40" viewBox="0 0 40 40" fill="none" xmlns="http://www.w3.org/2000/svg">
<path d="M40 8.84741C38.4953 9.50367 36.904 9.93981 35.275 10.1424C36.9917 9.12398 38.2752 7.51132 38.8825 5.60991C37.275 6.56325 35.5163 7.2346 33.6825 7.59491C32.5581 6.39436 31.0986 5.55971 29.4937 5.1994C27.8888 4.83909 26.2126 4.96977 24.6829 5.57447C23.1533 6.17917 21.8408 7.22994 20.9161 8.59025C19.9913 9.95057 19.4971 11.5575 19.4975 13.2024C19.4975 13.8524 19.5525 14.4774 19.6875 15.0724C16.4252 14.9125 13.2334 14.0658 10.3208 12.5877C7.40811 11.1096 4.84023 9.03345 2.785 6.49491C1.73205 8.29956 1.40652 10.4377 1.87471 12.4739C2.34289 14.5102 3.56959 16.2914 5.305 17.4549C4.00689 17.4201 2.73618 17.0737 1.6 16.4449V16.5349C1.60217 18.4285 2.25666 20.2635 3.45329 21.7311C4.64992 23.1986 6.31562 24.2091 8.17 24.5924C7.46847 24.7773 6.74547 24.8681 6.02 24.8624C5.49897 24.8717 4.97846 24.8247 4.4675 24.7224C4.99735 26.35 6.01872 27.7733 7.39099 28.7963C8.76324 29.8193 10.4189 30.3918 12.13 30.4349C9.22735 32.705 5.64743 33.9365 1.9625 33.9324C1.29 33.9324 0.645 33.9024 0 33.8199C3.74971 36.2363 8.11919 37.5145 12.58 37.4999C27.67 37.4999 35.92 24.9999 35.92 14.1649C35.92 13.8024 35.9075 13.4524 35.89 13.1049C37.5074 11.9474 38.9002 10.5046 40 8.84741Z" fill="#0F0F0F"/>
</svg>
