<svg width="32" height="32" viewBox="0 0 32 32" fill="none" xmlns="http://www.w3.org/2000/svg">
<path d="M16.6969 10C12.7353 10 9.14744 11.48 6.38179 13.8869L3.55635 11.0614C2.61454 10.1196 1 10.7774 1 12.1079V20.4646C1 21.2868 1.67272 21.9595 2.49494 21.9595H10.8517C12.1822 21.9595 12.8549 20.345 11.9131 19.4032L9.05774 16.5479C11.1357 14.8137 13.7818 13.7374 16.7118 13.7374C21.4359 13.7374 25.5171 16.4881 27.4605 20.4646C27.8641 21.3018 28.8209 21.7204 29.7029 21.4214C30.7643 21.0775 31.3025 19.8666 30.8241 18.8501C28.2528 13.6178 22.9009 10 16.6969 10Z" fill="#0F0F0F"/>
</svg>
