<svg width="40" height="40" viewBox="0 0 40 40" fill="none" xmlns="http://www.w3.org/2000/svg">
<path d="M35.8336 28.8063C37.3361 26.1144 38.1249 23.0828 38.1249 20C38.1249 16.9172 37.3361 13.8856 35.8336 11.1938C35.8258 11.1062 35.7991 11.0214 35.7553 10.9452C35.7115 10.8691 35.6516 10.8033 35.5799 10.7525C33.5536 7.33674 30.4614 4.68108 26.7788 3.19382C23.0962 1.70657 19.027 1.47006 15.1969 2.52065C11.3668 3.57123 7.98779 5.85076 5.57937 9.00877C3.17094 12.1668 1.86646 16.0284 1.86646 20C1.86646 23.9716 3.17094 27.8332 5.57937 30.9912C7.98779 34.1492 11.3668 36.4288 15.1969 37.4794C19.027 38.5299 23.0962 38.2934 26.7788 36.8062C30.4614 35.3189 33.5536 32.6633 35.5799 29.2475C35.6516 29.1967 35.7115 29.131 35.7553 29.0548C35.7991 28.9786 35.8258 28.8938 35.8336 28.8063ZM9.61239 29.375H12.4743C13.0735 31.7336 14.1689 33.9372 15.6874 35.8388C13.0166 34.3979 10.8851 32.1299 9.61239 29.375ZM3.14052 20.625H6.26177C6.31877 23.1891 6.80989 25.725 7.71427 28.125H5.21427C3.944 25.8224 3.23359 23.2531 3.14052 20.625ZM5.21552 11.875H7.71552C6.81114 14.275 6.32002 16.8109 6.26302 19.375H3.14052C3.23398 16.7468 3.94481 14.1775 5.21552 11.875ZM30.3874 10.625H27.5255C26.9263 8.26645 25.8309 6.06284 24.3124 4.16125C26.9831 5.60214 29.1147 7.87012 30.3874 10.625ZM36.8593 19.375H33.738C33.681 16.8109 33.1899 14.275 32.2855 11.875H34.7855C36.0558 14.1776 36.7662 16.7469 36.8593 19.375ZM32.488 19.375H28.7424C28.7154 16.8502 28.4164 14.3357 27.8505 11.875H30.9511C31.9099 14.2624 32.4305 16.803 32.488 19.375ZM19.3749 11.875V19.375H12.5074C12.5409 16.847 12.8608 14.3309 13.4611 11.875H19.3749ZM13.8061 10.625C15.0561 6.50875 17.0886 3.63938 19.3749 3.19125V10.625H13.8061ZM19.3749 20.625V28.125H13.4611C12.8608 25.6691 12.5409 23.153 12.5074 20.625H19.3749ZM19.3749 29.375V36.8088C17.0886 36.3606 15.0568 33.4913 13.8061 29.375H19.3749ZM20.6249 28.125V20.625H27.4924C27.4589 23.153 27.139 25.6691 26.5386 28.125H20.6249ZM26.1936 29.375C24.9436 33.4913 22.9105 36.3606 20.6249 36.8088V29.375H26.1936ZM20.6249 19.375V11.875H26.5386C27.139 14.3309 27.4589 16.847 27.4924 19.375H20.6249ZM20.6249 10.625V3.19125C22.9105 3.63938 24.9424 6.50875 26.1936 10.625H20.6249ZM15.6874 4.16125C14.1689 6.06284 13.0735 8.26645 12.4743 10.625H9.61239C10.8851 7.87012 13.0166 5.60214 15.6874 4.16125ZM12.1486 11.875C11.583 14.3357 11.2842 16.8502 11.2574 19.375H7.51177C7.56908 16.803 8.08948 14.2624 9.04802 11.875H12.1486ZM7.51177 20.625H11.2574C11.2842 23.1498 11.583 25.6643 12.1486 28.125H9.04802C8.08948 25.7376 7.56908 23.197 7.51177 20.625ZM24.3124 35.8388C25.8309 33.9372 26.9263 31.7336 27.5255 29.375H30.3874C29.1147 32.1299 26.9831 34.3979 24.3124 35.8388ZM27.8505 28.125C28.4164 25.6643 28.7154 23.1498 28.7424 20.625H32.488C32.4305 23.197 31.9099 25.7376 30.9511 28.125H27.8505ZM33.738 20.625H36.8593C36.7658 23.2532 36.055 25.8225 34.7843 28.125H32.2843C33.1891 25.7251 33.6806 23.1892 33.738 20.625ZM34.023 10.625H31.7636C30.8078 8.4901 29.4253 6.57331 27.7011 4.9925C30.2499 6.30648 32.4248 8.24414 34.023 10.625ZM12.298 4.9925C10.5743 6.57351 9.19202 8.49027 8.23614 10.625H5.97677C7.57479 8.24416 9.74939 6.3065 12.298 4.9925ZM5.97677 29.375H8.23614C9.19221 31.5098 10.5747 33.4266 12.2986 35.0075C9.74979 33.6936 7.57496 31.7559 5.97677 29.375ZM27.7011 35.0075C29.4253 33.4267 30.8078 31.5099 31.7636 29.375H34.023C32.4248 31.7559 30.2499 33.6935 27.7011 35.0075Z" fill="#0F0F0F"/>
</svg>
